<svg width="185" height="46" viewBox="0 0 185 46" fill="none" xmlns="http://www.w3.org/2000/svg">
<g clip-path="url(#clip0_2001_1258)">
<path d="M136.664 8.20603C138.74 6.13103 141.367 4.54371 144.414 3.69745C145.692 3.33887 146.983 3.13328 148.256 3.06635C144.763 3.60661 139.025 5.91588 136.664 8.20603Z" fill="#231F20"/>
<path d="M131.93 17.5581C132.21 15.8848 132.742 14.2737 133.488 12.7725L133.483 12.7629C134.474 10.9749 139.312 8.5127 145.432 6.8107C151.548 5.10871 156.966 4.72146 158.756 5.73022C147.068 5.33341 132.525 13.6713 131.939 17.5677L131.93 17.5581Z" fill="#231F20"/>
<path d="M140.957 35.7344C139.796 35.1177 138.707 34.3719 137.711 33.5113H137.716C137.633 33.4061 137.566 33.2914 137.532 33.1719C136.98 31.226 142.907 27.8794 150.812 25.6754C158.722 23.4762 165.514 23.285 166.066 25.2308C166.114 25.4029 166.119 25.575 166.071 25.7663C157.445 23.6722 136.361 32.5073 140.957 35.7344Z" fill="#231F20"/>
<path d="M135.447 31.149C134.707 30.2167 134.059 29.2032 133.522 28.1179H133.526C132.878 25.8565 139.816 21.9458 149.017 19.388C158.219 16.8302 166.207 16.5864 166.85 18.8478C157.513 16.9928 132.162 26.5832 135.447 31.149Z" fill="#231F20"/>
<path d="M136.797 8.1732C137.962 6.99227 141.03 5.52925 144.779 4.48697C148.524 3.44468 151.901 3.10523 153.521 3.51162C144.136 3.85586 134.963 9.80356 133.492 12.7631L133.497 12.7678C134.334 11.0753 135.442 9.52147 136.797 8.1732Z" fill="#231F20"/>
<path d="M145.19 37.3357C143.715 36.9819 142.288 36.4417 140.957 35.7341C140.72 35.5811 140.565 35.3995 140.502 35.1843C140.038 33.5493 145.065 30.6712 151.702 28.821C158.345 26.9756 164.155 26.8369 164.62 28.472C164.683 28.6871 164.644 28.9262 164.523 29.1748C156.013 26.8274 139.515 35.8154 145.19 37.3357Z" fill="#231F20"/>
<path d="M137.715 33.5105C136.892 32.7981 136.133 32.0141 135.45 31.1535C135.363 31.0436 135.305 30.9193 135.267 30.7902C134.652 28.6483 141.198 24.9575 149.916 22.5336C158.634 20.1097 166.162 19.8897 166.776 22.0364C166.81 22.1655 166.824 22.2993 166.81 22.438C157.879 20.2005 134.555 29.724 137.715 33.5105Z" fill="#231F20"/>
<path d="M132.359 25.1294C131.764 22.8346 138.755 18.8473 148.122 16.2417C157.493 13.6361 165.606 13.3923 166.264 15.6967C157.851 13.7461 132.229 22.8585 133.53 28.1174L133.525 28.1222C133.046 27.1756 132.659 26.1764 132.359 25.1294Z" fill="#231F20"/>
<path d="M145.19 37.3363C144.658 37.1976 144.324 36.9777 144.237 36.6717C143.889 35.4525 147.634 33.3393 152.597 31.9576C157.561 30.5758 161.872 30.4467 162.22 31.6659C162.307 31.9719 162.138 32.3305 161.756 32.7225C154.47 31.0826 146.884 36.2414 148.993 37.475C148.867 37.3985 148.78 37.3076 148.746 37.1976C148.533 36.4566 150.58 35.2374 153.313 34.4772C156.047 33.717 158.437 33.7027 158.645 34.4437C158.858 35.1848 156.811 36.404 154.078 37.1642C151.073 38.0057 148.03 38.0152 145.19 37.3363Z" fill="#231F20"/>
<path d="M158.652 34.4438C158.865 35.1849 156.818 36.404 154.085 37.1642C151.351 37.9244 148.962 37.9436 148.753 37.1977C148.541 36.4518 150.587 35.2374 153.321 34.4773C156.054 33.7171 158.439 33.7027 158.652 34.4438Z" fill="#231F20"/>
<path d="M131.704 31.4835C126.89 30.054 124.568 27.2811 132.391 20.3249C140.219 13.3687 152.943 9.65875 164.157 8.30576C175.952 6.88584 190.838 8.8699 171.796 21.1472C170.77 21.7592 169.895 22.5719 169.232 21.8404C174.631 16.5193 172.551 11.4181 159.992 12.403C147.437 13.3831 134.534 20.1002 130.998 24.8906C127.461 29.6859 132.067 30.6564 134.273 30.9911C134.665 31.0532 134.979 31.2397 134.97 31.517C134.955 31.7942 134.292 31.7942 133.925 31.7942C133.557 31.7895 132.541 31.713 131.704 31.4835Z" fill="#231F20"/>
<path d="M146.339 9.64437C138.429 11.8484 132.081 15.3432 131.714 17.4802C131.573 18.3217 131.496 19.1822 131.477 20.0476C131.568 19.9615 131.66 19.8755 131.752 19.7894C132.594 19.0292 133.494 18.3073 134.442 17.6189C136.077 16.3424 138.298 15.0372 140.819 13.8372C146.721 10.9639 153.533 9.05632 160.078 8.00931C157.156 7.55034 152.067 8.05233 146.339 9.64437Z" fill="#231F20"/>
<path d="M10.4933 20.004C11.0709 20.004 11.4881 20.1863 11.4881 20.8919V37.7939H15.5314V22.5409C15.5314 20.6303 15.2586 18.5849 12.0176 18.5849H3.51381C0.280784 18.5849 0 20.6303 0 22.5409V37.7939H4.05131V20.8919C4.05131 20.1863 4.46045 20.004 5.04609 20.004H10.4933Z" fill="#231F20"/>
<path d="M35.3125 37.7933L39.8612 21.4225C40.4388 19.4643 41.3052 18.0849 43.5916 18.0849C46.2951 18.0849 46.7444 20.0034 47.4584 22.3104L52.0953 37.7933H47.8194L46.1106 31.9664H38.8183L37.1978 37.7933H35.3125ZM45.5731 30.1034L43.3589 22.6275C43.0461 21.5176 43.0862 20.8041 42.4604 20.8041C41.8267 20.8041 41.7384 21.5652 41.4657 22.6751L39.3477 30.1034H45.5731Z" fill="#231F20"/>
<path d="M29.6788 37.7903L25.2183 22.6245C24.9055 21.5146 24.9536 20.8011 24.3279 20.8011C23.6941 20.8011 23.6058 21.5622 23.3331 22.672L19.0571 37.7983H17.1719L21.7126 21.4274C22.2902 19.4692 23.1566 18.0898 25.443 18.0898C28.1465 18.0898 28.5958 20.0083 29.3098 22.3153L33.9547 37.7983H29.6788V37.7903Z" fill="#231F20"/>
<path d="M53.7344 37.7939V18.5849H57.7536V26.9487H65.1503V18.5849H69.2657V37.7939H65.1503V28.8117H57.7536V37.7939H53.7344Z" fill="#231F20"/>
<path d="M84.2239 20.004H76.5305C75.9368 20.004 75.5357 20.1863 75.5357 20.8919V26.9408H82.6916V28.8117H75.5357V35.035C75.5357 35.9229 76.0732 36.3669 77.0679 36.3669H84.7694V37.7939H74.589C72.6556 37.7939 71.4844 36.9059 71.4844 34.4166V22.5409C71.4844 20.6303 71.7571 18.5849 74.9982 18.5849H84.2239V20.004Z" fill="#231F20"/>
<path d="M91.9539 37.7939V20.004H86.25V18.5849H101.781V20.004H96.0774V37.7939H91.9539Z" fill="#231F20"/>
<path d="M99.8672 37.7933L104.416 21.4225C105.002 19.4643 105.86 18.0849 108.154 18.0849C110.858 18.0849 111.307 20.0034 112.021 22.3104L116.658 37.7933H112.382L110.673 31.9664H103.381L101.76 37.7933H99.8672ZM110.128 30.1034L107.922 22.6275C107.609 21.5176 107.657 20.8041 107.023 20.8041C106.389 20.8041 106.301 21.5652 106.036 22.6751L103.919 30.1034H110.128Z" fill="#231F20"/>
</g>
<defs>
<clipPath id="clip0_2001_1258">
<rect width="180.912" height="34.7556" fill="white" transform="translate(0 3.06635)"/>
</clipPath>
</defs>
</svg>
