<svg width="241" height="30" viewBox="0 0 241 30" fill="none" xmlns="http://www.w3.org/2000/svg">
<g clip-path="url(#clip0_216_1748)">
<path d="M109.715 10.1369C109.715 8.16846 109.112 6.43863 107.907 5.186C106.401 3.57547 103.991 2.62109 100.858 2.62109H90.2539V26.3614H94.2304V6.37898H94.3509H100.436C102.003 6.37898 103.268 6.73688 104.111 7.39302C104.955 8.04916 105.437 9.0632 105.437 10.3158C105.437 12.4035 104.051 13.8351 101.822 14.2527C101.4 14.3123 99.1709 14.372 99.1709 14.372V17.4737L105.557 26.3614H110.438L103.991 17.3544C107.365 16.4 109.715 14.0141 109.715 10.1369Z" fill="#231F20"/>
<path d="M0.54225 6.37906H12.532L0 24.2738V26.3615H2.5305H3.374H18.3762V22.4247H6.08525L18.3762 4.64924V2.56152H0.54225V6.37906Z" fill="#231F20"/>
<path d="M187.86 19.3826L173.701 2.56152H170.93V5.00714V5.24573V26.3615H174.906V10.137L188.101 26.3615H191.897V2.56152H187.86V19.3826Z" fill="#231F20"/>
<path d="M137.488 13.4773V26.3615V26.4212H141.465V26.3615V13.4773V2.56152H137.488V13.4773Z" fill="#231F20"/>
<path d="M52.2379 2.56152L50.9727 5.12644L61.8177 26.3615H66.2159L54.4069 2.56152H52.2379Z" fill="#231F20"/>
<path d="M46.3899 14.252L40.3047 26.3607H44.7632L48.9204 18.1888H53.6802L51.6317 14.252H46.3899Z" fill="#231F20"/>
<path d="M229.192 2.56152H227.023L225.758 5.12644L236.603 26.3615H241.001L229.192 2.56152Z" fill="#231F20"/>
<path d="M221.177 14.252L215.152 26.3607H219.551L223.708 18.1888H228.528L226.479 14.252H221.177Z" fill="#231F20"/>
</g>
<defs>
<clipPath id="clip0_216_1748">
<rect width="241" height="30" fill="white"/>
</clipPath>
</defs>
</svg>
