<svg width="165" height="92" viewBox="0 0 165 92" fill="none" xmlns="http://www.w3.org/2000/svg">
<path d="M10.6013 54.36C13.4063 53.24 23.43 49.12 23.43 40C23.43 34.12 18.9338 30 11.6325 30C5.32125 30 0 34.12 0 40C0 45.76 5.07375 49.8 11.22 50C11.22 50 11.22 50 11.1788 50C8.29125 51.92 4.41375 53.48 0.28875 55.32V61.36H23.43V54.36H10.6013ZM4.16625 41.32C3.83625 38.72 5.48625 35.8 9.52875 35.48C12.3338 35.24 15.4275 36.84 15.5513 40.44C15.6338 43.04 14.9325 45.28 13.2 47.12C9.9825 47.12 4.74375 46.36 4.16625 41.32Z" fill="#222220"/>
<path d="M53.1287 30.7188H60.0588L64.3075 61.3587H57.5838L55.15 43.6787L48.6737 61.3587H42.6513L36.2163 43.6787L33.7825 61.3587H26.6875L30.9363 30.7188H37.8663L45.6625 51.0388L53.1287 30.7188Z" fill="#222220"/>
<path d="M98.6284 46.0381C98.6284 55.4381 91.1209 61.9981 82.1697 61.9981C73.2184 61.9981 65.7109 55.4381 65.7109 46.0381C65.7109 36.6381 73.2184 30.0781 82.1697 30.0781C91.1209 30.0781 98.6284 36.6781 98.6284 46.0381ZM91.8222 46.0381C91.8222 40.7581 87.6147 37.0781 82.2109 37.0781C76.8072 37.0781 72.5997 40.7581 72.5997 46.0381C72.5997 51.3181 76.8072 54.9981 82.2109 54.9981C87.6147 54.9981 91.8222 51.3181 91.8222 46.0381Z" fill="#222220"/>
<path d="M134.64 46.0381C134.64 55.4381 127.133 61.9981 118.181 61.9981C109.271 61.9981 101.723 55.4381 101.723 46.0381C101.723 36.6381 109.23 30.0781 118.181 30.0781C127.091 30.0781 134.64 36.6781 134.64 46.0381ZM127.793 46.0381C127.793 40.7581 123.585 37.0781 118.181 37.0781C112.736 37.0781 108.57 40.7581 108.57 46.0381C108.57 51.3181 112.778 54.9981 118.181 54.9981C123.585 54.9981 127.793 51.3181 127.793 46.0381Z" fill="#222220"/>
<path d="M147.799 30.7188C157.781 30.7188 165 36.2788 165 46.0388C165 55.6788 157.616 61.3587 147.799 61.3587H137.857V30.7188H147.799ZM149.572 37.7188H144.54V54.3587H149.572C154.481 54.3587 158.194 51.0388 158.194 46.0388C158.194 41.3988 154.605 37.7188 149.572 37.7188Z" fill="#222220"/>
</svg>
