<svg width="167" height="92" viewBox="0 0 167 92" fill="none" xmlns="http://www.w3.org/2000/svg">
<path fill-rule="evenodd" clip-rule="evenodd" d="M8.43696 40.1916C8.55243 39.7708 9.01431 39.4648 9.43771 39.5031C16.4815 40.4594 23.5253 41.301 30.5306 42.2573C31.1079 42.2955 31.5698 42.7928 31.7238 43.3666C31.9162 43.8639 31.6468 44.3612 31.6468 44.8585C31.5698 47.0389 31.3389 49.1811 31.3389 51.3616C31.2619 55.1486 31.4543 58.9357 31.6853 62.6845C31.8777 63.2583 31.7623 63.9086 31.4158 64.4059C31.1849 64.7502 30.723 64.6354 30.3766 64.6737C22.8709 64.6737 15.4038 64.6737 7.89809 64.6737C7.28224 64.7119 6.6279 64.2529 6.58941 63.6026C5.81959 58.1706 5.66563 52.5474 6.97431 47.192C10.6694 47.0007 14.2875 47.7658 17.9441 47.957C20.9079 48.263 23.9102 48.6456 26.9124 48.7603C27.0664 48.11 27.0279 47.3832 27.1434 46.6947C21.4083 45.9296 15.6347 45.3941 9.8996 44.6672C9.16828 44.629 8.47545 44.5142 7.82111 44.2465C7.62865 42.8311 8.05205 41.4922 8.43696 40.1916ZM87.9201 44.6672C88.0355 44.17 88.5359 43.8639 88.9978 43.6727C96.5035 43.7109 104.009 43.6727 111.515 43.6727C112.015 43.6727 112.477 43.7874 112.9 44.0169C113.516 46.6182 113.516 49.2576 113.786 51.8971C113.94 53.8098 113.709 55.7224 113.593 57.6351C113.555 59.5095 113.285 61.3839 113.131 63.2201C113.131 63.9086 112.516 64.5207 111.823 64.4824C104.317 64.4824 96.8499 64.4824 89.3442 64.4824C88.7284 64.4824 87.9201 64.0616 87.9585 63.3348C87.997 57.1761 87.9585 50.9408 87.9201 44.6672ZM61.477 44.0169C61.9004 43.7874 62.4008 43.6727 62.8627 43.6727C70.3298 43.7109 77.7585 43.6727 85.2257 43.6727C85.9185 43.6727 86.4959 44.2847 86.4959 44.9733C86.3419 51.0938 86.3804 57.2526 86.4574 63.3731C86.4959 64.0234 85.8031 64.5207 85.1872 64.4824C77.5661 64.5207 69.9449 64.5207 62.3238 64.4824C61.708 64.3677 61.2846 63.8321 61.2461 63.2201C61.0151 61.0396 60.7842 58.8975 60.7072 56.717C60.7072 55.8754 60.5917 55.0339 60.5532 54.154C60.4763 51.2468 60.8612 48.3396 61.1306 45.4323C61.2461 44.9733 61.3615 44.5142 61.477 44.0169ZM136.919 39.6561C137.265 39.2735 137.804 39.5031 138.227 39.5413C145.002 40.4211 151.776 41.2627 158.589 42.1808C159.166 42.2573 159.628 42.6781 160.013 43.0989C159.974 44.6672 159.667 46.2356 159.667 47.804C159.551 51.8206 159.551 55.8754 159.705 59.892C159.782 61.2309 159.974 62.5315 160.013 63.8704C159.744 64.1764 159.513 64.5972 159.051 64.6354C151.391 64.6737 143.77 64.6354 136.11 64.6737C135.417 64.6737 134.763 64.1381 134.686 63.4878C134.378 60.8101 134.186 58.0941 134.109 55.4164C134.417 52.5857 134.224 49.6402 135.302 47.0007C141.922 47.4597 148.466 48.3778 155.086 48.7986C155.125 48.0335 155.24 47.2302 155.048 46.5034C153.739 46.5034 152.43 46.3886 151.122 46.1591C146.156 45.6618 141.23 45.0115 136.264 44.476C135.648 43.8257 135.879 42.7928 136.11 42.0278C136.38 41.2244 136.341 40.3064 136.919 39.6561ZM91.3072 33.2295C91.7306 33 92.2695 33 92.7699 33C97.0423 33.5738 101.276 34.1859 105.549 34.7214C106.511 34.8744 107.512 34.9127 108.436 35.3334C108.474 36.7106 108.59 38.2024 107.82 39.4265C107.473 39.5796 107.127 39.5796 106.78 39.5796C105.703 39.5031 104.625 39.35 103.586 39.197C99.6982 38.6615 95.7721 38.2024 91.8846 37.6286C91.3457 37.5904 90.9993 37.1313 90.6529 36.7488C90.8838 35.563 90.7684 34.3006 91.3072 33.2295ZM34.3026 44.0552C34.5721 43.8639 34.957 43.9404 35.2649 43.9022C42.6936 43.8639 50.1608 43.8639 57.5895 43.8639C58.0898 43.8639 58.7827 43.8257 59.0136 44.3995C59.1676 45.6618 59.1291 46.9624 59.0136 48.263C58.8596 48.6838 58.2823 48.7221 57.8974 48.7221C55.0876 48.6456 52.2393 48.7603 49.391 48.5308C48.9291 52.2796 49.0061 56.105 49.391 59.8538C52.4702 59.8538 55.5495 59.8155 58.6672 59.8155C59.3985 60.9249 59.0136 62.3402 59.0906 63.5643C59.1676 64.1764 58.5902 64.6354 58.0513 64.6737C50.4302 64.6737 42.7706 64.6737 35.1494 64.6737C34.4566 64.6737 33.8023 64.0999 33.7253 63.4113C33.0709 59.739 33.0325 55.9902 33.0709 52.2414C33.1094 49.9079 33.3019 47.6127 33.6868 45.3175C33.7638 44.8585 33.9177 44.3612 34.3026 44.0552ZM92.7314 48.4543C92.8084 50.3287 92.7699 52.1649 92.8853 54.0393C92.7699 55.8754 92.7699 57.7116 92.7314 59.5478C94.348 59.5478 95.9646 59.586 97.5812 59.586C98.0046 55.8754 98.0431 52.0884 97.5812 48.3778C95.9646 48.4161 94.348 48.4161 92.7314 48.4543ZM76.7578 48.3778C76.3344 52.1649 76.3344 55.9902 76.8348 59.7773C78.4129 59.4713 80.068 59.6243 81.6461 59.5478C81.5306 55.8372 81.4921 52.1649 81.6461 48.4543C80.0295 48.4161 78.3744 48.4161 76.7578 48.3778ZM150.044 53.1977C150.044 55.4164 149.813 57.6351 150.236 59.8155C151.853 59.7773 153.47 59.7773 155.048 59.7773C155.009 57.5968 154.74 55.4547 154.74 53.2742C153.2 53.236 151.622 53.1212 150.044 53.1977ZM22.0241 59.8155C23.6407 59.8155 25.2574 59.7773 26.874 59.7773C26.7585 57.5968 26.874 55.4164 26.5275 53.236C25.0264 53.1977 23.4868 53.1595 21.9856 53.1212C21.9087 55.3399 21.9087 57.5968 22.0241 59.8155ZM117.134 37.6286C122.023 37.5904 126.95 37.5521 131.838 37.6669C132.3 37.5904 132.454 38.1259 132.531 38.4702C132.723 39.4265 132.454 40.3829 132.338 41.3392C131.761 45.7383 131.414 50.214 131.684 54.6513C131.722 54.9191 131.876 55.1486 131.838 55.3782C131.876 57.5203 132.223 59.6243 132.454 61.7282C132.569 62.5315 132.646 63.3731 132.415 64.1381C131.915 64.4442 131.299 64.5207 130.722 64.5589C126.372 64.6737 122.023 64.6354 117.635 64.4824C116.942 64.4442 116.442 63.8321 116.365 63.1818C115.556 57.5586 114.902 51.8206 115.479 46.1209C115.672 43.6727 116.018 41.1862 116.326 38.738C116.48 38.3555 116.827 37.9729 117.134 37.6286ZM77.7585 36.175C79.2212 36.2515 80.7608 35.6012 82.1465 36.2133C82.2234 37.3991 82.6084 38.6232 82.4159 39.8473C82.2619 40.3829 81.6461 40.6124 81.1072 40.6124C79.1442 40.6506 77.1812 40.9184 75.1797 41.0332C73.5631 41.1862 71.9465 41.1862 70.3298 41.4157C68.5978 41.607 66.8657 41.6835 65.1336 41.5305C64.7102 40.3064 64.6332 39.0058 64.7487 37.7434C64.9797 37.3226 65.48 37.0931 65.9034 37.0931C69.868 36.7871 73.8325 36.481 77.7585 36.175Z" fill="#3A3A3A"/>
</svg>
