<svg width="154" height="92" viewBox="0 0 154 92" fill="none" xmlns="http://www.w3.org/2000/svg">
<path d="M18.7572 51.9109H5.74127L3.04718 58.7004H1L11.285 33H13.2954L23.6172 58.7004H21.4554L18.7613 51.9109H18.7572ZM12.2677 35.587L6.50282 50.0324H17.9998L12.2677 35.587Z" fill="#231F20"/>
<path d="M42.19 58.6985V55.8483C41.3179 57.3098 39.3075 59.0021 35.8519 59.0021C31.4136 59.0021 28.4902 56.0386 28.4902 51.4232V39.9414H30.3491V51.1965C30.3491 54.9859 32.474 57.237 36.0402 57.237C39.6064 57.237 42.1859 54.7592 42.1859 50.6702V39.9414H44.0447V58.6985H42.1859H42.19Z" fill="#231F20"/>
<path d="M59.0778 41.6688C55.4338 41.6688 52.7397 44.4097 52.7397 48.4988V58.7053H50.8809V39.9441H52.7397V43.434C53.4603 42.0089 55.5116 39.6445 59.0778 39.6445V41.6688Z" fill="#231F20"/>
<path d="M80.0413 54.9888C78.4854 57.3167 75.7545 58.9645 72.1105 58.9645C66.6855 58.9645 62.4355 54.7621 62.4355 49.2844C62.4355 43.8066 66.6855 39.6406 72.1105 39.6406C75.7545 39.6406 78.4486 41.256 80.0413 43.507V39.9443H81.9001V58.7014H80.0413V54.9888ZM64.2944 49.3248C64.2944 53.754 67.6722 57.2034 72.2252 57.2034C76.7781 57.2034 80.1559 53.7904 80.1559 49.3248C80.1559 44.8592 76.7044 41.4099 72.2252 41.4099C67.7459 41.4099 64.2944 44.8633 64.2944 49.3248Z" fill="#231F20"/>
<path d="M104.293 47.2194V58.7012H102.434V47.4462C102.434 43.6567 100.309 41.4057 96.7428 41.4057C93.1766 41.4057 90.5971 43.8834 90.5971 47.9725V58.7012H88.7383V39.9441H90.5971V42.7943C91.6985 41.1061 93.631 39.6445 96.9352 39.6445C101.373 39.6445 104.297 42.6081 104.297 47.2235L104.293 47.2194Z" fill="#231F20"/>
<path d="M126.681 47.2194V58.7012H124.823V47.4462C124.823 43.6567 122.698 41.4057 119.131 41.4057C115.565 41.4057 112.986 43.8834 112.986 47.9725V58.7012H111.127V39.9441H112.986V42.7943C114.087 41.1061 116.02 39.6445 119.324 39.6445C123.762 39.6445 126.686 42.6081 126.686 47.2235L126.681 47.2194Z" fill="#231F20"/>
<path d="M150.141 54.9888C148.585 57.3167 145.854 58.9645 142.21 58.9645C136.785 58.9645 132.535 54.7621 132.535 49.2844C132.535 43.8066 136.785 39.6406 142.21 39.6406C145.854 39.6406 148.548 41.256 150.141 43.507V39.9443H152V58.7014H150.141V54.9888ZM134.394 49.3248C134.394 53.754 137.772 57.2034 142.325 57.2034C146.878 57.2034 150.256 53.7904 150.256 49.3248C150.256 44.8592 146.804 41.4099 142.325 41.4099C137.846 41.4099 134.394 44.8633 134.394 49.3248Z" fill="#231F20"/>
</svg>
