<svg width="133" height="92" viewBox="0 0 133 92" fill="none" xmlns="http://www.w3.org/2000/svg">
<g clip-path="url(#clip0_437_3141)">
<g opacity="0.71">
<path fill-rule="evenodd" clip-rule="evenodd" d="M0.232797 13.2007C0.997547 13.0017 1.8288 13.0349 2.6268 13.0349C43.3913 13.0349 84.1558 13.0349 124.92 13.0349C127.58 13.0017 130.24 12.9686 132.867 13.1344C133.1 17.4131 132.9 21.6587 132.967 25.9374C132.967 42.2893 132.967 58.6745 132.967 75.0265C132.934 76.5522 133.1 78.1443 132.867 79.67C132.701 79.9686 132.269 79.9354 131.969 79.9686C89.7418 79.9686 47.5143 79.9686 5.25355 79.9686C3.52455 79.9686 1.8288 80.0349 0.0997969 79.869C0.0332969 79.2057 0.0332969 78.5755 -0.0332031 77.9121C-0.0332031 56.7839 -0.0332031 35.6557 -0.0332031 14.4943C0.0665469 14.0963 0.0332969 13.5988 0.232797 13.2007ZM1.26355 14.2621C1.26355 16.6171 1.2303 18.9389 1.2968 21.2938C3.4248 22.4215 5.9518 22.6537 8.31255 22.322C9.2103 22.123 9.64255 21.2275 10.0415 20.4646C9.04405 20.4314 8.04655 20.5973 7.04905 20.2656C6.45055 20.0334 6.11805 19.4364 5.85205 18.9057C6.6168 19.3037 7.4148 19.7681 8.3458 19.7349C9.11055 19.7349 10.0083 19.4032 10.3075 18.6403C10.6068 17.8111 10.6733 16.8492 10.3408 16.0532C10.108 15.4893 9.6093 14.9587 8.97755 14.826C8.37905 14.6933 7.7473 14.7596 7.1488 14.9255C6.65005 15.1908 6.4838 15.7879 6.25105 16.2522C5.85205 16.2522 5.45305 16.2854 5.0208 16.2854C4.98755 15.8874 4.8213 15.423 5.05405 15.0582C5.4198 14.627 5.98505 14.4943 6.45055 14.2621C4.72155 14.2621 2.99255 14.2621 1.26355 14.2621ZM9.6093 14.2621C10.241 14.7265 11.0058 15.1577 11.2718 15.9537C11.704 17.3799 10.9725 18.8393 11.2053 20.2988C11.3383 20.6968 11.6708 20.9621 12.0033 21.1943C13.1005 21.8577 14.3973 22.2557 15.6608 22.322C16.7913 22.3884 17.9218 22.0567 18.8528 21.3933C19.418 20.929 19.7173 20.2988 20.083 19.6686C20.2493 20.3319 20.4155 21.0616 20.1163 21.6918C19.4845 22.8859 18.221 23.6488 16.891 23.8146C15.3283 24.0799 13.7655 23.6819 12.3358 23.0517C12.7015 24.0136 13.3333 24.876 14.231 25.3735C15.694 26.4017 17.556 26.6339 19.2518 27.0319C20.5153 27.3304 21.7788 27.2973 23.0755 27.2973C23.1088 27.4631 23.142 27.6621 23.1753 27.828C21.9118 27.9938 20.5485 27.8943 19.3515 28.3918C18.3873 29.3537 17.955 30.7799 16.758 31.5096C15.5943 32.2725 14.1313 31.5428 12.9343 32.0735C12.5353 32.8032 12.502 33.7651 11.7373 34.2294C9.7423 35.5562 7.2153 35.4898 4.92105 35.3572C6.3508 34.8928 7.9468 34.5943 8.97755 33.4002C9.77555 32.4052 9.57605 31.0453 9.64255 29.8512C9.70905 28.4913 10.4073 27.1646 11.6043 26.4681C12.3358 26.07 13.2003 26.0369 13.9983 25.9705C12.9343 25.4398 12.2028 24.478 11.571 23.5161C11.172 24.2458 10.8395 25.0418 10.1745 25.5725C9.0108 26.3354 7.51455 26.2359 6.3508 27.0319C5.51955 27.629 4.8213 28.3587 4.05655 29.022C4.3558 27.7616 4.8213 26.4349 5.8853 25.6057C7.0823 24.7101 8.6783 24.8096 10.0083 24.1794C10.5403 23.9141 10.6068 23.2507 10.7398 22.7532C9.5428 23.4166 8.24605 24.0799 6.84955 24.1131C4.9543 24.2126 2.85955 24.0799 1.33005 22.8195C1.33005 41.4601 1.33005 60.1339 1.33005 78.7745C44.821 78.7745 88.312 78.7745 131.803 78.7745C131.836 57.2814 131.836 35.7884 131.803 14.2953C91.0386 14.2621 50.3073 14.2621 9.6093 14.2621ZM15.9268 28.1265C14.63 28.6572 13.7655 29.7849 13.0008 30.9126C14.0648 30.9126 15.162 30.8795 16.1595 30.4483C17.4895 29.8181 18.5535 28.7567 19.418 27.629C18.2543 27.6621 17.024 27.6621 15.9268 28.1265ZM31.7538 23.9141C33.9815 19.9339 38.57 17.4794 43.1253 17.6785C44.3223 17.7448 45.5858 18.2092 46.2508 19.2374C46.7496 20.0002 46.6831 20.929 46.7163 21.7913C46.2508 21.2606 45.8186 20.6304 45.1203 20.3983C43.225 19.6686 41.1303 19.7349 39.2018 20.1992C36.5085 20.8626 33.9815 22.2225 31.7538 23.9141ZM41.3298 43.0191C42.0613 43.2181 42.7928 43.4502 43.358 43.9809C44.5218 44.976 44.9873 46.5017 45.8851 47.6958C46.3838 48.326 47.1153 48.6908 47.8136 49.0557C46.5833 49.1884 45.2865 48.9893 44.2891 48.2265C44.4885 49.1884 44.5218 50.3493 45.3863 50.9794C46.7495 51.9082 48.4121 52.0077 49.9748 52.3394C48.0796 52.6379 46.0846 53.0359 44.2558 52.3062C43.4911 52.0408 42.8925 51.3111 42.7928 50.5151C42.427 48.9894 43.1253 47.4636 43.1253 45.9379C42.959 44.6775 41.9948 43.8814 41.3298 43.0191ZM43.4911 40.0339C45.5858 41.7587 47.5808 43.6493 50.0746 44.7438C51.0388 45.2082 52.1361 45.2745 53.1336 44.976C53.5991 44.8433 54.0978 44.6775 54.3971 44.2463C54.7961 43.6493 54.8293 42.8864 54.9955 42.1898C55.3613 43.0854 55.6938 44.1136 55.3613 45.0755C55.1618 45.6393 54.6963 46.0374 54.1643 46.2364C53.2333 46.6012 52.2026 46.5681 51.2383 46.6012C53.3663 47.7621 55.8601 48.1933 58.2541 47.6958C59.0188 47.5299 59.7836 47.2314 60.3821 46.7007C61.0803 46.1037 61.4461 45.2082 61.5126 44.3126C61.5458 43.4502 61.1136 42.5215 60.3488 42.1235C59.8168 41.825 59.2183 41.626 58.7196 41.228C58.7528 40.7304 59.2848 40.3656 59.7503 40.5314C61.1135 40.9626 62.1776 42.1567 62.5101 43.5166C62.7761 44.6443 62.4436 45.8715 61.6788 46.7339C60.9806 47.5631 59.983 48.0275 58.9855 48.326C57.1568 48.8567 55.1951 48.7572 53.2998 48.4255C51.3381 48.0938 49.3763 47.4636 47.7803 46.2032C45.7188 44.7106 44.3223 42.422 43.4911 40.0339ZM29.6258 34.8928C30.3905 35.6557 31.388 36.1864 32.4853 36.3854C34.979 36.8829 37.6723 37.1814 39.767 38.7403C40.8643 39.47 41.097 40.9958 40.6648 42.1898C40.166 43.3176 39.2018 44.1799 38.2708 44.9428C38.4703 44.0473 38.5035 43.0854 38.0713 42.2562C37.4395 41.1616 36.309 40.4651 35.112 40.0671C33.4495 39.47 31.5543 39.2047 30.324 37.8116C29.4928 37.0156 29.5925 35.8879 29.6258 34.8928ZM43.6241 33.9973C44.5218 34.3621 45.4528 34.7601 46.4503 34.7933C47.5143 34.8596 48.6781 34.8265 49.5425 35.5894C50.7728 36.5181 51.1718 38.1101 51.4711 39.5364C50.6398 38.7735 49.9083 37.8448 48.8443 37.3473C47.614 36.8497 46.284 37.6126 45.0538 37.1151C44.0231 36.4517 43.8236 35.125 43.6241 33.9973ZM20.2493 32.173C21.5128 31.5428 22.1445 30.2161 23.1753 29.3205C23.5078 30.1497 23.9068 30.9126 24.2725 31.7418C24.6715 32.7037 24.605 33.7651 24.738 34.7933C25.4695 35.6557 26.201 36.4849 26.8993 37.3804C27.2318 36.5181 27.7305 35.6889 28.4953 35.1582C28.4953 35.8879 28.4288 36.6507 28.728 37.3473C29.0273 37.9775 29.4928 38.5413 30.058 38.9393C31.0223 39.6359 32.1528 40.0007 33.0173 40.7968C34.0148 41.7587 34.2143 43.4171 33.516 44.6111C32.5518 46.3691 30.6565 47.4304 28.7613 47.8948C29.659 46.5349 30.5235 45.0092 30.4903 43.3507C30.457 42.8532 30.4238 42.3225 30.0913 41.9245C29.3598 40.9626 28.4288 40.1666 27.6973 39.2047C27.6973 40.2329 27.7638 41.2943 27.4978 42.2894C27.1985 43.4502 26.3673 44.4121 26.1013 45.6062C25.8685 46.7671 25.935 47.9943 25.9018 49.1884C25.1038 48.5582 24.3723 47.7953 23.9068 46.8666C23.4745 46.0042 23.3415 45.0423 23.3083 44.0804C23.2085 41.825 23.7738 39.6027 24.073 37.3473C23.6408 38.5082 23.009 39.6691 21.9118 40.3656C21.0805 40.8963 20.0498 40.7636 19.0855 40.7304C19.8503 40.5314 20.748 40.2993 21.1803 39.5695C20.482 38.1765 20.4488 36.5181 20.9143 35.0255C21.3133 33.6324 22.078 32.3389 22.4105 30.9458C21.3465 32.9359 20.0498 34.8265 18.4205 36.3854C17.822 37.0156 16.9908 37.3141 16.1595 37.5131C14.63 37.878 12.9675 37.7121 11.305 37.7453C12.103 37.1151 12.5685 36.2195 13.0008 35.324C13.3 34.727 13.5328 34.0636 14.1645 33.6988C15.96 32.5047 18.3208 33.0686 20.2493 32.173ZM40.8643 28.1265C41.8285 28.3587 42.7928 28.6903 43.8236 28.6903C45.1203 28.6903 46.417 28.1265 47.7138 28.3255C49.1768 28.5245 50.3738 29.6854 51.8701 29.7186C53.1668 29.7186 54.4636 29.4532 55.7936 29.3537C54.6631 30.6141 53.3996 31.8082 51.8036 32.4384C49.4428 33.3339 46.7163 33.2344 44.4221 32.173C42.7263 31.3438 41.629 29.7517 40.8643 28.1265ZM26.6333 24.3121C28.6948 23.9141 30.9558 23.9141 32.8843 24.8096C33.8818 25.2408 34.6465 26.1364 35.7105 26.4349C37.1403 26.7666 38.6033 26.7997 40.0663 26.9324C39.1353 27.7948 37.9383 28.226 36.7413 28.5908C37.772 28.9557 38.836 29.2874 39.8003 29.8512C41.3298 30.7799 42.427 32.4715 42.427 34.2626C42.427 35.722 42.826 37.2809 43.9898 38.2428C45.5193 39.47 47.481 39.8681 49.2766 40.5646C47.3813 40.6641 45.486 40.2661 43.6905 39.7686C42.161 39.271 40.565 38.5745 39.6673 37.1814C38.7363 35.6225 39.102 33.7319 38.8028 32.0403C38.437 30.6473 37.3398 29.6522 36.442 28.5908C35.4445 28.6903 34.447 28.8562 33.4495 28.9225C34.4138 30.3488 34.2475 32.173 35.0123 33.6656C35.5443 34.6275 36.309 35.4235 37.0073 36.2527C34.5468 36.2859 32.1528 35.6889 29.8253 34.9923C28.6283 34.2626 27.2318 33.7651 26.3008 32.6374C25.4695 31.6423 25.3033 30.3156 24.7713 29.1879C24.4388 28.4913 23.9733 27.9275 23.541 27.2973C25.6358 27.3636 27.5643 28.4913 29.0605 29.8844C29.8253 30.5478 30.2908 31.4101 30.7895 32.2725C31.1885 30.9458 31.388 29.1879 30.191 28.1596C28.9275 27.0983 27.265 26.5012 25.6358 26.4017C24.4055 26.3354 23.1753 26.5344 21.945 26.6339C23.3415 25.6057 24.871 24.6106 26.6333 24.3121ZM35.4778 23.2839C36.6748 22.8527 37.9715 23.0517 39.1685 23.3834C39.9998 23.6156 40.831 23.3834 41.6623 23.2176C41.363 23.9804 41.0305 24.8428 40.2325 25.2408C38.437 26.2691 36.2425 25.9042 34.3473 25.3403C35.4113 25.075 36.6415 25.2408 37.5393 24.4448C36.176 24.3453 34.8128 24.5775 33.4828 24.7765C34.0148 24.1463 34.6465 23.5493 35.4778 23.2839ZM49.0771 23.8146C49.8751 23.6488 50.3073 22.9191 50.7728 22.322C50.7395 23.1844 50.7396 24.1131 50.2076 24.8428C49.3098 26.0369 47.8468 26.6339 46.3838 26.8661C44.1893 27.1978 41.895 27.0319 39.8003 26.2359C40.565 25.9042 41.3963 25.5725 41.9615 24.9092C42.6265 24.1794 43.3248 23.3171 44.3555 23.1512C45.9848 22.8195 47.4478 24.0799 49.0771 23.8146Z" fill="#572109"/>
</g>
<path fill-rule="evenodd" clip-rule="evenodd" d="M68.263 56.5538C68.529 56.5538 68.795 56.5538 69.061 56.5206C70.3577 59.8706 71.6212 63.2206 72.918 66.5706C73.051 66.8691 73.1175 67.2008 73.3502 67.3998C73.6495 67.632 74.0152 67.6983 74.3477 67.7979C74.3477 67.9969 74.3145 68.1959 74.3145 68.3949C72.652 68.3949 70.9895 68.3949 69.327 68.3949C69.327 68.1627 69.327 67.9637 69.327 67.7315C69.7925 67.5988 70.524 67.7978 70.7567 67.2672C70.6237 66.3384 70.1582 65.5092 69.859 64.6469C68.529 64.6469 67.1657 64.6469 65.8357 64.6469C65.5697 65.4097 65.0377 66.2389 65.337 67.0681C65.603 67.632 66.3345 67.4993 66.7667 67.831C66.933 67.9637 66.933 68.1959 66.9662 68.3949C65.603 68.3949 64.2065 68.3949 62.8432 68.3949C62.8432 68.1959 62.8432 67.9969 62.81 67.7979C63.4417 67.5988 64.0402 67.2008 64.3062 66.5706C65.6695 63.287 66.933 59.9038 68.263 56.5538ZM52.17 56.8191C54.1982 56.8191 56.1932 56.8191 58.2215 56.8191C59.1525 56.8191 60.1832 56.9186 60.9147 57.5488C61.9455 58.3449 62.145 59.937 61.4135 60.9983C60.8815 61.7612 59.9837 62.0929 59.1525 62.3582C60.017 62.5904 60.948 62.8226 61.6462 63.4528C62.7102 64.4147 62.7435 66.2721 61.7792 67.3003C60.7152 68.2954 59.1857 68.4612 57.7892 68.4612C55.9272 68.4612 54.032 68.4612 52.17 68.4612C52.17 68.229 52.17 67.9969 52.17 67.7647C52.6355 67.7315 53.1342 67.6652 53.5997 67.632C53.7992 66.1063 53.6995 64.5474 53.6995 63.0216C53.6995 61.2305 53.7327 59.4394 53.6662 57.6483C53.1675 57.6152 52.6687 57.5488 52.1367 57.5157C52.17 57.2835 52.17 57.0513 52.17 56.8191ZM56.0602 57.6483C55.9937 59.1409 56.027 60.6335 56.027 62.0929C56.9247 62.0597 57.9222 62.2256 58.7202 61.728C59.2855 61.3964 59.4185 60.6998 59.5182 60.1028C59.618 59.3731 59.485 58.5439 58.953 58.0132C58.1217 57.4162 57.0245 57.6152 56.0602 57.6483ZM95.7607 56.6201C97.4232 56.2884 99.252 56.786 100.449 57.98C102.776 60.2355 102.909 64.3152 100.848 66.8028C100.216 67.5325 99.385 68.1295 98.454 68.428C96.858 68.9256 95.0292 68.6271 93.6992 67.5988C92.4357 66.637 91.6377 65.1112 91.4715 63.5523C91.3385 62.0929 91.4715 60.5672 92.203 59.2736C92.9345 57.98 94.2312 56.9186 95.7607 56.6201ZM67.864 59.5721C67.2987 60.9983 66.7335 62.4577 66.1682 63.884C67.2987 63.9172 68.4292 63.9172 69.593 63.9172C69.0277 62.4577 68.5622 60.9652 67.864 59.5721ZM115.844 56.8191C117.672 56.8191 119.501 56.8191 121.297 56.8191C121.297 57.0513 121.33 57.2835 121.33 57.5157C120.798 57.5488 120.299 57.6152 119.767 57.6483C119.734 60.9652 119.701 64.282 119.767 67.5988C120.266 67.632 120.798 67.6983 121.297 67.7647C121.297 67.9969 121.297 68.229 121.297 68.4612C119.468 68.4612 117.639 68.4612 115.81 68.4612C115.81 68.229 115.81 68.03 115.81 67.7979C116.342 67.7315 116.874 67.6652 117.406 67.5988C117.473 64.9122 117.406 62.2587 117.44 59.6053C117.44 58.9751 117.473 58.3117 117.307 57.7147C116.808 57.6152 116.309 57.582 115.81 57.5488C115.877 57.2835 115.844 57.0513 115.844 56.8191ZM103.574 56.8191C104.672 56.8191 105.736 56.8191 106.833 56.8191C108.795 59.4394 110.69 62.1592 112.685 64.7795C112.685 63.1211 112.685 61.4959 112.685 59.8374C112.652 59.2404 112.652 58.5771 112.253 58.0795C111.92 57.7478 111.455 57.6152 111.022 57.4162C111.056 57.2172 111.056 56.985 111.089 56.786C112.352 56.8191 113.616 56.786 114.913 56.786C114.913 56.985 114.946 57.2172 114.979 57.4162C114.314 57.6152 113.516 58.0464 113.483 58.8092C113.383 62.0266 113.483 65.2107 113.45 68.428C113.184 68.428 112.918 68.428 112.652 68.3949C110.424 65.3766 108.263 62.2587 106.035 59.2404C106.035 61.131 106.035 63.0216 106.035 64.9122C106.035 65.6087 106.002 66.3716 106.367 67.0018C106.7 67.4993 107.298 67.5988 107.83 67.7979C107.83 67.9969 107.83 68.1959 107.83 68.428C106.401 68.428 104.971 68.428 103.541 68.428C103.541 68.229 103.508 68.03 103.508 67.831C104.339 67.6983 105.237 67.1345 105.27 66.2058C105.337 63.5855 105.337 60.932 105.27 58.3117C105.071 57.582 104.173 57.6152 103.574 57.4493C103.541 57.2503 103.574 57.0181 103.574 56.8191ZM84.6885 56.8191C86.484 56.8191 88.3127 56.8191 90.1082 56.8191C90.1082 57.0513 90.1415 57.2835 90.1415 57.5157C89.6427 57.5488 89.144 57.582 88.6452 57.6815C88.479 58.378 88.479 59.1409 88.5122 59.8374C88.5787 62.4246 88.4125 65.0117 88.612 67.5988C89.1107 67.632 89.6095 67.6983 90.1415 67.7315C90.1415 67.9637 90.1415 68.1959 90.1747 68.428C88.346 68.428 86.5172 68.428 84.6885 68.428C84.6885 68.1959 84.6552 67.9637 84.6552 67.7647C85.1872 67.6983 85.7192 67.632 86.2845 67.5657C86.351 64.9454 86.2845 62.3251 86.3177 59.6716C86.3177 59.0082 86.351 58.3117 86.1847 57.6483C85.686 57.5488 85.1872 57.5157 84.6885 57.4493C84.6552 57.2835 84.6885 57.0513 84.6885 56.8191ZM75.5115 56.8191C77.6395 56.8191 79.8007 56.8191 81.9287 56.8191C82.4275 56.8191 82.9595 56.786 83.4582 56.9518C83.425 57.4162 83.2255 57.8473 82.9927 58.2454C81.1307 61.3964 79.2355 64.5473 77.4067 67.6983C78.5372 67.6652 79.701 67.831 80.8315 67.5657C81.3635 67.433 81.7957 67.035 82.0617 66.5706C82.494 65.8409 82.6602 64.9785 82.9262 64.1825C83.1257 64.1162 83.292 64.0167 83.4915 63.9503C83.4582 65.4429 83.3917 66.9355 83.292 68.428C80.4325 68.428 77.6062 68.428 74.7467 68.428C74.8465 67.9305 74.9795 67.433 75.2455 67.0018C77.1075 63.8508 78.9695 60.733 80.7982 57.5488C79.701 57.5488 78.5705 57.383 77.5397 57.8142C76.7417 58.1459 76.243 58.9419 76.1432 59.7711C76.0767 60.3018 75.844 60.8988 75.2787 60.9983C75.3452 59.6053 75.4782 58.2122 75.5115 56.8191ZM55.9937 62.8226C56.0602 64.4147 55.9272 66.0399 56.0602 67.632C57.0577 67.6983 58.1882 67.8973 59.1192 67.3667C59.8175 66.9686 60.0502 66.1063 60.0835 65.3766C60.1167 64.481 59.751 63.4528 58.8532 63.0548C57.9555 62.6568 56.958 62.8558 55.9937 62.8226ZM95.9935 57.4162C94.8297 57.8473 94.331 59.1409 94.1315 60.2686C93.8655 61.7612 93.932 63.287 94.0982 64.7795C94.198 65.6751 94.4972 66.6038 95.1622 67.234C96.06 68.1295 97.6892 68.0964 98.5537 67.1345C99.1855 66.438 99.4515 65.4761 99.5512 64.5805C99.6842 63.3533 99.7175 62.1261 99.6177 60.932C99.5512 60.0365 99.3517 59.1409 98.8862 58.378C98.321 57.4493 97.0242 57.0181 95.9935 57.4162Z" fill="#572109"/>
</g>
<defs>
<clipPath id="clip0_437_3141">
<rect width="133" height="92" fill="white"/>
</clipPath>
</defs>
</svg>
