<svg width="161" height="92" viewBox="0 0 161 92" fill="none" xmlns="http://www.w3.org/2000/svg">
<path d="M1 58.5762V33.4297H11.2381C13.3223 33.4297 14.9896 33.6837 16.2503 34.1917C17.511 34.6997 18.4972 35.4821 19.2089 36.5387C19.9206 37.5954 20.2764 38.7028 20.2764 39.8611C20.2764 40.9381 19.9613 41.944 19.3309 42.899C18.7006 43.8439 17.7449 44.6161 16.4638 45.1952C18.1109 45.6423 19.3817 46.4043 20.2663 47.4711C21.1508 48.5481 21.5981 49.8181 21.5981 51.2812C21.5981 52.4598 21.3236 53.5571 20.7848 54.5629C20.2459 55.579 19.5749 56.3511 18.7819 56.8998C17.9889 57.4484 16.9925 57.865 15.7928 58.1393C14.5931 58.4238 13.1291 58.5559 11.3906 58.5559H1V58.5762ZM4.60925 43.9963H10.506C12.1124 43.9963 13.2511 43.8947 13.9526 43.7017C14.8676 43.4477 15.559 43.0311 16.0267 42.452C16.4943 41.8728 16.7282 41.1413 16.7282 40.2574C16.7282 39.4242 16.5147 38.6825 16.0775 38.0526C15.6403 37.4227 15.0201 36.9858 14.217 36.7521C13.4138 36.5184 12.0311 36.3965 10.0689 36.3965H4.60925V43.9963ZM4.60925 55.6094H11.4007C12.5699 55.6094 13.3833 55.5688 13.8611 55.4875C14.6948 55.3453 15.3862 55.1218 15.9453 54.8068C16.5045 54.4918 16.962 54.0245 17.3179 53.4047C17.6737 52.7951 17.8567 52.0838 17.8567 51.2914C17.8567 50.3566 17.5924 49.5438 17.0739 48.8427C16.5553 48.1518 15.8335 47.6642 14.9083 47.3898C13.9831 47.1155 12.6513 46.9733 10.9127 46.9733H4.60925V55.6196V55.6094Z" fill="black"/>
<path d="M26.6504 58.5762V33.4297H46.3742V36.3965H30.2596V44.0979H45.3575V47.0444H30.2596V55.5993H47.0147V58.5661H26.6504V58.5762Z" fill="black"/>
<path d="M51.8438 58.5762V33.4297H55.453V55.6094H68.8936V58.5762H51.8438Z" fill="black"/>
<path d="M91.0988 33.4297H94.708V47.9588C94.708 50.4887 94.3928 52.4903 93.7726 53.9838C93.1525 55.4672 92.0341 56.6763 90.4176 57.611C88.801 58.5457 86.6762 59.0131 84.0429 59.0131C81.4097 59.0131 79.3967 58.6067 77.77 57.7939C76.1433 56.9811 74.9842 55.8126 74.2929 54.2683C73.6015 52.7239 73.2559 50.6309 73.2559 47.969V33.4297H76.8651V47.9385C76.8651 50.1229 77.0888 51.7282 77.526 52.7646C77.9631 53.8009 78.7256 54.5934 79.7932 55.1522C80.8709 55.711 82.1824 55.9955 83.7278 55.9955C86.3813 55.9955 88.2724 55.4367 89.4009 54.3293C90.5294 53.2218 91.0988 51.0881 91.0988 47.9283V33.4297Z" fill="black"/>
<path d="M120.187 49.7558L123.796 50.5991C123.044 53.3322 121.681 55.415 119.709 56.8476C117.747 58.2802 115.337 59.0016 112.501 59.0016C109.664 59.0016 107.173 58.4529 105.323 57.3454C103.483 56.238 102.079 54.6428 101.114 52.5498C100.148 50.4568 99.6699 48.2114 99.6699 45.8136C99.6699 43.1923 100.209 40.9062 101.297 38.9656C102.384 37.0148 103.93 35.5315 105.933 34.5256C107.936 33.5096 110.142 33.0117 112.551 33.0117C115.286 33.0117 117.574 33.6518 119.434 34.932C121.295 36.2122 122.596 38.0105 123.318 40.3372L119.76 41.1094C119.129 39.2806 118.204 37.9496 117.004 37.1164C115.805 36.2833 114.29 35.8667 112.46 35.8667C110.365 35.8667 108.607 36.3341 107.204 37.2587C105.79 38.1833 104.804 39.4228 104.235 40.9875C103.666 42.5522 103.381 44.1575 103.381 45.8136C103.381 47.9472 103.716 49.8167 104.398 51.4119C105.069 53.007 106.126 54.1958 107.549 54.9883C108.973 55.7808 110.518 56.177 112.185 56.177C114.209 56.177 115.917 55.6385 117.32 54.5615C118.723 53.4846 119.668 51.8894 120.166 49.7761L120.187 49.7558Z" fill="black"/>
<path d="M147.708 49.7559L151.317 50.5992C150.565 53.3323 149.203 55.4151 147.23 56.8477C145.268 58.2803 142.859 59.0017 140.022 59.0017C137.185 59.0017 134.695 58.453 132.844 57.3456C131.004 56.2381 129.601 54.6429 128.635 52.5499C127.669 50.4569 127.191 48.2115 127.191 45.8137C127.191 43.1924 127.73 40.9063 128.818 38.9657C129.906 37.015 131.451 35.5316 133.454 34.5257C135.457 33.5097 137.663 33.0118 140.073 33.0118C142.808 33.0118 145.095 33.6519 146.956 34.9321C148.816 36.2123 150.118 38.0107 150.84 40.3374L147.281 41.1095C146.651 39.2807 145.726 37.9497 144.526 37.1166C143.326 36.2834 141.811 35.8669 139.981 35.8669C137.887 35.8669 136.128 36.3342 134.725 37.2588C133.312 38.1834 132.326 39.4229 131.756 40.9876C131.187 42.5523 130.902 44.1576 130.902 45.8137C130.902 47.9474 131.238 49.8168 131.919 51.412C132.59 53.0072 133.647 54.1959 135.071 54.9884C136.494 55.7809 138.039 56.1771 139.707 56.1771C141.73 56.1771 143.438 55.6386 144.841 54.5617C146.244 53.4847 147.19 51.8895 147.688 49.7762L147.708 49.7559Z" fill="black"/>
<path d="M156.391 58.5762V33.4297H160V58.5762H156.391Z" fill="black"/>
</svg>
