<svg width="224" height="92" viewBox="0 0 224 92" fill="none" xmlns="http://www.w3.org/2000/svg">
<g clip-path="url(#clip0_410_3485)">
<mask id="mask0_410_3485" style="mask-type:luminance" maskUnits="userSpaceOnUse" x="-5" y="-70" width="235" height="233">
<path d="M-5 -69.1858H229.005V163H-5V-69.1858Z" fill="white"/>
</mask>
<g mask="url(#mask0_410_3485)">
<path fill-rule="evenodd" clip-rule="evenodd" d="M31.0881 49.0566C30.2098 47.9712 28.9207 47.1581 27.2209 46.6092C25.7665 46.1367 24.0185 45.8402 21.9801 45.7201C23.7283 45.6119 25.2391 45.3396 26.5158 44.9151C28.0266 44.4143 29.1624 43.7252 29.9279 42.8561C30.6933 41.9868 31.0759 40.9575 31.0759 39.772C31.0759 38.3661 30.5604 37.1522 29.5291 36.1348C28.4978 35.1134 27.0313 34.3363 25.1303 33.8037C23.2248 33.2668 20.953 32.9984 18.3022 32.9984H6.06445V60.7969H18.1171C21.3677 60.7969 24.0548 60.5445 26.1695 60.0439C28.2844 59.5391 29.8513 58.7339 30.8744 57.6245C31.8977 56.5149 32.4092 55.057 32.4092 53.2543C32.4092 51.5359 31.9663 50.1382 31.0881 49.0566ZM10.1663 33.6901H16.5603C18.5503 33.6901 20.5243 33.6284 21.6389 33.9474C22.9632 34.3263 23.9055 34.673 24.663 35.2736C25.4162 35.8706 25.9558 36.5674 26.2743 37.3605C26.5966 38.1537 26.7536 38.9909 26.7536 39.8679C26.7536 41.4019 26.375 42.5838 25.6095 43.4168C24.8441 44.2502 23.6481 44.5578 22.315 44.8903C20.9816 45.2186 19.4201 45.3231 17.6091 45.3774H10.1972L10.1663 33.6901ZM26.9429 57.4323C26.125 58.5017 24.8923 59.0952 23.2206 59.5719C21.5486 60.0525 19.4489 60.1486 16.8123 60.1419L10.1631 60.1421L10.2085 46.4199H18.0509C20.1336 46.4199 21.8221 46.5091 23.3771 46.8978C24.9321 47.2823 26.0291 47.7285 26.8743 48.6803C27.7621 49.6796 28.1674 51.1837 28.1674 53.1183C28.1674 54.9249 27.7607 56.3628 26.9429 57.4323Z" fill="#000003"/>
<path fill-rule="evenodd" clip-rule="evenodd" d="M60.667 58.2735C60.1838 57.2721 59.7567 56.3229 59.3821 55.4215C59.1404 54.8527 58.8745 54.3321 58.5883 53.8513C58.2984 53.3748 57.9762 52.926 57.6217 52.5095C57.2714 52.089 56.9087 51.7166 56.534 51.388C56.1633 51.0595 55.7728 50.7511 55.3616 50.4667C54.6931 50.0302 53.9922 49.6536 53.2671 49.3452C52.5421 49.0369 51.7605 48.7964 50.9228 48.6283C50.6567 48.576 50.3829 48.5321 50.101 48.4999C51.0838 48.3958 52.0102 48.2477 52.8763 48.0515C54.4233 47.703 55.7445 47.2063 56.8403 46.5613C57.9399 45.9166 58.7777 45.1234 59.3538 44.1821C59.9299 43.2408 60.2119 42.1431 60.1918 40.8934C60.1918 39.4755 59.8089 38.266 59.0477 37.2644C58.2823 36.2671 57.2632 35.4501 55.9902 34.8171C54.7132 34.1884 53.2706 33.6674 51.6309 33.3788C49.9954 33.0864 48.2802 32.9987 46.5118 32.9987H35.4824V60.7969H39.7121L39.7467 48.944L45.7508 48.934C46.6449 48.944 47.1167 48.9533 47.7209 48.9812C48.3937 49.0132 49.194 49.1391 49.9311 49.3791C50.6645 49.6155 51.1563 49.938 52.0102 50.623C52.3849 50.9313 52.7272 51.2517 53.0457 51.5803C53.3597 51.9088 53.674 52.2773 53.9801 52.6818C54.2862 53.0904 54.6086 53.575 54.9428 54.1438C55.0317 54.295 55.1216 54.4529 55.2121 54.617C55.6181 55.3544 57.8473 60.4486 58.0122 60.7969H61.8675C61.5492 60.1161 61.1502 59.271 60.667 58.2735ZM45.9914 47.8955H39.7121V33.6395H46.0347C47.4125 33.6395 48.6218 33.7152 49.8192 33.9636C51.0515 34.2193 52.0748 34.7932 52.9891 35.474C53.8996 36.1589 54.6126 36.9762 55.1241 37.9215C55.6359 38.8706 55.9015 39.9243 55.9219 41.0857C55.9378 42.6481 55.5028 43.9699 54.6086 45.0593C53.7142 46.1529 52.3701 46.7404 50.8835 47.3011C49.3931 47.8618 47.796 47.8955 45.9914 47.8955Z" fill="#000003"/>
<path fill-rule="evenodd" clip-rule="evenodd" d="M90.4674 33.0235V49.5394C90.4674 51.2053 90.1775 52.7273 89.6014 54.1009C89.0213 55.4745 88.1753 56.664 87.0633 57.6652C85.9516 58.6703 84.6103 59.4432 83.0394 59.9838C81.4683 60.5245 79.6919 60.7969 77.7059 60.7969C77.6413 60.7969 77.573 60.7969 77.5084 60.7929C77.4399 60.7969 77.3715 60.7969 77.303 60.7969C75.4096 60.7969 73.6413 60.5526 72.0058 60.0599C70.3663 59.5675 68.9282 58.8505 67.6877 57.9015C66.4468 56.9563 65.4801 55.7949 64.7912 54.4132C64.0983 53.0314 63.752 51.4577 63.752 49.6914V33.0035H67.8082V49.6715C67.8082 51.2255 68.034 52.6351 68.4852 53.9005C68.9363 55.1701 69.5808 56.2553 70.4227 57.1564C71.2647 58.0578 72.2999 58.7504 73.5367 59.2352C74.7128 59.7035 76.0307 59.8438 77.497 59.86C77.5613 59.864 77.6734 59.857 77.742 59.857C79.2607 59.857 80.6539 59.6801 82.0636 59.2073C83.4777 58.7348 84.8185 58.0183 85.9385 57.1332C87.0582 56.2521 87.825 55.2553 88.4777 54.0219C89.1303 52.7844 89.427 51.4384 89.427 49.9245L89.4174 33.0237L90.4674 33.0235Z" fill="#000003"/>
<path fill-rule="evenodd" clip-rule="evenodd" d="M105.41 60.7969C103.496 60.7969 101.797 60.6583 100.311 60.381C98.8261 60.1043 97.5501 59.6826 96.4844 59.1161C95.4183 58.5498 94.575 57.8416 93.9541 56.992C93.3331 56.1422 92.9222 55.1448 92.7207 53.9996L94.9363 53.7965C95.2215 55.2495 95.8215 56.4627 96.7362 57.4353C97.6507 58.4079 98.8472 59.0566 100.349 59.537C101.852 60.0172 103.661 60.1416 105.726 60.1416C107.924 60.1416 109.58 59.9287 110.965 59.4117C112.35 58.8946 113.495 58.3004 114.158 57.3336C114.821 56.367 115.153 55.2065 115.153 53.852C115.153 52.9532 114.926 52.1774 114.473 51.5245C114.02 50.8719 113.353 50.2963 112.472 49.7978C111.591 49.2988 110.516 48.8495 109.249 48.4492C107.982 48.0492 106.543 47.6521 104.931 47.2579C102.615 46.7162 100.647 46.1065 99.0274 45.4292C97.4074 44.7521 96.1861 43.9581 95.3643 43.0465C94.5415 42.1354 94.1306 41.0643 94.1306 39.8326C94.1135 38.9092 94.3861 38.035 94.9489 37.2098C95.511 36.3851 96.3167 35.6584 97.3655 35.0303C98.4145 34.4025 99.6901 33.9067 101.193 33.5434C102.694 33.1802 104.403 32.9987 106.316 32.9987C108.414 32.9987 110.281 33.2267 111.918 33.682C113.554 34.1378 114.884 34.7565 115.908 35.5381C116.932 36.3203 117.578 37.2038 117.847 38.1889L115.682 38.3366C115.481 37.5978 115.082 36.9298 114.486 36.3324C113.89 35.7354 113.151 35.2214 112.27 34.7902C111.389 34.3593 110.415 34.0268 109.35 33.7927C108.283 33.5592 107.197 33.6386 106.09 33.6386C104.378 33.6386 102.925 33.6699 101.734 34.1252C100.542 34.581 99.6271 35.2091 98.9895 36.0092C98.3513 36.8098 98.0331 37.7392 98.0331 38.7982C98.0331 39.5124 98.2634 40.1467 98.725 40.7007C99.1867 41.255 99.8078 41.7507 100.588 42.1877C101.369 42.6249 102.271 43.0128 103.294 43.3514C104.318 43.6901 105.393 44.001 106.517 44.2841C108.532 44.7275 110.323 45.1924 111.893 45.6786C113.462 46.1652 114.784 46.7222 115.858 47.3503C116.932 47.9781 117.742 48.7262 118.287 49.5944C118.833 50.4625 119.106 51.4999 119.106 52.7068C119.106 54.48 118.568 55.9669 117.494 57.1673C116.42 58.368 114.863 59.273 112.824 59.8825C110.785 60.492 108.313 60.7969 105.41 60.7969Z" fill="#000003"/>
<path fill-rule="evenodd" clip-rule="evenodd" d="M147.023 33.0304L147.046 56.189L122.037 33.0104H121.723V60.8086H122.773L122.772 37.9362L147.725 60.7886H148.112L148.072 33.0304H147.023Z" fill="#000003"/>
<path fill-rule="evenodd" clip-rule="evenodd" d="M153.67 32.9987H157.856V60.7969H153.67V32.9987Z" fill="#000003"/>
<path fill-rule="evenodd" clip-rule="evenodd" d="M189.323 60.7773H184.852L171.607 47.598L167.007 52.2378V60.7773H162.979V33.0188L167.007 33.0388V50.6893L184.992 33.0242L186.475 33.0235L173.819 45.4303L189.323 60.7773Z" fill="#000003"/>
<path fill-rule="evenodd" clip-rule="evenodd" d="M217.942 60.8008H214.051L210.527 53.1728L210.382 52.8561L203.625 38.2008L196.671 52.8438L196.516 53.1728L192.748 60.8008H191.598L204.967 33.0026L217.942 60.8008Z" fill="#000003"/>
</g>
</g>
<defs>
<clipPath id="clip0_410_3485">
<rect width="224" height="92" fill="white"/>
</clipPath>
</defs>
</svg>
