<svg width="154" height="92" viewBox="0 0 154 92" fill="none" xmlns="http://www.w3.org/2000/svg">
<path d="M11.8586 58.038C9.12527 58.038 6.78912 57.0692 4.87347 55.1317C2.95782 53.1825 2 50.8598 2 48.152C2 45.4441 2.95782 43.1331 4.87347 41.2189C6.78912 39.3047 9.11359 38.3477 11.8586 38.3477C14.2064 38.3477 16.2856 39.0713 18.1195 40.5303C18.3297 40.6587 18.4349 40.9155 18.4349 41.3123V43.4599C18.4349 43.8217 18.3531 44.0085 18.2012 44.0085C18.0728 44.0085 17.8625 43.8568 17.5705 43.5416C16.8696 42.6779 16.0286 41.9893 15.0474 41.4757C14.0662 40.9505 13.0033 40.6937 11.8586 40.6937C9.82612 40.6937 8.08569 41.429 6.66063 42.8997C5.22389 44.3703 4.51137 46.1211 4.51137 48.152C4.51137 50.1829 5.22389 51.9453 6.66063 53.451C8.09737 54.945 9.82612 55.7036 11.8586 55.7036C13.0851 55.7036 14.2064 55.4002 15.246 54.8049C16.2739 54.2097 17.1266 53.4276 17.8041 52.4589C17.9559 52.2488 18.1078 52.1437 18.2363 52.1437C18.2596 52.1437 18.3064 52.1554 18.3531 52.1788C18.3998 52.2021 18.4349 52.3305 18.4349 52.5639V54.9917C18.4349 55.3768 18.318 55.657 18.0844 55.8087C16.2856 57.291 14.2181 58.038 11.8703 58.038H11.8586Z" fill="#54565B"/>
<path d="M29.718 58.038C27.008 58.038 24.6835 57.0692 22.7562 55.1434C20.8289 53.2175 19.8594 50.8948 19.8594 48.187C19.8594 45.4791 20.8289 43.1564 22.7562 41.2305C24.6835 39.3047 27.008 38.3359 29.718 38.3359C32.4279 38.3359 34.7874 39.3047 36.7147 41.2305C38.6421 43.1564 39.6116 45.4791 39.6116 48.187C39.6116 50.8948 38.6421 53.2175 36.7147 55.1434C34.7874 57.0692 32.4513 58.038 29.718 58.038ZM29.718 55.6919C31.7504 55.6919 33.4908 54.9449 34.9159 53.4626C36.3526 51.9803 37.0652 50.2178 37.0652 48.187C37.0652 46.1561 36.3526 44.3936 34.9159 42.9113C33.4792 41.429 31.7504 40.682 29.718 40.682C27.6855 40.682 25.9801 41.429 24.5317 42.9113C23.0833 44.3936 22.3591 46.1561 22.3591 48.187C22.3591 50.2178 23.0833 51.9803 24.5317 53.4626C25.9801 54.9449 27.7089 55.6919 29.718 55.6919Z" fill="#54565B"/>
<path d="M43.6307 57.5259C43.2686 57.5259 42.9649 57.4092 42.7313 57.1758C42.4977 56.9423 42.3809 56.6505 42.3809 56.312V30.2139C42.3809 29.8754 42.4977 29.5836 42.7313 29.3502C42.9649 29.1167 43.2686 29 43.6307 29C43.9928 29 44.2965 29.1167 44.5301 29.3502C44.7637 29.5836 44.8805 29.8754 44.8805 30.2139V56.3237C44.8805 56.6622 44.7637 56.954 44.5301 57.1874C44.2965 57.4209 43.9928 57.5376 43.6307 57.5376V57.5259Z" fill="#54565B"/>
<path d="M57.6125 58.038C54.9025 58.038 52.5781 57.0692 50.6507 55.1434C48.7234 53.2175 47.7539 50.8948 47.7539 48.187C47.7539 45.4791 48.7234 43.1564 50.6507 41.2305C52.5781 39.3047 54.9025 38.3359 57.6125 38.3359C60.3224 38.3359 62.6819 39.3047 64.6093 41.2305C66.5366 43.1564 67.5061 45.4791 67.5061 48.187C67.5061 50.8948 66.5366 53.2175 64.6093 55.1434C62.6819 57.0692 60.3458 58.038 57.6125 58.038ZM57.6125 55.6919C59.6449 55.6919 61.3854 54.9449 62.8104 53.4626C64.2472 51.9803 64.9597 50.2178 64.9597 48.187C64.9597 46.1561 64.2472 44.3936 62.8104 42.9113C61.3737 41.429 59.6449 40.682 57.6125 40.682C55.58 40.682 53.8746 41.429 52.4262 42.9113C50.9778 44.3936 50.2536 46.1561 50.2536 48.187C50.2536 50.2178 50.9778 51.9803 52.4262 53.4626C53.8746 54.9449 55.6034 55.6919 57.6125 55.6919Z" fill="#54565B"/>
<path d="M81.9307 41.2434C82.2694 41.045 82.4914 40.0179 82.3746 39.621C82.2461 39.1541 81.9307 38.909 81.1831 38.734C80.6925 38.6639 80.1903 38.6289 79.6763 38.6289C77.0832 38.6289 74.8638 39.551 73.0183 41.3951C72.6211 41.792 72.2707 42.2122 71.9553 42.644C72.3992 43.391 72.8781 44.6866 73.3804 45.4102C73.5673 44.5582 73.649 43.9046 74.42 43.0759C75.7749 41.6286 77.749 40.8699 79.6763 40.8699C80.4823 40.8699 81.2299 40.9983 81.9307 41.2434Z" fill="#54565B"/>
<path d="M73.3687 40.0303C73.3687 39.6801 73.2402 39.4 72.9949 39.1666C72.7496 38.9331 72.4459 38.8164 72.0721 38.8164C71.6983 38.8164 71.4063 38.9331 71.1727 39.1666C70.9391 39.4 70.8223 39.6918 70.8223 40.0303V56.3708C70.8223 56.7093 70.9391 56.9894 71.1727 57.2112C71.4063 57.433 71.71 57.538 72.0721 57.538C72.4342 57.538 72.7379 57.433 72.9715 57.2112C73.2051 56.9894 73.322 56.7093 73.322 56.3708L73.357 48.2005C73.357 48.0255 73.357 40.217 73.3687 40.0419H73.357L73.3687 40.0303Z" fill="#54565B"/>
<path d="M86.0312 62.9985C85.6691 62.9985 85.3771 62.8818 85.1552 62.6717C84.9333 62.4616 84.8281 62.1698 84.8281 61.8313V40.0167C84.8281 39.6782 84.9333 39.3864 85.1552 39.153C85.3771 38.9195 85.6691 38.8028 86.0312 38.8028C86.3933 38.8028 86.697 38.9195 86.9307 39.153C87.1643 39.3864 87.2811 39.6782 87.2811 40.0167V41.1488C87.2811 41.3823 87.3628 41.499 87.5147 41.499C87.6198 41.499 87.7133 41.4523 87.7834 41.3473C88.566 40.3785 89.5705 39.6432 90.8204 39.1179C92.0585 38.5927 93.3551 38.3359 94.7101 38.3359C97.4434 38.3359 99.7795 39.3047 101.707 41.2305C103.634 43.1564 104.604 45.4908 104.604 48.222C104.604 50.9532 103.622 53.2759 101.672 55.1784C99.7211 57.0809 97.3733 58.0263 94.6283 58.0263C91.8833 58.0263 89.5355 56.9875 87.6315 54.8982C87.6081 54.8516 87.5614 54.8165 87.5147 54.8165H87.4797C87.3512 54.8165 87.2811 54.9216 87.2811 55.1317V61.8196C87.2811 62.1581 87.1643 62.4382 86.9307 62.66C86.697 62.8818 86.3933 62.9868 86.0312 62.9868V62.9985ZM94.64 55.6919C96.6958 55.6919 98.4596 54.9566 99.9197 53.486C101.38 52.0153 102.116 50.2645 102.116 48.2336C102.116 46.2027 101.391 44.4403 99.943 42.9346C98.4946 41.4406 96.7542 40.682 94.7217 40.682C92.6893 40.682 90.9489 41.429 89.5004 42.9346C88.052 44.4286 87.3278 46.2027 87.3278 48.2336C87.3278 50.2645 88.0403 52.0153 89.4537 53.486C90.8788 54.9566 92.6075 55.6919 94.64 55.6919Z" fill="#54565B"/>
<path d="M108.248 57.5259C107.886 57.5259 107.582 57.4092 107.348 57.1758C107.115 56.9423 106.998 56.6505 106.998 56.312V30.2139C106.998 29.8754 107.115 29.5836 107.348 29.3502C107.582 29.1167 107.886 29 108.248 29C108.61 29 108.914 29.1167 109.147 29.3502C109.381 29.5836 109.498 29.8754 109.498 30.2139V56.3237C109.498 56.6622 109.381 56.954 109.147 57.1874C108.914 57.4209 108.61 57.5376 108.248 57.5376V57.5259Z" fill="#54565B"/>
<path d="M122.686 58.038C119.953 58.038 117.605 57.0926 115.643 55.1901C113.692 53.2876 112.711 50.9649 112.711 48.2337C112.711 45.5025 113.68 43.1681 115.608 41.2423C117.535 39.3164 119.871 38.3477 122.605 38.3477C123.96 38.3477 125.256 38.6044 126.494 39.1297C127.732 39.6549 128.749 40.3902 129.531 41.359C129.613 41.464 129.695 41.5107 129.8 41.5107C129.847 41.5107 129.905 41.4874 129.952 41.4524C129.998 41.4173 130.034 41.2423 130.034 40.9271V40.0284C130.034 39.6899 130.15 39.3981 130.384 39.1647C130.618 38.9312 130.921 38.8145 131.283 38.8145C131.645 38.8145 131.949 38.9312 132.183 39.1647C132.416 39.3981 132.533 39.6899 132.533 40.0284V56.3689C132.533 56.7074 132.416 56.9992 132.183 57.2327C131.949 57.4661 131.645 57.5828 131.283 57.5828C130.921 57.5828 130.618 57.4661 130.384 57.2327C130.15 56.9992 130.034 56.7074 130.034 56.3689V55.2018C130.034 54.9683 129.963 54.8516 129.835 54.8516C129.753 54.8516 129.706 54.8749 129.683 54.9333C127.802 57.0226 125.466 58.0614 122.686 58.0614V58.038ZM122.686 55.692C124.719 55.692 126.448 54.9566 127.873 53.486C129.298 52.0154 129.998 50.2646 129.998 48.2337C129.998 46.2028 129.274 44.4403 127.826 42.9347C126.377 41.4407 124.637 40.682 122.605 40.682C120.572 40.682 118.797 41.429 117.36 42.9347C115.923 44.4287 115.211 46.2028 115.211 48.2337C115.211 50.2646 115.935 52.0154 117.407 53.486C118.867 54.9566 120.631 55.692 122.686 55.692Z" fill="#54565B"/>
<path d="M139.693 61.5531H138.677C138.292 61.5531 138.093 61.4014 138.093 61.0862C138.093 60.9578 138.117 60.8295 138.175 60.7011L141.142 54.4917C141.329 54.1532 141.411 53.8614 141.411 53.6279C141.411 53.4178 141.317 53.1494 141.142 52.8109L134.963 39.6451L134.928 39.33C134.928 38.9915 135.126 38.8164 135.512 38.8164H136.528C136.785 38.8164 137.042 38.8981 137.287 39.0498C137.533 39.2016 137.719 39.4 137.86 39.6334L142.672 51.0835C142.801 51.3753 142.894 51.5153 142.941 51.5153C142.987 51.5153 143.069 51.387 143.174 51.1302C143.221 51.0485 144.856 47.2201 148.069 39.6451C148.197 39.4117 148.384 39.2132 148.641 39.0615C148.886 38.9098 149.143 38.8281 149.4 38.8281H150.416C150.814 38.8281 151 38.9798 151 39.295L150.965 39.6451L141.025 60.7127C140.92 60.9462 140.745 61.1446 140.499 61.3197C140.254 61.4831 139.986 61.5764 139.693 61.5764V61.5531Z" fill="#54565B"/>
</svg>
