<svg width="161" height="92" viewBox="0 0 161 92" fill="none" xmlns="http://www.w3.org/2000/svg">
<path d="M87.5596 37.0071V51.6088H87.449L72.6397 37.0071H72.0102V55.9731H73.2791V41.4039H73.3896L88.1649 55.9716H88.8284V37.0071H87.5596ZM17.1041 38.3815C18.156 37.8879 19.3582 37.6297 20.5392 37.6297C21.5401 37.6297 22.7324 37.912 23.6978 38.1687V37.539C22.4446 37.2213 21.163 37.0085 19.9608 37.0085C14.4289 37.0085 10.0113 40.6721 10 46.4787V46.4901V46.5014C10.0113 52.3081 14.4303 55.9716 19.9608 55.9716C21.1644 55.9716 22.4446 55.7589 23.6978 55.4398V54.81C22.7324 55.0667 21.5415 55.349 20.5392 55.349C19.3582 55.349 18.156 55.0909 17.1041 54.5973C14.0688 53.2116 12.549 49.8515 12.5462 46.4901C12.549 43.1272 14.0674 39.7672 17.1041 38.3815ZM37.9259 46.5C37.9259 51.9989 41.5325 55.9716 47.8441 55.9716C54.1557 55.9716 57.7836 52.0202 57.7836 46.5C57.7836 40.9798 54.1557 37.0071 47.8441 37.0071C41.5325 37.0071 37.9259 40.9798 37.9259 46.5ZM44.3013 54.5334C41.4035 52.8584 40.5869 49.443 40.5869 46.5C40.5869 41.8181 42.7333 37.5007 47.8427 37.5007C52.9308 37.5007 55.1212 41.8181 55.1212 46.5C55.1212 49.4643 54.306 52.857 51.3855 54.5334C50.3336 55.1561 49.0888 55.4568 47.8427 55.4568C46.5767 55.4568 45.3532 55.1561 44.3013 54.5334ZM105.333 37.0964C104.066 37.9304 103.072 39.6083 103.028 40.8877C102.994 41.8706 103.191 42.7031 103.56 43.4222L103.998 43.4137L103.687 43.6562C106.448 48.3836 116.851 47.9538 115.918 53.62C115.899 53.725 115.999 54.0682 115.965 54.1023C116.326 53.0995 116.567 52.6612 116.418 51.5365C115.979 48.1921 112.486 46.8588 109.223 45.5795C106.925 44.6789 104.746 43.7796 103.806 42.3032C102.699 40.56 103.944 38.2751 105.333 37.0964ZM115.908 54.2441C115.823 54.3349 115.671 54.4001 115.616 54.5065C115.325 55.0696 114.859 55.5816 114.269 56L115.02 55.6936C115.423 55.393 115.786 55.0838 116.101 54.7519C116.221 54.6242 116.166 54.4271 116.272 54.2923C116.373 54.1647 116.638 54.1023 116.724 53.9675C117.151 53.308 117.405 52.5549 117.436 51.6471C117.517 49.3069 116.282 47.8162 114.54 46.7071L114.086 47.168L114.211 46.5043C110.149 44.103 103.764 43.4903 104.335 39.2807C104.454 38.4325 104.925 37.6212 105.71 37C105.55 37.0269 105.322 37.1631 105.227 37.2496C103.927 38.4283 102.783 40.6026 103.846 42.2748C104.778 43.7399 106.957 44.5938 109.248 45.493C112.762 46.8716 116.537 48.3523 116.512 52.3024C116.512 52.3577 116.415 53.3179 116.01 54.0711C115.972 54.1434 115.973 54.1732 115.908 54.2441ZM131.684 46.5C131.684 51.9989 135.291 55.9716 141.602 55.9716C147.914 55.9716 151.542 52.0202 151.542 46.5C151.542 40.9798 147.914 37.0071 141.602 37.0071C135.291 37.0071 131.684 40.9798 131.684 46.5ZM138.061 54.5334C135.163 52.8584 134.347 49.443 134.347 46.5C134.347 41.8181 136.493 37.5007 141.602 37.5007C146.69 37.5007 148.881 41.8181 148.881 46.5C148.881 49.4643 148.066 52.857 145.145 54.5334C144.093 55.1561 142.848 55.4568 141.602 55.4568C140.336 55.4568 139.113 55.1561 138.061 54.5334Z" fill="black"/>
</svg>
