<svg width="213" height="92" viewBox="0 0 213 92" fill="none" xmlns="http://www.w3.org/2000/svg">
<path d="M59.6392 30.8516H53.6219L41.5342 45.1982V30.8516H36.7949V61.4116H41.5342V46.6916L53.8882 61.4116H60.2249L46.9124 45.7316L59.6392 30.8516Z" fill="black"/>
<path d="M14.5905 30.1055C6.33675 30.1055 0 37.0388 0 46.1055C0 55.1188 6.33675 61.9988 14.5905 61.9988C18.5843 61.9988 21.9923 60.6655 24.3353 58.2655V51.8121C22.365 55.3321 18.7973 57.4655 14.91 57.4655C9.74475 57.4655 5.751 53.7855 4.84575 48.4521H24.3353V44.7188V43.7588V34.3721C22.0988 31.5988 18.4778 30.1055 14.5905 30.1055ZM4.84575 43.7588C5.69775 38.3721 9.4785 34.6921 14.3775 34.6921C19.0635 34.6921 22.6845 38.5855 23.1105 43.7588H4.84575Z" fill="black"/>
<path d="M208.473 30.8535V34.9602C206.29 31.9202 202.988 30.1602 198.888 30.1602C190.901 30.1602 184.83 37.0935 184.83 46.2135C184.83 55.2802 190.901 62.1602 198.888 62.1602C202.988 62.1602 206.29 60.4002 208.473 57.3602V61.4668H212.999V30.8535H208.473ZM199.048 57.5202C193.51 57.5202 189.569 52.7735 189.569 46.2135C189.569 39.6002 193.563 34.8002 199.048 34.8002C204.586 34.8002 208.686 39.6002 208.686 46.2135C208.633 52.7202 204.586 57.5202 199.048 57.5202Z" fill="black"/>
<path d="M144.84 30.8516H140.154V61.4649H144.84V30.8516Z" fill="black"/>
<path d="M78.9152 30.1055C70.6082 30.1055 64.2715 37.0388 64.2715 46.1055C64.2715 55.1721 70.6082 62.1055 78.9152 62.1055C87.2222 62.1055 93.559 55.1721 93.559 46.1055C93.559 37.0388 87.169 30.1055 78.9152 30.1055ZM78.9152 57.5188C73.2175 57.5188 68.9575 52.7188 68.9575 46.1588C68.9575 39.5988 73.1642 34.7988 78.9152 34.7988C84.613 34.7988 88.873 39.5988 88.873 46.1588C88.8197 52.6655 84.613 57.5188 78.9152 57.5188Z" fill="black"/>
<path d="M180.197 30.8516H174.233L162.092 45.1982V30.8516H157.406V61.4116H162.092V46.6916L174.5 61.4116H180.836L167.524 45.7316L180.197 30.8516Z" fill="black"/>
<path d="M123.167 53.3049L108.15 30.8516H103.305V61.4116H107.884V38.6916L122.901 61.4116H127.8V30.8516H123.167V53.3049Z" fill="black"/>
</svg>
