<svg width="151" height="92" viewBox="0 0 151 92" fill="none" xmlns="http://www.w3.org/2000/svg">
<path d="M140.037 41C140.037 39.8645 139.613 38.9419 138.835 38.1613C138.128 37.4516 136.926 37.0968 135.299 37.0968H133.814V44.9032H135.299C136.926 44.9032 138.128 44.5484 138.835 43.8387C139.684 43.0581 140.037 42.1355 140.037 41ZM151 62.0774H141.311L133.884 50.1548V62.0774H126.104V30.9935H138.199C141.735 30.9935 144.352 32.0581 146.049 34.2581C147.464 36.0323 148.1 38.1613 148.1 40.5032C148.1 43.271 147.322 45.471 145.696 47.1032C144.705 48.1677 143.291 48.8774 141.523 49.3032L151 62.0774ZM110.545 30.9935L97.814 62.0774H91.7316L79.1424 30.9935H87.6295L94.8436 49.871L102.128 30.9935H110.545ZM65.8459 62.0774H48.7302V30.9935H56.5101V55.4065H65.8459V62.0774ZM31.3316 44.8323C31.3316 48.1677 30.978 50.9355 30.2707 53.0645C29.1391 56.329 27.3002 58.8129 24.7541 60.5161C22.2787 62.2194 19.3789 63 15.9841 63C10.4674 63 6.29462 61.0839 3.32413 57.1806C1.13162 54.271 0 50.7226 0 46.6774C0 42.1355 1.27307 38.3742 3.88993 35.2516C6.86042 31.7742 10.9625 30 16.267 30C19.8033 30 22.7738 30.9226 25.2492 32.8387C27.0173 34.1871 28.5026 36.1032 29.7756 38.729L22.4201 41.8516C21.7836 40.4323 21.0763 39.3677 20.2276 38.6581C19.0253 37.6645 17.6108 37.1677 15.9841 37.1677C12.5892 37.1677 10.2553 38.9419 8.91147 42.5613C8.41639 43.9097 8.13349 45.2581 8.13349 46.6774C8.13349 49.5871 9.05293 52.071 10.8211 54.0581C12.1649 55.5484 13.933 56.2581 16.1963 56.2581C18.1766 56.2581 19.7326 55.6903 20.8642 54.4839C21.6422 53.7032 22.1372 52.5677 22.3494 51.0065H15.8426V44.8323H31.3316Z" fill="#221F1F"/>
<path fill-rule="evenodd" clip-rule="evenodd" d="M51.8412 49.3008C51.6997 49.3008 51.629 49.3717 51.4876 49.4427C51.4168 49.5137 51.3461 49.6556 51.3461 49.7976C51.3461 50.0814 51.4876 50.2943 51.7705 50.2943C52.1948 50.3653 52.3363 50.3653 52.8314 50.3653H53.4679C53.4679 50.3653 53.8215 50.3653 53.963 50.3653C54.2459 50.6492 54.3873 50.933 54.3873 51.2879C54.3873 51.5008 54.2459 51.7847 53.6093 51.7847H52.7606L52.1948 51.7137L51.7705 51.6427C51.629 51.6427 51.4876 51.7137 51.4168 51.7847C51.3461 51.9266 51.2754 51.9976 51.2754 52.1395C51.2754 52.4234 51.4168 52.5653 51.6997 52.6363C52.1948 52.7072 52.4777 52.7072 52.7606 52.7072C53.2557 52.7072 53.6093 52.7782 54.2459 52.6363C54.5995 52.5653 54.8117 52.4234 55.0239 52.1395C55.1653 51.9266 55.3068 51.7137 55.3068 51.2169C55.3068 50.8621 55.1653 50.5072 54.9531 50.2234C55.1653 50.1524 55.3068 50.0814 55.3068 49.7976C55.3068 49.6556 55.236 49.5137 55.1653 49.4427C55.0946 49.3008 54.9531 49.3008 54.8117 49.3008H54.741H54.5995H54.4581H53.6801H52.9728H51.8412Z" fill="white"/>
<path fill-rule="evenodd" clip-rule="evenodd" d="M51.4168 34.4706C51.3461 34.5415 51.2754 34.6835 51.2754 34.8254C51.2754 34.8964 51.2754 34.9673 51.2754 35.0383C51.3461 35.3222 51.4168 35.606 51.7705 35.9609C51.4168 36.0318 51.3461 36.2448 51.3461 36.4577C51.3461 36.6706 51.4168 36.9544 51.8412 36.9544H54.9531C55.236 36.9544 55.4482 36.7415 55.4482 36.4577C55.4482 36.1028 55.236 35.9609 54.9531 35.9609C54.9531 35.9609 53.3972 35.9609 53.185 35.9609C52.8314 35.9609 52.5485 35.606 52.407 35.3222C52.3363 35.1802 52.3363 35.1093 52.3363 34.9673V34.8254C52.3363 34.6835 52.3363 34.5415 52.1948 34.4706C52.1241 34.3286 51.9119 34.2577 51.7705 34.3286C51.629 34.3286 51.4876 34.3286 51.4168 34.4706Z" fill="white"/>
<path fill-rule="evenodd" clip-rule="evenodd" d="M49.5078 48.4506C49.5078 48.8054 49.72 48.9473 50.0029 48.9473H51.0638H51.2052H52.4783H53.6806H54.9537C55.2366 48.9473 55.4488 48.7344 55.4488 48.3796C55.4488 48.0957 55.3073 47.8828 54.9537 47.8828H54.1757H52.4783H51.4174H50.0736C49.72 47.8828 49.5078 48.0957 49.5078 48.4506Z" fill="white"/>
<path fill-rule="evenodd" clip-rule="evenodd" d="M49.5078 46.892C49.5078 47.1758 49.72 47.3887 50.0029 47.3887H51.0638H52.4783H53.6806H54.9537C55.2366 47.3887 55.4488 47.1758 55.4488 46.821C55.4488 46.5371 55.3073 46.3242 54.9537 46.3242H54.1757H52.4783H51.4174H51.2052H50.0029C49.72 46.3952 49.5078 46.6081 49.5078 46.892Z" fill="white"/>
<path fill-rule="evenodd" clip-rule="evenodd" d="M52.1255 53.2083C52.0548 53.3503 51.9841 53.4922 51.9841 53.6342C51.9841 55.0535 51.8426 56.26 52.1255 56.8277C52.267 57.0406 52.4084 57.1116 52.5499 57.0406C52.6913 57.0406 52.8328 56.9696 52.9035 56.8987C53.0449 56.7567 53.1157 56.6148 53.1157 56.4729L53.0449 56.26C52.9035 55.8341 52.9742 54.9116 52.9035 54.3438C53.1864 54.2729 53.54 54.2019 54.0351 54.8406C54.318 55.1245 54.3887 55.6212 54.318 56.047C54.2473 57.1825 53.4693 57.5374 53.0449 57.6083C52.3377 57.8212 51.7719 57.7503 51.0646 57.2535C50.711 56.9696 50.3574 56.4019 50.4281 55.6922C50.4988 54.9825 50.8524 54.7696 51.0646 54.4148C51.1353 54.2729 51.2061 54.2019 51.2061 54.06C51.2061 53.918 51.0646 53.7761 50.9939 53.7051C50.9232 53.6341 50.7817 53.5632 50.6403 53.5632C50.3574 53.5632 50.0037 53.918 49.7915 54.2729C49.5794 54.6277 49.4379 55.1245 49.3672 55.6922C49.3672 56.118 49.5086 56.8987 49.933 57.5374C50.2866 58.0342 50.6403 58.318 51.3475 58.6019C51.9133 58.8148 52.5499 58.8148 53.1864 58.7438C53.9644 58.6019 54.5302 58.1051 54.8838 57.6793C55.1667 57.2535 55.3789 56.6148 55.3789 55.9761C55.3789 55.2664 55.1667 54.5567 54.7424 54.06C54.1766 53.4212 53.6107 53.2793 52.9035 53.2793C52.8328 53.1374 52.6913 53.0664 52.4791 53.0664C52.3377 53.0664 52.267 53.0664 52.1255 53.2083Z" fill="white"/>
<path fill-rule="evenodd" clip-rule="evenodd" d="M54.0352 37.3802C53.9645 37.4512 53.8938 37.5931 53.8938 37.7351C53.8938 37.877 54.0352 38.0189 54.1767 38.1609C54.2474 38.2318 54.3889 38.3738 54.4596 38.6576C54.6718 39.4383 54.3181 39.7931 54.3181 39.7931C54.2474 39.9351 54.106 40.006 53.9645 40.077C53.8938 39.7931 53.6816 39.2963 53.4694 38.7996C53.2573 38.3028 53.1158 37.806 53.0451 37.6641C52.9036 37.3802 52.6915 37.3093 52.4793 37.3093C52.0549 37.3093 51.7013 37.6641 51.5598 38.0189C51.4184 38.3028 51.3477 38.6576 51.3477 39.0834C51.3477 39.6512 51.7013 40.2189 52.0549 40.5738C52.4085 40.8576 53.0451 41.0705 53.6109 41.0705C54.1767 41.0705 54.6718 40.8576 54.9547 40.4318C55.2376 40.006 55.379 39.6512 55.379 39.1544C55.379 38.7286 55.3083 38.3738 55.0961 38.0189C54.884 37.5222 54.601 37.2383 54.3181 37.2383C54.2474 37.2383 54.106 37.3092 54.0352 37.3802ZM52.2671 39.2254C52.2671 39.0834 52.1964 38.9415 52.2671 38.7996C52.2671 38.6576 52.4086 38.4447 52.4793 38.3028C52.55 38.5157 52.6915 38.8705 52.8329 39.1544C52.9744 39.4383 53.0451 39.7222 53.1865 40.006C52.9036 39.9351 52.6914 39.7931 52.55 39.7222C52.4085 39.5802 52.2671 39.3673 52.2671 39.2254Z" fill="white"/>
<path fill-rule="evenodd" clip-rule="evenodd" d="M51.4891 41C51.4184 41.142 51.3477 41.2129 51.3477 41.3549C51.3477 41.5678 51.4891 41.7097 51.7013 41.7807L52.4793 42.0645C52.9744 42.2774 53.4694 42.5613 53.7523 42.7033C53.2573 42.9162 51.7013 43.4839 51.7013 43.4839C51.4891 43.5549 51.4184 43.6968 51.4184 43.9097C51.4184 44.0516 51.4891 44.1936 51.5598 44.2646C51.6306 44.3355 51.772 44.4775 51.9135 44.4065C52.0549 44.4065 52.2671 44.2646 52.2671 44.2646L53.6816 43.6968L55.0961 43.1291C55.4498 42.9871 55.4498 42.7742 55.4498 42.5613C55.4498 42.2774 55.3083 42.1355 55.0254 42.0645L53.328 41.2129C52.4085 40.7871 51.8427 40.5742 51.8427 40.5742C51.7013 40.8581 51.5598 40.9291 51.4891 41Z" fill="white"/>
<path fill-rule="evenodd" clip-rule="evenodd" d="M50.0028 44.905C49.8613 45.0469 49.8613 45.1179 49.8613 45.3308C49.8613 45.4727 49.9321 45.6146 50.0028 45.7566C50.0735 45.8275 50.215 45.8985 50.3564 45.8985C50.4979 45.8985 50.6393 45.8275 50.71 45.6856C50.8515 45.5437 50.8515 45.4017 50.8515 45.2598C50.8515 45.1179 50.7808 44.9759 50.71 44.834C50.6393 44.6921 50.4979 44.6211 50.3564 44.6211C50.215 44.763 50.1442 44.834 50.0028 44.905Z" fill="white"/>
<path fill-rule="evenodd" clip-rule="evenodd" d="M51.8427 44.8327C51.6306 44.8327 51.5598 44.9037 51.4891 44.9746C51.4184 45.0456 51.3477 45.1875 51.3477 45.3295C51.3477 45.4714 51.4184 45.6133 51.4891 45.6843C51.5598 45.7553 51.7013 45.8262 51.8427 45.8262C51.8427 45.8262 52.1964 45.8262 52.8329 45.8262C53.4694 45.8262 54.9547 45.7553 54.9547 45.7553C55.0961 45.7553 55.2376 45.6843 55.3083 45.6133C55.379 45.5424 55.4498 45.4004 55.4498 45.2585C55.4498 45.1166 55.379 44.9746 55.3083 44.9037C55.1669 44.8327 55.0961 44.7617 54.9547 44.7617C54.9547 44.7617 53.4694 44.8327 52.8329 44.8327C52.1964 44.9036 51.8427 44.8327 51.8427 44.8327Z" fill="white"/>
</svg>
