<svg width="245" height="92" viewBox="0 0 245 92" fill="none" xmlns="http://www.w3.org/2000/svg">
<g clip-path="url(#clip0_437_2954)">
<path d="M26.4614 53H22.4189V47.25H16.3552V52.9375H12.3127V38.5H16.3552V43.6875H22.4189V38.5H26.4614V53ZM35.5877 49.0625C36.8127 50.6875 37.4252 52.6875 37.4252 54.75C37.4252 60 33.2602 64.25 28.1152 64.25C26.0327 64.25 24.0727 63.5625 22.5414 62.375L21.0714 63.875L19.2952 65.6875L17.5189 63.875L16.0489 62.375C14.4564 63.625 12.4964 64.25 10.4752 64.25C5.33016 64.25 1.16516 60 1.16516 54.75C1.16516 52.625 1.83891 50.625 3.00266 49.0625L1.53266 47.5625L-0.121094 45.8125L1.65516 44L3.12516 42.5C1.90016 40.875 1.28766 38.875 1.28766 36.8125C1.28766 31.5625 5.45266 27.3125 10.5977 27.3125C12.6802 27.3125 14.6402 28 16.1714 29.1875L17.6414 27.6875L19.2952 26L21.0714 27.8125L22.5414 29.3125C24.1339 28.0625 26.0939 27.4375 28.1152 27.4375C33.2602 27.4375 37.4252 31.6875 37.4252 36.9375C37.4252 39.0625 36.7514 41.0625 35.5877 42.625L37.0577 44.125L38.8339 45.9375L37.0577 47.75L35.5877 49.0625ZM34.9752 54.8125C34.9752 52.875 34.1789 51.125 32.8927 49.8125L32.0964 49L35.2814 45.75L32.0964 42.5L32.8927 41.6875C34.1789 40.4375 34.9752 38.6875 34.9752 36.625C34.9752 32.8125 31.9739 29.75 28.2377 29.75C26.3389 29.75 24.6239 30.5625 23.3989 31.875L22.5414 32.6875L19.3564 29.4375L16.1714 32.6875L15.3752 31.875C14.1502 30.5625 12.4352 29.75 10.4139 29.75C6.67766 29.75 3.67641 32.8125 3.67641 36.625C3.67641 38.5625 4.47266 40.3125 5.75891 41.625L6.55516 42.4375L3.37016 45.6875L6.55516 48.9375L5.75891 49.75C4.47266 51 3.67641 52.75 3.67641 54.75C3.67641 58.5625 6.67766 61.6875 10.4752 61.6875C12.3739 61.6875 14.1502 60.875 15.4364 59.5625L16.2327 58.75L19.4177 62L22.6027 58.75L23.3989 59.5625C24.6239 60.875 26.3389 61.6875 28.2989 61.6875C31.9739 61.6875 34.9752 58.625 34.9752 54.8125ZM46.9189 55.125H52.0027V48H58.4951V55.125H63.6402V36.375H58.5564V43.4375H52.0027V36.375H46.8577V55.125H46.9189ZM70.2551 55.125H85.1389V50.75H75.2776V47.75H84.0976V43.625H75.2776V40.8125H85.0164V36.4375H70.2551V55.125ZM91.2026 55.125H96.2252V44.875L104.065 55.125H108.536V36.375H103.514V46.3125L95.9189 36.375H91.2026V55.125ZM115.213 55.125H122.195C128.81 55.125 132.669 51.125 132.669 45.6875C132.669 40.1875 128.871 36.375 122.318 36.375H115.213V55.125ZM120.235 50.5625V40.9375H122.318C125.38 40.9375 127.401 42.75 127.401 45.75C127.401 48.8125 125.38 50.5625 122.318 50.5625H120.235ZM138.671 55.125H153.555V50.75H143.694V47.75H152.514V43.625H143.694V40.8125H153.433V36.4375H138.671V55.125ZM159.558 55.125H164.641V49.4375H166.908L170.583 55.125H176.463L172.114 48.5625C174.441 47.5625 175.911 45.6875 175.911 42.8125C175.911 40.9375 175.36 39.5 174.258 38.375C173.033 37.125 171.073 36.375 168.255 36.375H159.558V55.125ZM164.641 45.375V40.875H168.01C169.725 40.875 170.766 41.625 170.766 43.0625C170.766 44.5 169.786 45.375 168.01 45.375H164.641ZM180.444 52.375C182.71 54.4375 185.834 55.5 189.08 55.5C193.551 55.5 196.491 53.1875 196.491 49.375C196.491 45.8125 193.858 44.4375 189.631 43.5C187.12 42.9375 186.446 42.5 186.446 41.6875C186.446 40.9375 187.059 40.4375 188.284 40.4375C189.938 40.4375 191.714 41.0625 193.429 42.3125L195.94 38.625C193.919 37 191.469 36.125 188.345 36.125C183.935 36.125 181.24 38.625 181.24 42.125C181.24 46.0625 184.241 47.1875 188.161 48.0625C190.673 48.625 191.285 49.0625 191.285 49.875C191.285 50.75 190.55 51.1875 189.203 51.1875C187.12 51.1875 185.038 50.375 183.261 48.9375L180.444 52.375ZM201.759 45.75C201.759 51.1875 205.985 55.5 211.62 55.5C217.255 55.5 221.543 51.125 221.543 45.75C221.543 40.3125 217.316 36 211.681 36C205.985 36.0625 201.759 40.375 201.759 45.75ZM216.275 45.75C216.275 48.5 214.438 50.8125 211.559 50.8125C208.803 50.8125 206.843 48.4375 206.843 45.75C206.843 43.0625 208.68 40.6875 211.498 40.6875C214.376 40.75 216.275 43.0625 216.275 45.75ZM227.545 55.125H232.568V44.875L240.408 55.125H244.879V36.375H239.856V46.3125L232.261 36.375H227.545V55.125Z" fill="#09274C"/>
</g>
<defs>
<clipPath id="clip0_437_2954">
<rect width="245" height="92" fill="white"/>
</clipPath>
</defs>
</svg>
