<svg width="101" height="92" viewBox="0 0 101 92" fill="none" xmlns="http://www.w3.org/2000/svg">
<path d="M34.3189 29.1943C30.4693 29.5449 26.6952 31.3606 24.091 34.128C21.6378 36.745 20.0778 40.1134 19.7885 43.4443L19.6879 44.4711H17.5114C15.9766 44.4711 15.3224 44.4335 15.3224 44.3333C15.3224 44.2582 15.4357 43.7072 15.5615 43.1062C15.9389 41.4282 16.2534 40.0007 17.2724 35.2048C17.7882 32.7631 18.2411 30.6594 18.2663 30.5342C18.3166 30.3338 18.2034 30.3213 16.7943 30.3463L15.2721 30.3839L15.1086 31.0726C14.9702 31.6987 14.7815 32.5377 13.7373 37.4588C13.5612 38.2477 13.3221 39.3997 13.1837 40.0258C13.0454 40.6394 12.7938 41.8289 12.6176 42.6554C12.4415 43.4818 12.278 44.2332 12.2402 44.3083C12.2025 44.4335 11.2464 44.4711 8.08865 44.4711H4V45.0721V45.6606H7.96285C10.5544 45.6606 11.9257 45.7107 11.9257 45.7859C11.9257 45.861 11.7496 46.7 11.5483 47.6642C11.3344 48.6283 11.0828 49.8054 10.9822 50.2938C10.6173 52.0468 9.38444 57.7944 8.78058 60.5242L8.67994 61H10.2273H11.7747L11.9131 60.2737C11.976 59.8855 12.2402 58.6334 12.4918 57.4939C12.7308 56.3544 13.1586 54.3884 13.4354 53.1112C13.7121 51.834 14.077 50.1185 14.2531 49.292C14.4418 48.4656 14.6682 47.3386 14.7815 46.7876C14.8947 46.2367 15.0331 45.7608 15.0834 45.7233C15.1337 45.6857 16.1779 45.6606 17.4108 45.6606H19.6627L19.7633 46.2867C20.1785 48.9915 20.6565 50.5818 21.5498 52.3599C25.0975 59.3722 33.1867 62.6404 40.9237 60.1736C42.7982 59.5725 45.1381 58.2076 46.7736 56.7676L47.2139 56.3794L46.522 55.6782L45.8301 54.977L45.264 55.578C43.553 57.4062 41.4772 58.6709 39.0366 59.3847C38.1434 59.6476 37.7912 59.6852 35.7657 59.6727C33.6648 59.6727 33.4131 59.6476 32.3815 59.3346C26.8461 57.6316 23.0091 52.7355 22.3675 46.5121C22.0656 43.7072 22.6443 40.6519 23.9401 38.0473C27.0474 31.8239 33.8912 28.8562 39.9927 31.0726C41.8924 31.7613 43.792 32.9885 45.1256 34.3909L45.8049 35.1047L46.4465 34.4911C46.7988 34.1655 47.1133 33.865 47.151 33.8525C47.2391 33.7899 46.3962 33.0636 45.264 32.2121C42.9491 30.4841 40.1185 29.4448 37.0237 29.1943C36.2689 29.1192 35.5896 29.0816 35.5141 29.0942C35.4512 29.0942 34.9102 29.1442 34.3189 29.1943Z" fill="black"/>
<path d="M50.4219 45.6606V61H51.9315H53.4412L53.4663 53.3366L53.5041 45.6606H62.3733C67.2545 45.6606 71.3684 45.6732 71.5319 45.6982L71.8087 45.7483V53.3742V61H73.3812H74.9538V45.6606V30.3213H73.3812H71.8087V37.3962V44.4711H62.6249H53.4412V37.3962V30.3213H51.9315H50.4219V45.6606Z" fill="black"/>
<path d="M80.4902 45.6606V61H88.8688H97.2348L97.1971 60.3989L97.1594 59.8104L90.3282 59.7729L83.5095 59.7478L83.5347 52.7105L83.5725 45.6606H88.5417H93.511L93.5488 45.0596L93.5865 44.4711H88.5417H83.5095L83.5347 37.9847L83.5725 31.5109L90.4036 31.4733L97.2223 31.4483V30.8848V30.3213H88.8563H80.4902V45.6606Z" fill="black"/>
</svg>
