<svg width="152" height="92" viewBox="0 0 152 92" fill="none" xmlns="http://www.w3.org/2000/svg">
<path d="M46.7269 39.8906H28.0391V67.4975H46.7681C63.258 67.4975 66.6333 60.002 66.6333 54.0664V52.9535H66.6315C66.6315 46.7565 63.0568 39.8906 46.7273 39.8906H46.7269ZM57.3785 53.7313C57.3785 56.5523 56.0449 60.854 46.0476 60.854H36.8733V46.4211H46.0476C56.2015 46.4211 57.3785 50.6903 57.3785 53.509V53.7313Z" fill="#030402"/>
<path d="M90.6598 67.9805H92.2896C110.068 67.9805 112.114 59.0367 112.114 54.1772V53.0643C112.114 48.1285 110.031 39.407 92.2896 39.407L90.6598 39.3945C72.795 39.3945 70.7949 48.116 70.7949 53.0518V54.1772C70.7949 59.0371 72.8014 67.9805 90.6598 67.9805ZM80.043 53.3211C80.043 50.167 81.9053 46.0872 91.4563 46.0872C101.007 46.0872 102.867 50.1674 102.867 53.3211V53.8478C102.867 57.0288 101.009 61.2692 91.4563 61.2692C81.9038 61.2692 80.043 56.9217 80.043 53.768V53.3215V53.3211Z" fill="#030402"/>
<path d="M126.399 60.632V39.8906H117.564V67.4813H146.001V60.632H126.399Z" fill="#030402"/>
<path d="M7 32.061L9.77203 37.8715L25.3092 30.8082L22.533 25L7 32.061Z" fill="#030402"/>
<path d="M21.4499 39.8906H12.6152V67.4975H21.4499V39.8906Z" fill="#030402"/>
</svg>
