<svg width="153" height="92" viewBox="0 0 153 92" fill="none" xmlns="http://www.w3.org/2000/svg">
<g clip-path="url(#clip0_437_2920)">
<path d="M-19.5977 73.6733H171.597V17.8594H-19.5977V73.6733Z" fill="white"/>
<path d="M35.8967 36.1836H30.2564V36.7417L31.4514 37.2999L23.3734 54.6952L21.9395 55.1603V55.858H28.4879V55.1603L27.2929 54.6952L29.0615 50.8813H38.3822L40.1508 54.7417L38.669 55.2069V55.9045H45.8388V55.2069L44.4527 54.7417L35.8967 36.1836ZM30.3998 48.0441L33.7457 40.7882L37.0917 48.0441H30.3998Z" fill="#1D1D1B"/>
<path d="M66.7265 37.2999L67.9215 36.7417V36.1836H61.851V36.7417L62.9982 37.2999V49.3464L52.3869 36.1836H47.4636V36.7417L48.6586 37.2999V54.7417L47.2246 55.1603V55.858H53.773V55.1603L52.3869 54.6952V42.6952L62.9982 55.858H66.7265V37.2999Z" fill="#1D1D1B"/>
<path d="M20.0756 54.6952L11.7586 44.2766L19.7888 37.2999L21.2705 36.7417V36.1836H12.8102V36.7417L14.0051 37.2999L5.92715 44.3231V37.3464L7.12212 36.7417V36.1836H0.334697V36.7417L1.52967 37.3464V54.6952L0.0957031 55.1603V55.858H7.36111V55.1603L5.92715 54.6952V48.8348L8.74728 46.5092L14.8177 54.6952L13.2404 55.1603V55.858H21.2705V55.1603L20.0756 54.6952Z" fill="#1D1D1B"/>
<path d="M97.7972 52.5557V37.2999L98.9444 36.7417V36.1836H92.1092V36.7417L93.3041 37.2999V54.6952L91.918 55.1603V55.858H108.504V51.0208H107.787L107.309 52.5557H97.7972Z" fill="#1D1D1B"/>
<path d="M151.905 55.8616V55.1639L150.376 54.6988L145.357 47.722C147.795 47.536 150.71 46.0011 150.71 42.1871C150.71 38.3732 147.89 36.1406 142.68 36.1406H131.878V36.6988L133.073 37.2569V54.6523L131.639 55.1174V55.815H138.904V55.1174L137.47 54.6523V47.8616H141.151L145.644 54.6523L144.449 55.1174V55.815H151.905V55.8616ZM139.717 44.5127H137.422V39.536H142.776C145.405 39.536 146.265 40.8848 146.265 42.0011C146.265 43.1174 145.453 44.5592 142.776 44.5592H139.717V44.5127Z" fill="#1D1D1B"/>
<path d="M75.9935 52.8798L86.7004 37.6705V36.5077H71.2615L70.8313 35.9961H70.1143V40.9263H70.8313L71.2615 39.81H79.9608L69.2539 54.9263V56.1821H87.4652V51.3449H86.7482L86.2703 52.8798H75.9935Z" fill="#1D1D1B"/>
<path d="M116.724 52.5556V47.1602H123.464L123.894 48.137H124.611V43.0207H123.894L123.464 44.044H116.724V39.4858H126.857L127.335 41.3928H128.052V35.6719H127.335L126.905 36.1835H111.036V36.7416L112.231 37.2998V54.6951L110.797 55.1602V55.8579H128.865V51.0207H128.148L127.718 52.5556H116.724Z" fill="#1D1D1B"/>
</g>
<defs>
<clipPath id="clip0_437_2920">
<rect width="153" height="92" fill="white"/>
</clipPath>
</defs>
</svg>
