<svg width="182" height="92" viewBox="0 0 182 92" fill="none" xmlns="http://www.w3.org/2000/svg">
<g clip-path="url(#clip0_437_2847)">
<path fill-rule="evenodd" clip-rule="evenodd" d="M102.011 37.5554C102.557 36.962 103.194 36.3685 104.013 36.1402C105.651 35.638 107.608 36.8707 107.744 38.6054C107.835 40.3859 107.244 42.075 106.652 43.7185C104.878 48.0098 102.33 51.9815 99.6905 55.7706C99.3265 56.2728 99.008 56.8206 98.553 57.2315C98.098 57.3685 97.6885 57.1402 97.279 57.0489C97.1425 58.7837 96.915 60.7011 97.734 62.3446C99.099 62.1163 100.055 61.0206 100.965 60.1076C101.283 59.6511 101.875 59.925 102.284 60.0163C102.148 58.0989 102.785 56.1815 103.786 54.538C104.468 53.4424 105.424 52.4837 106.652 52.0728C108.154 51.5707 109.837 51.8902 111.157 52.7576C112.021 53.3511 112.749 54.3098 112.795 55.4054C112.84 55.6793 112.749 56.1359 112.385 56.0446C111.703 55.9533 111.066 55.588 110.611 55.0859C110.292 54.7206 110.383 54.1728 110.292 53.762C109.246 53.6706 108.199 53.9902 107.426 54.675C105.606 56.1359 104.696 58.4641 104.65 60.7467C104.605 61.2946 104.696 61.8424 104.878 62.3446C106.061 62.162 106.971 61.3402 107.653 60.3815C108.518 59.1946 108.927 57.7793 109.291 56.3641C109.337 55.9076 109.928 55.9989 110.247 56.1359C110.838 56.4098 111.521 56.8206 111.703 57.5054C111.612 59.1946 111.521 60.975 112.34 62.4815C112.84 62.6185 113.295 62.162 113.659 61.888C115.525 60.1533 116.662 57.8706 117.663 55.588C116.981 54.675 116.253 53.5793 116.435 52.3924C116.662 51.2054 117.527 50.0185 118.755 49.8815C120.12 49.8359 121.258 51.0685 121.349 52.3924C121.44 53.8533 120.848 55.2228 120.302 56.5467C121.44 57.962 122.486 59.5141 123.169 61.2033C123.715 62.5272 124.124 64.125 123.487 65.4946C123.123 66.4076 122.168 67.0011 121.212 66.8641C119.62 66.7272 118.255 65.8598 117.026 64.9011C116.662 64.5815 116.162 64.1706 116.344 63.6228C116.662 63.3946 117.072 63.4859 117.436 63.6685C118.209 63.988 118.664 64.9011 119.529 64.9467C120.439 65.0837 121.258 64.3076 121.349 63.3946C121.713 61.4315 120.621 59.6054 119.62 58.0533C118.528 60.2902 117.39 62.8924 115.024 64.0337C113.113 64.9011 110.975 63.5772 110.065 61.888C109.291 63.075 108.154 64.125 106.698 64.1706C105.151 64.3076 103.695 63.3489 102.921 62.025C102.057 62.8924 101.101 63.7598 99.8725 63.988C97.9615 64.3533 95.9595 63.2119 95.186 61.4772C94.458 59.8793 94.549 58.0989 94.731 56.4098C95.3225 51.9359 96.5965 47.5989 98.4165 43.4902C99.372 41.2989 100.51 39.2902 102.011 37.5554ZM159.023 52.0272C160.57 51.662 162.435 52.2098 163.163 53.6707C163.527 54.812 162.799 55.9076 162.572 57.0489C162.208 58.738 161.844 60.5185 162.162 62.2533C162.89 61.888 163.482 61.3402 164.255 60.975C164.073 58.9206 165.074 56.9576 166.121 55.2685C167.031 53.8533 168.214 52.4837 169.852 51.9815C171.08 51.5707 172.582 52.2098 173.219 53.3054C173.583 53.8533 173.355 54.538 173.173 55.0859C173.628 54.9946 174.038 55.1315 174.356 55.4511C173.856 57.3228 173.31 59.2859 173.674 61.2033C173.901 62.2533 174.584 63.4859 175.767 63.5772C177.086 63.5772 178.178 62.7098 179.179 61.9337C179.907 61.2489 181.136 61.1576 182 61.6598C181.864 62.2076 181.272 62.4359 180.863 62.7554C179.043 63.9424 176.995 65.0837 174.811 65.038C173.173 65.038 171.717 63.8967 171.171 62.4359C170.352 63.2119 169.351 63.8967 168.214 63.988C167.076 64.0793 165.984 63.5315 165.12 62.8011C163.846 63.5315 162.253 64.0793 160.843 63.3946C159.933 63.0293 159.341 62.1163 159.25 61.1576C158.977 59.2859 159.569 57.4141 160.024 55.6337C160.206 54.9033 160.615 54.1272 160.388 53.3511C158.568 54.4011 157.658 56.4554 156.884 58.3272C156.293 59.6967 155.974 61.2033 155.428 62.6185C154.609 63.1206 153.335 62.938 152.789 62.1619C153.153 59.925 154.245 57.9163 154.746 55.725C154.882 55.2685 154.837 54.812 154.518 54.4467C154.928 53.9446 155.656 54.1272 156.202 54.0815C156.93 53.1685 157.84 52.3011 159.023 52.0272ZM40.8135 43.262C41.405 42.6228 42.1785 42.075 43.0885 41.938C44.0895 41.7554 45.2725 41.938 45.955 42.8054C46.4555 43.3989 46.228 44.2206 45.864 44.8141C45.045 46.138 43.6345 46.8685 42.6335 48.0098C42.133 48.512 41.8145 49.1967 41.314 49.6989C40.586 49.9272 39.5395 49.7446 39.13 49.0598C39.2665 48.4663 39.7215 48.0554 40.04 47.5533C39.039 47.0511 38.0835 46.3663 37.401 45.4076C36.9005 44.7228 36.855 43.5815 37.674 43.0793C38.675 42.6228 39.858 42.7598 40.8135 43.262ZM42.133 45.6359C42.861 44.9967 43.6345 44.312 43.862 43.3533C43.043 43.9011 42.497 44.7685 42.133 45.6359ZM102.148 42.2576C100.146 45.7728 98.917 49.6076 97.8705 53.488C100.328 50.0185 102.557 46.3207 104.195 42.3946C104.741 41.0707 105.151 39.6554 105.287 38.1946C103.922 39.2902 103.012 40.7967 102.148 42.2576ZM30.6215 28.7446C32.2595 27.1011 34.307 25.5489 36.673 25.275C38.675 25.0011 40.677 25.9141 41.9965 27.375C42.315 27.8772 42.042 28.562 41.7235 29.0185C41.405 29.4293 40.9045 29.9315 40.3585 29.7489C39.9035 29.475 39.585 29.0641 39.13 28.7902C38.0835 28.0598 36.764 27.7859 35.5355 28.1054C33.852 28.5163 32.487 29.6576 31.2585 30.8446C27.5275 34.6337 25.207 39.5185 21.7945 43.5815C23.66 45.1793 24.843 47.4163 25.844 49.6076C27.391 52.8946 28.574 56.3641 30.212 59.6054C30.7125 60.5641 31.213 61.5228 31.9865 62.2533C33.1695 62.938 34.671 62.7554 35.8995 62.2533C36.218 62.0706 36.673 62.2533 36.7185 62.6641C36.8095 63.6228 36.309 64.6728 35.399 64.9924C33.7155 65.6315 31.577 65.7228 30.121 64.5359C29.029 63.4859 28.4375 62.1163 27.8005 60.7924C26.572 58.0533 25.48 55.2685 24.2515 52.5293C23.114 50.0185 21.9765 47.325 19.6105 45.7272C19.292 45.9554 18.9735 46.1837 18.6095 46.412C18.9735 49.3337 19.292 52.3467 18.7915 55.2685C18.3365 57.7793 17.3355 60.2446 15.6975 62.2076C14.378 63.8511 12.467 65.1293 10.3285 65.2206C8.41752 65.3576 6.55202 64.5815 5.05052 63.3946C2.59352 61.4315 0.819019 58.6011 0.22752 55.4967C-0.22748 53.2141 1.95899e-05 50.7946 1.13752 48.7402C2.09302 46.9598 3.64002 45.5902 5.36902 44.5859C6.55202 43.9467 8.00802 43.4446 9.32752 43.9467C10.5105 44.4489 11.1475 45.7272 11.5115 46.8685C12.012 48.9228 11.739 51.1141 11.2385 53.1228C11.0565 53.8076 10.92 54.538 10.465 55.0859C10.1465 55.4054 9.69152 55.725 9.23652 55.588C8.78152 55.3141 8.82702 54.7207 8.96352 54.2641C9.41852 52.575 9.64602 50.8402 9.46402 49.1054C9.37302 48.1924 9.10002 47.1424 8.28102 46.6859C7.46202 46.275 6.50652 46.6402 5.73302 46.9141C4.23152 47.5989 2.82102 48.7859 2.41152 50.4293C1.86552 52.575 2.50252 54.7663 3.41252 56.6837C4.55002 58.9663 6.41552 61.0206 8.87252 61.9337C10.374 62.5272 12.1485 62.4815 13.5135 61.5228C15.2425 60.2446 16.289 58.1902 16.653 56.1359C17.199 53.1685 16.7895 50.1554 16.4255 47.2337C15.743 47.2793 15.015 47.3707 14.378 47.188C14.014 47.0511 13.923 46.5946 13.9685 46.275C14.1505 45.088 15.197 44.312 16.016 43.5815C15.6975 40.1576 15.925 36.688 16.7895 33.3554C16.0615 33.538 15.288 33.6293 14.5145 33.4924C11.648 33.1728 9.14552 31.4837 6.27902 31.3011C6.23352 32.2141 5.82402 33.2641 4.86852 33.538C4.41352 33.675 3.95852 33.2185 4.00402 32.762C4.00402 31.438 4.41352 29.9772 5.50552 29.1098C6.37002 28.425 7.59852 28.4707 8.64502 28.6989C11.1475 29.2924 13.4225 30.6163 16.016 30.7533C16.562 30.7533 17.2445 30.7989 17.6085 30.3424C17.8815 29.7033 18.018 28.9728 18.564 28.5163C18.8825 28.1967 19.5195 27.9685 19.838 28.425C20.202 28.9728 19.8835 29.612 19.7015 30.1141C18.291 34.0859 17.836 38.3772 18.2 42.5772C18.7915 42.4859 19.383 42.4859 20.02 42.5772C22.0675 40.5685 23.478 38.1033 25.0705 35.775C26.7085 33.3554 28.5285 30.9359 30.6215 28.7446ZM139.958 53.6707C141.096 52.5293 142.825 51.9359 144.417 52.438C145.1 52.6207 145.6 53.2141 145.737 53.8989C146.328 56.775 143.962 59.4685 144.736 62.3446C145.509 61.888 146.419 61.7967 147.284 62.0706C147.557 62.1619 147.966 62.3902 147.602 62.6641C146.692 63.3033 145.6 63.5772 144.554 63.6685C143.689 63.7141 142.688 63.4402 142.188 62.6185C141.596 61.6598 141.869 60.4728 142.097 59.4685C142.552 57.5967 143.462 55.6337 142.916 53.7163C142.006 54.3554 141.232 55.1315 140.55 55.9989C140.413 56.1815 140.368 56.4098 140.322 56.5924C139.913 58.5554 139.276 60.4272 138.73 62.3446C138.684 62.6185 138.457 62.8924 138.138 62.7554C137.41 62.4815 136.682 61.9337 136.455 61.1576C137.001 58.7837 137.774 56.4554 138.275 54.0815C138.184 53.7163 137.865 53.3967 138.002 52.9859C138.639 52.5293 139.503 53.0772 139.958 53.6707ZM38.038 52.5293C38.1745 52.0728 38.7205 52.0272 39.13 52.0728C39.7215 52.1185 40.495 52.2554 40.8135 52.8946C40.2675 54.9489 39.5395 57.0033 39.403 59.1489C39.312 60.4272 39.494 61.8424 40.2675 62.8924C41.9055 62.3902 43.1795 61.2033 44.408 60.062C45.045 59.6967 45.864 59.9706 46.501 60.2446C46.7285 60.3815 47.229 60.7011 46.865 60.975C45.4545 62.3446 43.862 63.6228 41.951 64.125C40.4495 64.5359 38.675 64.0793 37.674 62.8467C36.855 61.888 36.6275 60.5641 36.6275 59.3315C36.673 57.0033 37.3555 54.7206 38.038 52.5293ZM166.758 60.062C166.485 60.7011 166.394 61.4315 166.439 62.1163C168.077 61.9793 169.306 60.7011 170.125 59.3315C170.398 58.9663 170.489 58.4185 170.989 58.3728C171.171 57.5054 171.353 56.6837 171.581 55.862C171.763 55.2685 172.536 55.2228 173.082 55.1315C172.491 54.7663 171.763 54.5837 171.262 54.0359C168.987 55.3141 167.668 57.688 166.758 60.062ZM149.741 51.7989C150.105 51.5706 150.514 51.8446 150.833 52.0728C151.288 52.3924 151.788 52.8489 151.879 53.4424C151.151 56.2272 150.287 59.0576 150.56 61.9793C150.605 62.7098 150.924 63.3946 150.969 64.125C150.105 64.2163 149.286 63.5772 148.876 62.8924C147.966 60.2902 148.33 57.4141 148.922 54.7663C149.149 53.7619 149.331 52.7576 149.741 51.7989ZM42.588 54.3554C42.5425 53.2141 43.134 51.8902 44.226 51.4337C45.318 51.1141 46.592 51.5706 47.3655 52.3467C47.957 52.8946 48.1845 53.6706 48.3665 54.4011C49.14 53.9446 49.7315 53.3054 50.232 52.575C50.6415 51.8446 51.5515 52.1185 52.1885 52.3467C52.598 52.5293 53.235 52.8489 52.962 53.3967C51.961 55.862 50.9145 58.4641 50.9145 61.2033C50.96 61.6598 51.0055 62.2989 51.3695 62.6185C52.416 62.4359 53.326 61.7967 54.1905 61.1576C54.0085 58.9206 54.782 56.6837 56.056 54.8576C57.3755 52.9859 59.696 51.7076 62.0165 52.0272C62.8355 52.2098 63.7455 52.4837 64.2005 53.2141C63.6545 53.8076 62.79 53.9902 61.971 53.9446C61.516 53.8076 61.152 53.4424 60.6515 53.4424C59.787 53.3967 59.15 54.0815 58.695 54.7206C57.7395 56.1359 57.239 57.825 57.0115 59.5141C56.9205 60.5185 56.8295 61.7054 57.603 62.5272C59.9235 60.8837 61.061 58.1446 62.0165 55.5424C62.1985 55.0402 62.79 54.9033 63.2905 54.812C63.791 54.7663 64.428 54.675 64.792 55.1315C64.61 56.3641 64.155 57.5054 64.0185 58.7837C63.882 59.9706 63.8365 61.3859 64.701 62.3446C65.2925 62.938 66.2025 62.6185 66.8395 62.2533C67.704 61.8424 68.3865 60.975 69.3875 60.9293C69.8425 60.8837 70.3885 60.8837 70.707 61.2489C70.8435 61.7054 70.343 61.888 70.0245 62.1163C68.2955 63.1663 66.339 64.2163 64.246 64.125C62.881 64.0793 61.698 63.075 61.3795 61.7511C60.333 62.8467 59.0135 63.7141 57.4665 63.8511C56.693 63.9424 55.874 63.8054 55.1915 63.3489C54.0995 63.9424 52.8255 64.3076 51.597 64.125C50.0955 63.8967 48.685 62.8011 48.3665 61.2946C47.957 59.5598 48.412 57.825 48.9125 56.1815C47.411 56.1815 46.0005 55.0402 45.6365 53.5793C44.9085 54.9033 45.409 56.4554 46.0915 57.688C46.3645 58.0533 45.8185 58.1902 45.5455 58.1446C44.863 58.0989 44.1805 57.9163 43.68 57.5054C43.043 56.5011 42.6335 55.4511 42.588 54.3554ZM134.407 45.6815C134.589 45.225 135.226 45.1793 135.636 45.1793C136.182 45.225 136.91 45.2707 137.137 45.8185C136.728 47.2793 136.136 48.6946 135.772 50.1554C135.727 50.5207 135.408 50.7489 135.044 50.7946C134.316 50.9315 133.452 50.8859 132.86 50.3837C133.315 48.8315 133.816 47.2337 134.407 45.6815ZM152.744 43.0793C152.971 42.6685 153.517 42.2576 154.018 42.5315C154.7 42.8967 155.337 43.5359 155.474 44.312C154.928 44.6772 154.655 45.3163 154.382 45.8641C153.699 47.3706 153.244 48.9685 152.744 50.5206C152.607 51.0685 151.925 50.7489 151.606 50.5206C151.015 50.1098 150.241 49.425 150.605 48.6489C151.151 46.7315 151.788 44.8141 152.744 43.0793ZM39.5395 44.312C39.221 45.3163 40.313 46.0467 40.9955 46.5946C41.223 46.412 41.496 46.1837 41.7235 46.0011C41.1775 46.0467 40.5405 46.0011 40.0855 45.6359C39.6305 45.362 39.7215 44.7685 39.5395 44.312ZM129.857 39.6554C130.403 39.4728 131.04 39.3359 131.541 39.7011C130.995 41.4359 130.494 43.1706 130.039 44.9511C131.313 44.9511 132.815 44.5859 133.77 45.6359C134.134 45.9098 133.77 46.3206 133.406 46.3206C132.132 46.3663 130.858 46.3663 129.584 46.5946C128.947 49.1511 128.447 51.7533 128.037 54.3554C127.764 56.5011 127.491 58.7837 128.174 60.9293C128.401 61.5685 128.765 62.4359 129.584 62.4815C130.312 62.2533 130.858 61.7511 131.495 61.3402C130.904 58.7837 131.404 56.1359 132.041 53.625C132.087 53.2141 132.405 52.9859 132.769 52.8946C133.497 52.7576 134.362 52.8033 134.908 53.3511C134.18 55.8163 133.588 58.4641 134.089 61.0206C134.225 61.5685 134.362 62.2533 134.862 62.5728C135.499 62.6185 136.318 62.5272 136.773 63.1206C137.046 63.3489 136.682 63.6228 136.455 63.7141C134.953 64.125 133.088 63.9424 132.087 62.6185C130.813 63.3489 129.402 64.0337 127.901 63.9424C126.945 63.8967 126.081 63.2576 125.717 62.3902C124.989 60.7011 124.989 58.8293 125.125 57.0489C125.444 53.7163 126.081 50.3837 126.9 47.1424C123.169 47.9185 119.301 49.0141 115.479 48.0554C114.933 47.9185 114.16 47.6446 114.16 47.0054C114.478 46.5946 115.07 46.7315 115.525 46.7772C118.3 47.325 121.03 46.5033 123.715 45.9554C124.943 45.6815 126.172 45.4533 127.4 45.2706C127.81 43.7185 128.265 42.1663 128.72 40.6141C128.856 40.0663 129.402 39.838 129.857 39.6554ZM118.482 53.488C118.755 53.0315 118.983 52.5293 119.028 51.9815C118.983 51.9815 118.892 51.9359 118.846 51.8902C118.346 52.2554 118.391 52.9402 118.482 53.488ZM79.443 28.7446C82.4005 26.5533 86.2225 25.5033 89.8625 25.9598C92.5015 26.2793 95.0495 27.512 96.7785 29.5663C98.28 31.2554 99.099 33.4924 99.1445 35.775C99.19 38.1946 98.3255 40.5685 96.9605 42.5315C95.004 45.4533 92.2285 47.7359 89.18 49.4707C90.0445 53.488 90.1355 57.9163 88.1335 61.6141C85.7675 65.9054 79.5795 67.138 75.6665 64.4446C73.255 62.8467 71.89 60.062 71.617 57.2315C71.617 56.8206 71.435 56.3641 71.617 55.9076C72.2085 55.3141 73.164 55.1772 73.9375 55.4054C74.347 55.4967 74.3015 55.9533 74.347 56.2728C74.4835 58.738 75.439 61.2946 77.35 62.938C78.715 64.0793 80.626 64.8554 82.4005 64.3076C84.2205 63.7141 85.449 62.0706 86.177 60.3359C87.4055 57.3228 87.269 53.9446 86.723 50.7946C85.7675 51.2054 84.8575 51.7076 83.811 51.9815C82.992 51.7533 82.355 50.9772 82.173 50.1554C82.082 49.8359 82.446 49.6989 82.6735 49.6076C83.8565 49.1511 84.994 48.6033 86.086 48.0554C85.2215 44.4946 84.175 40.9337 84.4025 37.2359C84.4935 35.0902 84.994 32.7163 86.541 31.1185C87.269 30.7533 88.2245 30.662 88.9525 31.0272C88.9525 31.1185 88.998 31.2554 89.0435 31.3011C87.815 32.7163 87.36 34.6337 87.1325 36.4598C86.814 39.8837 87.724 43.262 88.543 46.5946C91 44.9511 93.366 43.0337 95.0495 40.5228C96.369 38.5598 97.2335 36.1859 97.097 33.812C97.006 32.1685 96.2325 30.4793 94.913 29.475C93.639 28.4707 92.001 28.1054 90.4085 28.0141C86.359 27.7859 82.2185 29.475 79.352 32.3511C77.4865 34.3141 76.2125 36.7793 75.53 39.3815C74.711 42.5772 74.802 46.138 76.258 49.1511C76.3945 49.425 76.5765 49.9728 76.076 49.9272C75.3025 49.7446 74.62 49.1967 74.3015 48.4207C72.5725 44.5402 72.527 40.0206 73.9375 36.0489C74.984 33.2185 76.895 30.5706 79.443 28.7446Z" fill="#EB86B6"/>
</g>
<defs>
<clipPath id="clip0_437_2847">
<rect width="182" height="92" fill="white"/>
</clipPath>
</defs>
</svg>
