<svg width="192" height="92" viewBox="0 0 192 92" fill="none" xmlns="http://www.w3.org/2000/svg">
<path d="M12.3481 54.6729H0V37.2539H4.31365V51.2859H12.8267L12.3481 54.6729Z" fill="#231F20"/>
<path d="M47.6914 44.1738L47.2128 47.3718H38.7472V51.2859H49.1747L48.6962 54.6729H34.4336V37.2539H48.902L48.4235 40.6442H38.7472V44.1738H47.6914Z" fill="#231F20"/>
<path d="M73.4149 54.6729H67.9824L74.4197 45.6055L68.5529 37.2539H73.6874L77.1802 42.9807L80.7173 37.2539H85.8519L79.963 45.6055L86.4223 54.6729H80.9677L77.1802 48.6844L73.4149 54.6729Z" fill="#231F20"/>
<path d="M106.55 42.2416H106.484V54.6729H102.17V37.2539H108.217L112.597 49.2344L116.955 37.2539H123.028V54.6729H118.714V42.2416H118.645L114.059 54.6729H111.136L106.55 42.2416Z" fill="#231F20"/>
<path d="M153.875 44.1738L153.396 47.3718H144.931V51.2859H155.336L154.858 54.6729H140.617V37.2539H155.086L154.603 40.6442H144.931V44.1738H153.875Z" fill="#231F20"/>
<path d="M183.203 37.2617H184.892C186.763 37.2617 191.098 37.7158 191.098 42.2329C191.098 45.1924 189.114 46.1701 187.929 46.5744V46.6207C190.44 47.3366 190.532 49.5571 190.532 50.8429C190.623 53.0866 190.574 53.7527 191.238 54.6841H186.848C186.072 53.6334 186.323 52.8712 186.118 50.2464C185.914 48.2579 183.793 48.2579 183.197 48.2579V45.083H183.789C186.207 45.083 186.55 43.7242 186.55 42.8891C186.55 41.1724 185.501 40.6454 183.627 40.6454H183.194L183.203 37.2617ZM175.514 37.2617H183.203V40.6488H179.825V45.0863H183.203V48.2612H179.825V54.6807H175.51L175.514 37.2617Z" fill="#231F20"/>
</svg>
