<svg width="113" height="92" viewBox="0 0 113 92" fill="none" xmlns="http://www.w3.org/2000/svg">
<path d="M98.0614 37.44C90.9932 38.0305 86.0241 42.7538 85.1314 49.7175C84.976 50.9633 85.0268 53.2064 85.2415 54.4409C86.3489 60.7491 90.9707 64.8934 97.6348 65.5629C98.5049 65.6477 100.587 65.6477 101.392 65.5629C105.655 65.1024 109.158 63.1334 110.72 60.3338C110.935 59.9383 111.152 59.5485 111.198 59.4581C111.257 59.3422 111.28 60.0739 111.28 62.1334L111.288 64.9781H112.144H113V58.3535V51.7261H106.454H99.909V52.4718V53.2177H105.599H111.288V53.7827C111.288 56.1274 110.582 58.3507 109.302 60.0259C108.774 60.7265 107.607 61.7802 106.847 62.2605C104.87 63.5063 102.488 64.125 99.683 64.1306C94.6403 64.1363 90.8153 62.1559 88.6796 58.4269C86.2247 54.1471 86.4789 48.014 89.2756 43.9601C90.4819 42.2199 92.273 40.7509 94.2081 39.9317C97.4427 38.5615 101.564 38.5277 104.711 39.8356C106.251 40.4797 107.827 41.6804 108.774 42.9205C109.398 43.7398 110.022 44.8698 110.336 45.7258L110.582 46.3953H111.525C112.054 46.3953 112.477 46.3755 112.477 46.3444C112.477 46.1947 112.082 44.915 111.881 44.4149C109.972 39.7141 104.409 36.9005 98.0614 37.44Z" fill="black"/>
<path d="M0 51.4972V64.9753H0.96615H1.9323V52.5171L1.94077 40.0645L7.8761 52.503L13.8142 64.9443H14.8341H15.8539L21.7073 52.5368L27.5607 40.1351L27.5833 52.5566L27.5974 64.9781H28.5636H29.5297V51.5001V38.022L28.1398 38.0361L26.7414 38.0559L20.8118 50.5283C17.5545 57.3874 14.868 63.0261 14.8538 63.06C14.8454 63.0854 12.1249 57.4665 8.814 50.5678L2.78827 38.0248H1.39837H0V51.4972Z" fill="black"/>
<path d="M37.9256 51.3871C34.5413 58.7349 31.7502 64.8002 31.7219 64.8652C31.6767 64.9697 31.7671 64.9753 32.7418 64.9753H33.8124L35.7532 60.7011L37.6883 56.4325L45.0616 56.4128L52.4264 56.3986L54.353 60.687L56.2797 64.9753H57.8504H59.4126L61.3618 60.7011L63.3026 56.4325H70.6759H78.0491L79.9673 60.687L81.8798 64.9414L82.9364 64.9612C83.5155 64.9669 83.9929 64.9612 83.9929 64.9358C83.9929 64.9104 81.2555 58.8423 77.9163 51.4492L71.8398 38.0079L70.7606 38.0277L69.6758 38.0474L63.7998 50.8249C60.5652 57.8535 57.9012 63.6222 57.8786 63.6419C57.856 63.6617 55.2316 57.8987 52.0393 50.8447L46.2453 38.0164H45.1661H44.087L37.9256 51.3871ZM48.4657 47.2428C50.2596 51.3673 51.7399 54.7856 51.754 54.8223C51.7851 54.8873 50.4234 54.907 45.0898 54.907C41.4004 54.907 38.3861 54.8873 38.3861 54.8562C38.3861 54.7969 45.1774 39.7085 45.2 39.7283C45.2085 39.734 46.6803 43.1183 48.4657 47.2428ZM74.1224 47.353C75.9078 51.4662 77.3655 54.8505 77.3655 54.8675C77.3655 54.8873 74.354 54.907 70.6617 54.907C64.3083 54.907 63.958 54.9014 64.0032 54.7912C64.5174 53.5454 70.7945 39.7453 70.8256 39.7989C70.8567 39.8385 72.337 43.2341 74.1224 47.353Z" fill="black"/>
</svg>
