<svg width="274" height="92" viewBox="0 0 274 92" fill="none" xmlns="http://www.w3.org/2000/svg">
<path d="M21.4125 58.8299V46.7911L15.0383 58.7325L8.69443 46.8205V58.8299H2V34.168H9.65322L15.0402 44.961L20.4481 34.168H28.107V58.8299H21.4125Z" fill="black"/>
<path d="M47.4424 58.8276L46.3832 55.2097H38.1009L37.0417 58.8276H30.0801L37.2994 34.1602H47.1752L54.3945 58.8276H47.4405H47.4424ZM44.6722 49.3685L42.2411 41.067L39.81 49.3685H44.6722Z" fill="black"/>
<path d="M71.9704 58.8297L67.0439 50.2967H63.0382V58.8297H56.3438V34.1677L57.6815 34.1641H70.356C74.9434 34.1641 78.6762 37.782 78.6762 42.2304C78.6762 45.2603 76.8951 48.0127 74.1893 49.3835L79.6445 58.8315H71.9704V58.8297ZM70.3579 43.805C71.2542 43.805 71.9818 43.0976 71.9818 42.2304C71.9818 41.3631 71.2523 40.6557 70.3579 40.6557H63.0382V43.8069H70.3579V43.805Z" fill="black"/>
<path d="M92.8296 59C86.5539 59 81.4492 54.05 81.4492 47.9644V45.0356C81.4492 38.95 86.5539 34 92.8296 34H94.0063C99.0294 34 103.52 37.2614 104.93 41.934L105.305 43.1798L98.8798 45.0025L98.5046 43.7567C97.9248 41.8348 96.0754 40.4916 94.0063 40.4916H92.8296C90.245 40.4916 88.1436 42.5293 88.1436 45.0356V47.9644C88.1436 50.4688 90.245 52.5084 92.8296 52.5084H94.0063C96.0375 52.5084 97.8262 51.2534 98.4591 49.3848L98.876 48.1518L105.235 50.1785L104.816 51.4114C103.28 55.9499 98.9328 59 94.0044 59H92.8296Z" fill="black"/>
<path d="M118.224 59C111.948 59 106.844 54.05 106.844 47.9644V45.0356C106.844 38.95 111.948 34 118.224 34H120.576C126.851 34 131.956 38.95 131.956 45.0356V47.9644C131.956 54.05 126.851 59 120.576 59H118.224ZM118.224 40.4935C115.641 40.4935 113.538 42.5312 113.538 45.0374V47.9663C113.538 50.4707 115.64 52.5102 118.224 52.5102H120.576C123.16 52.5102 125.261 50.4725 125.261 47.9663V45.0374C125.261 42.5312 123.16 40.4935 120.576 40.4935H118.224Z" fill="black"/>
<path d="M143.92 58.8214V34.1484H155.435C161.71 34.1484 166.815 39.0985 166.815 45.184V47.7876C166.815 53.8732 161.71 58.8232 155.435 58.8232H143.92V58.8214ZM155.437 52.3298C158.019 52.3298 160.123 50.2921 160.123 47.7858V45.1822C160.123 42.6778 158.021 40.6382 155.437 40.6382H150.614V52.3298H155.437Z" fill="black"/>
<path d="M169.568 58.8299V34.168H176.263V58.8299H169.568Z" fill="black"/>
<path d="M204.748 58.8297L199.821 50.2967H195.816V58.8297H189.121V34.1677L190.459 34.1641H203.133C207.721 34.1641 211.454 37.782 211.454 42.2304C211.454 45.2603 209.672 48.0127 206.967 49.3835L212.422 58.8315H204.748V58.8297ZM203.135 43.805C204.032 43.805 204.759 43.0976 204.759 42.2304C204.759 41.3631 204.03 40.6557 203.135 40.6557H195.816V43.8069H203.135V43.805Z" fill="black"/>
<path d="M230.753 58.8276L229.694 55.2097H221.411L220.352 58.8276H213.391L220.612 34.1602H230.488L237.707 58.8276H230.753ZM227.983 49.3685L225.552 41.067L223.121 49.3685H227.983Z" fill="black"/>
<path d="M239.656 58.8214V34.1484H251.171C257.447 34.1484 262.551 39.0985 262.551 45.184V47.7876C262.551 53.8732 257.447 58.8232 251.171 58.8232H239.656V58.8214ZM251.173 52.3298C253.756 52.3298 255.859 50.2921 255.859 47.7858V45.1822C255.859 42.6778 253.758 40.6382 251.173 40.6382H246.351V52.3298H251.173Z" fill="black"/>
<path d="M265.305 58.8299V34.168H271.999V58.8299H265.305Z" fill="black"/>
</svg>
