<svg width="187" height="90" viewBox="0 0 187 90" fill="none" xmlns="http://www.w3.org/2000/svg">
<g clip-path="url(#clip0_570_3409)">
<path fill-rule="evenodd" clip-rule="evenodd" d="M41.327 38.1662C41.2335 34.9387 43.8047 36.0145 44.506 37.1371C45.6747 39.1484 51.3315 50.9355 51.3315 50.8887C51.799 49.2984 57.0818 37.5581 57.6895 36.2952C58.2505 35.0791 59.0453 34.2371 60.1205 34.3774C61.4763 34.6113 61.4295 36.4823 61.336 37.5581C61.1958 39.8968 60.401 55.7065 60.027 58.5597C59.653 60.7113 57.1753 60.15 57.2688 57.9049C57.3623 55.5662 58.2973 42.8436 58.344 40.9726C57.3155 43.6387 53.7158 50.842 52.4068 53.321C51.5653 54.6774 50.1628 54.3033 49.3213 52.8065C47.872 50.1871 45.2073 44.2936 44.7865 43.592C45.1138 49.9533 45.628 54.0694 45.7215 58.9339C45.7215 59.3549 45.7682 59.8694 45.441 60.1968C45.0202 60.6645 43.9917 60.6178 43.571 60.15C43.1035 59.7291 43.0568 59.4484 42.9633 58.8403C42.4958 55.0049 41.514 44.0129 41.327 38.1662Z" fill="#1B1918"/>
<path fill-rule="evenodd" clip-rule="evenodd" d="M41.327 38.1662C41.2335 34.9387 43.8047 36.0145 44.506 37.1371C45.6747 39.1484 51.3315 50.9355 51.3315 50.8887C51.799 49.2984 57.0818 37.5581 57.6895 36.2952C58.2505 35.0791 59.0453 34.2371 60.1205 34.3774C61.4763 34.6113 61.4295 36.4823 61.336 37.5581C61.1958 39.8968 60.401 55.7065 60.027 58.5597C59.653 60.7113 57.1753 60.15 57.2688 57.9049C57.3623 55.5662 58.2973 42.8436 58.344 40.9726C57.3155 43.6387 53.7158 50.842 52.4068 53.321C51.5653 54.6774 50.1628 54.3033 49.3213 52.8065C47.872 50.1871 45.2073 44.2936 44.7865 43.592C45.1138 49.9533 45.628 54.0694 45.7215 58.9339C45.7215 59.3549 45.7682 59.8694 45.441 60.1968C45.0202 60.6645 43.9917 60.6178 43.571 60.15C43.1035 59.7291 43.0568 59.4484 42.9633 58.8403C42.4958 55.0049 41.514 44.0129 41.327 38.1662Z" fill="#1B1918"/>
<path fill-rule="evenodd" clip-rule="evenodd" d="M81.719 34.6113C83.1682 34.2371 83.6825 35.2661 84.2435 36.6226C84.6175 37.4645 91.9105 54.2564 92.0975 54.4903C92.2377 53.4613 94.435 35.7806 94.5285 35.4064C95.0895 32.6 97.5205 32.9274 97.5205 34.9855C97.3803 37.2306 94.5285 57.2032 93.9207 58.279C92.752 59.729 91.5832 59.1209 90.5547 57.3903C89.1522 55.379 84.6175 44.1064 83.402 41.2532C83.3552 41.4403 84.15 58.7935 83.402 59.4484C81.8592 60.4774 81.0645 59.6355 81.0177 57.9516C80.9242 46.2113 79.8022 35.2193 81.719 34.6113Z" fill="#1B1918"/>
<path fill-rule="evenodd" clip-rule="evenodd" d="M81.719 34.6113C83.1682 34.2371 83.6825 35.2661 84.2435 36.6226C84.6175 37.4645 91.9105 54.2564 92.0975 54.4903C92.2377 53.4613 94.435 35.7806 94.5285 35.4064C95.0895 32.6 97.5205 32.9274 97.5205 34.9855C97.3803 37.2306 94.5285 57.2032 93.9207 58.279C92.752 59.729 91.5832 59.1209 90.5547 57.3903C89.1522 55.379 84.6175 44.1064 83.402 41.2532C83.3552 41.4403 84.15 58.7935 83.402 59.4484C81.8592 60.4774 81.0645 59.6355 81.0177 57.9516C80.9242 46.2113 79.8022 35.2193 81.719 34.6113Z" fill="#1B1918"/>
<path fill-rule="evenodd" clip-rule="evenodd" d="M71.7145 35.3597C71.8547 35.6871 71.9482 36.1081 71.9482 36.3887C71.7612 44.9484 72.182 56.4548 72.1353 57.671C72.1353 58.8871 71.6678 59.6355 70.7328 59.6355C69.0498 59.4952 68.7225 58.8871 68.6757 57.2032C68.8627 54.35 68.629 38.4936 68.629 35.8274C68.6758 33.9097 71.2937 34.2839 71.7145 35.3597Z" fill="#1B1918"/>
<path fill-rule="evenodd" clip-rule="evenodd" d="M71.7145 35.3597C71.8547 35.6871 71.9482 36.1081 71.9482 36.3887C71.7612 44.9484 72.182 56.4548 72.1353 57.671C72.1353 58.8871 71.6678 59.6355 70.7328 59.6355C69.0498 59.4952 68.7225 58.8871 68.6757 57.2032C68.8627 54.35 68.629 38.4936 68.629 35.8274C68.6758 33.9097 71.2937 34.2839 71.7145 35.3597Z" fill="#1B1918"/>
<path fill-rule="evenodd" clip-rule="evenodd" d="M108.133 35.4065C108.273 35.7339 108.32 36.1549 108.32 36.4355C108.32 39.5226 107.899 56.1742 107.806 57.4371C107.759 58.6532 107.244 59.5887 106.45 59.6823C105 59.6355 104.439 58.9339 104.486 57.2032C104.533 55.4258 105.094 39.4291 105.094 36.7629C105.094 33.9097 107.759 34.3307 108.133 35.4065Z" fill="#1B1918"/>
<path fill-rule="evenodd" clip-rule="evenodd" d="M108.133 35.4065C108.273 35.7339 108.32 36.1549 108.32 36.4355C108.32 39.5226 107.899 56.1742 107.806 57.4371C107.759 58.6532 107.244 59.5887 106.45 59.6823C105 59.6355 104.439 58.9339 104.486 57.2032C104.533 55.4258 105.094 39.4291 105.094 36.7629C105.094 33.9097 107.759 34.3307 108.133 35.4065Z" fill="#1B1918"/>
<path fill-rule="evenodd" clip-rule="evenodd" d="M151.33 33.0678C153.153 32.9742 153.761 35.1258 154.696 37.2774C155.911 39.85 162.176 54.4436 162.924 55.7065C162.924 55.4726 163.859 37.3242 163.952 36.0613C164.092 34.1436 166.711 34.3307 166.757 36.0145C166.757 36.4355 166.757 36.6694 166.757 36.8097C166.757 37.7452 165.402 58.3726 165.355 58.7C165.308 58.9339 165.261 59.3549 164.887 59.5887C163.672 60.3839 162.035 59.3081 161.1 57.671C159.745 55.4726 154.555 43.4516 153.34 40.4581C153.2 40.8791 153.433 57.0161 153.34 59.0274C153.34 59.3549 153.106 59.8226 152.872 59.9629C152.311 60.1968 151.61 60.3839 151.049 59.8694C150.441 59.3549 150.161 58.8871 150.208 58.0452C150.301 56.6887 150.301 40.5049 150.301 37.6049C150.208 36.9032 149.974 33.1145 151.33 33.0678Z" fill="#1B1918"/>
<path fill-rule="evenodd" clip-rule="evenodd" d="M151.33 33.0678C153.153 32.9742 153.761 35.1258 154.696 37.2774C155.911 39.85 162.176 54.4436 162.924 55.7065C162.924 55.4726 163.859 37.3242 163.952 36.0613C164.092 34.1436 166.711 34.3307 166.757 36.0145C166.757 36.4355 166.757 36.6694 166.757 36.8097C166.757 37.7452 165.402 58.3726 165.355 58.7C165.308 58.9339 165.261 59.3549 164.887 59.5887C163.672 60.3839 162.035 59.3081 161.1 57.671C159.745 55.4726 154.555 43.4516 153.34 40.4581C153.2 40.8791 153.433 57.0161 153.34 59.0274C153.34 59.3549 153.106 59.8226 152.872 59.9629C152.311 60.1968 151.61 60.3839 151.049 59.8694C150.441 59.3549 150.161 58.8871 150.208 58.0452C150.301 56.6887 150.301 40.5049 150.301 37.6049C150.208 36.9032 149.974 33.1145 151.33 33.0678Z" fill="#1B1918"/>
<path fill-rule="evenodd" clip-rule="evenodd" d="M120.428 36.2484C120.475 38.0726 120.896 54.4904 120.942 56.1742C120.942 58.5597 124.682 56.5017 126.693 54.2565C130.246 50.3275 130.339 40.692 126.085 37.7452C124.262 36.342 120.335 34.8452 120.428 36.2484ZM117.249 36.9968C117.202 36.2952 117.062 33.7226 117.904 33.3017C118.698 32.6936 122.579 33.021 124.402 33.8162C130.853 36.8097 131.601 40.0371 132.069 45.1823C132.723 58.092 121.27 60.5242 120.615 60.5242C119.213 60.571 118.418 59.9629 118.137 58.6533C117.436 55.3323 117.249 39.2888 117.249 36.9968Z" fill="#1B1918"/>
<path fill-rule="evenodd" clip-rule="evenodd" d="M120.428 36.2484C120.475 38.0726 120.896 54.4904 120.942 56.1742C120.942 58.5597 124.682 56.5017 126.693 54.2565C130.246 50.3275 130.339 40.692 126.085 37.7452C124.262 36.342 120.335 34.8452 120.428 36.2484ZM117.249 36.9968C117.202 36.2952 117.062 33.7226 117.904 33.3017C118.698 32.6936 122.579 33.021 124.402 33.8162C130.853 36.8097 131.601 40.0371 132.069 45.1823C132.723 58.092 121.27 60.5242 120.615 60.5242C119.213 60.571 118.418 59.9629 118.137 58.6533C117.436 55.3323 117.249 39.2888 117.249 36.9968Z" fill="#1B1918"/>
<path fill-rule="evenodd" clip-rule="evenodd" d="M179.52 37.371C177.837 37.2307 174.237 39.5226 174.284 49.1113C174.424 54.771 176.949 57.7178 178.725 57.6242C185.036 57.5775 186.252 37.4645 179.52 37.371ZM181.39 59.6823C179.239 60.571 176.995 60.5242 175.125 58.8871C173.723 57.4839 170.076 53.6016 171.572 43.5452C172.414 39.242 174.377 37.1371 175.967 35.9678C176.808 35.3597 181.437 33.1145 184.849 37.8387C189.15 44.0129 186.579 57.2033 181.39 59.6823Z" fill="#1B1918"/>
<path fill-rule="evenodd" clip-rule="evenodd" d="M179.52 37.371C177.837 37.2307 174.237 39.5226 174.284 49.1113C174.424 54.771 176.949 57.7178 178.725 57.6242C185.036 57.5775 186.252 37.4645 179.52 37.371ZM181.39 59.6823C179.239 60.571 176.995 60.5242 175.125 58.8871C173.723 57.4839 170.076 53.6016 171.572 43.5452C172.414 39.242 174.377 37.1371 175.967 35.9678C176.808 35.3597 181.437 33.1145 184.849 37.8387C189.15 44.0129 186.579 57.2033 181.39 59.6823Z" fill="#1B1918"/>
<path fill-rule="evenodd" clip-rule="evenodd" d="M142.307 35.6404C142.774 35.9678 142.915 36.4355 142.915 36.763C143.055 40.2243 142.587 57.9517 142.587 59.4017C142.587 59.7759 142.634 60.4775 142.12 60.571C141.606 60.6646 140.904 60.6646 140.577 60.4307C139.876 60.0565 139.736 59.4952 139.642 58.0452C139.595 53.7888 139.642 40.3178 139.689 37.6984C139.829 34.8452 141.185 35.2194 142.307 35.6404Z" fill="#1B1918"/>
<path fill-rule="evenodd" clip-rule="evenodd" d="M142.307 35.6404C142.774 35.9678 142.915 36.4355 142.915 36.763C143.055 40.2243 142.587 57.9517 142.587 59.4017C142.587 59.7759 142.634 60.4775 142.12 60.571C141.606 60.6646 140.904 60.6646 140.577 60.4307C139.876 60.0565 139.736 59.4952 139.642 58.0452C139.595 53.7888 139.642 40.3178 139.689 37.6984C139.829 34.8452 141.185 35.2194 142.307 35.6404Z" fill="#1B1918"/>
<path fill-rule="evenodd" clip-rule="evenodd" d="M33.8003 35.921C33.7535 38.1194 33.4263 40.9259 33.3795 41.2533C32.2575 47.9888 30.6212 56.1275 25.0112 60.4307C19.0272 64.9678 10.7525 62.4888 6.40475 56.7823C4.7685 54.6307 3.59975 52.0581 2.66475 49.4855C2.19725 48.1758 -1.44925 35.5468 0.560999 35.5936C0.701249 35.5936 0.841499 35.6871 0.934999 35.7807C2.01025 36.5291 10.9395 45.042 11.0797 43.4984C11.5005 39.0081 14.1652 26.9404 14.9132 25.4904C15.0535 25.2097 15.2405 24.9291 15.521 24.8355C15.895 24.742 16.269 24.9759 16.5027 25.2565C18.7467 27.7355 23.1412 41.6275 23.4685 41.8613C23.562 41.9081 23.6555 42.0017 23.7957 41.9549C23.8892 41.9549 29.6395 34.471 32.3978 33.5355C34.0808 32.9275 33.847 34.5646 33.8003 35.921Z" fill="#1B1918"/>
<path fill-rule="evenodd" clip-rule="evenodd" d="M6.59175 44.621C6.8255 44.7613 7.0125 44.9016 7.15275 45.0887C7.52675 45.65 7.3865 46.4452 6.87225 46.9129C6.2645 47.4742 5.236 47.6613 4.488 47.2871C2.57125 46.3984 3.4595 44.3871 5.37625 44.2936C5.797 44.3404 6.2645 44.4339 6.59175 44.621Z" fill="#E1E1E1"/>
<path fill-rule="evenodd" clip-rule="evenodd" d="M11.968 47.3807C12.903 48.1759 12.4822 49.4388 11.594 49.7662C10.7525 50.0468 9.8175 49.813 9.35 49.1114C9.2565 48.971 9.163 48.7372 9.2565 48.5968C9.4435 48.1759 9.58375 47.6614 9.911 47.3339C10.1448 47.1001 10.5655 47.0065 10.9395 46.913C11.4537 46.8194 11.7342 47.2404 11.968 47.3807Z" fill="#E1E1E1"/>
<path fill-rule="evenodd" clip-rule="evenodd" d="M6.03075 52.0113C5.56325 51.45 5.61 51.0758 6.171 50.6549C6.4515 50.4678 7.1995 50.5146 7.48 50.7484C7.80725 51.0758 7.71375 51.5904 7.293 51.871C7.0125 52.1049 6.732 52.2452 6.358 52.1517C6.2645 52.1517 6.12425 52.0581 6.03075 52.0113Z" fill="#E1E1E1"/>
<path fill-rule="evenodd" clip-rule="evenodd" d="M18.6532 52.2452C18.513 52.0581 18.4195 51.8242 18.4195 51.5903C18.3727 50.7016 19.3545 49.9065 20.3362 50.0468C20.8972 50.1403 21.3647 50.421 21.7855 50.7952C22.3465 51.2162 21.4582 52.3855 21.0375 52.7597C20.8972 52.9 20.6635 52.9936 20.4297 53.0403C19.7285 53.1339 19.0272 52.8065 18.6532 52.2452Z" fill="#E1E1E1"/>
<path fill-rule="evenodd" clip-rule="evenodd" d="M22.2997 55.4258C22.3465 55.5194 22.44 55.6129 22.4867 55.7065C22.8607 56.4081 22.7205 57.9048 21.505 57.671C21.131 57.6242 20.8037 57.3903 20.5232 57.1097C20.1492 56.7355 19.7752 56.3145 19.822 55.8C19.8687 55.2855 20.4765 54.8645 21.0842 54.8177C21.5517 54.8177 22.0192 55.0516 22.2997 55.4258Z" fill="#E1E1E1"/>
<path fill-rule="evenodd" clip-rule="evenodd" d="M23.9827 58.5129C24.0295 58.9806 23.8425 59.2613 23.3282 59.3548C23.001 59.4016 22.5802 59.4484 22.253 59.4016C21.692 59.3081 21.4115 58.8403 21.5517 58.4193C21.7387 57.9048 22.2062 57.671 22.814 57.8113C23.001 57.8581 23.1412 57.9516 23.2815 57.9516C23.4217 57.9516 23.6087 57.9048 23.6555 57.8113C23.8892 57.5306 24.2165 57.4371 24.5437 57.5774C24.8242 57.7177 24.9645 58.0452 24.7775 58.3258C24.6372 58.6064 24.3567 58.7 24.0295 58.5597C24.0762 58.4661 24.0762 58.5129 23.9827 58.5129Z" fill="#E1E1E1"/>
<path fill-rule="evenodd" clip-rule="evenodd" d="M30.9953 42.3759C31.4628 42.2824 31.6965 42.3759 31.7433 42.7501C31.8368 43.1243 31.603 43.4517 31.229 43.5453C30.9018 43.592 30.5277 43.3582 30.4342 43.0775C30.3875 42.7033 30.6213 42.4227 30.9953 42.3759Z" fill="#E1E1E1"/>
<path fill-rule="evenodd" clip-rule="evenodd" d="M25.993 56.4081C25.9462 56.1742 26.0865 55.9871 26.367 55.8936C26.6942 55.8 27.2085 55.9403 27.2552 56.1742C27.3487 56.4081 27.115 56.8758 26.8345 56.9226C26.5072 56.9694 26.0865 56.7823 25.993 56.4081Z" fill="#E1E1E1"/>
<path fill-rule="evenodd" clip-rule="evenodd" d="M28.2837 37.2307C28.1902 36.9033 28.3305 36.7162 28.7045 36.6227C28.985 36.5759 29.1252 36.6694 29.2187 36.9033C29.3122 37.1839 29.1252 37.4646 28.798 37.5114C28.5175 37.6049 28.3305 37.4646 28.2837 37.2307Z" fill="#E1E1E1"/>
<path fill-rule="evenodd" clip-rule="evenodd" d="M28.05 53.1339C28.237 52.9 28.3772 52.6661 28.4707 52.6661C28.6577 52.6661 28.798 52.8532 28.985 52.9468C28.8915 53.0871 28.798 53.2742 28.6577 53.321C28.5175 53.3678 28.3305 53.2274 28.05 53.1339Z" fill="#E1E1E1"/>
<path fill-rule="evenodd" clip-rule="evenodd" d="M29.8733 44.9952C30.0135 44.9017 30.107 44.7146 30.294 44.6678C30.3875 44.621 30.668 44.8081 30.668 44.9017C30.668 45.042 30.5277 45.2291 30.4342 45.2758C30.294 45.3226 30.107 45.1823 29.9667 45.1355L29.8733 44.9952Z" fill="#E1E1E1"/>
<path fill-rule="evenodd" clip-rule="evenodd" d="M52.173 70.0661H51.7055V65.7161H50.677V65.3419H53.295V65.7161H52.2197L52.173 70.0661Z" fill="#1B1918"/>
<path fill-rule="evenodd" clip-rule="evenodd" d="M54.417 68.3823C54.417 68.8032 54.5572 69.1307 54.8377 69.3645C55.1182 69.6452 55.4455 69.7387 55.913 69.7387C56.3805 69.7387 56.7077 69.5984 56.9882 69.3645C57.2687 69.1307 57.409 68.8032 57.409 68.3823C57.409 67.9613 57.2687 67.6339 57.035 67.4C56.7545 67.1661 56.4272 67.0258 55.9597 67.0258C55.4922 67.0258 55.165 67.1661 54.8845 67.4C54.5105 67.6339 54.417 68.0081 54.417 68.3823ZM53.9495 68.3823C53.9495 67.9145 54.1365 67.4936 54.5105 67.1194C54.8845 66.792 55.352 66.6049 55.8662 66.6049C56.4272 66.6049 56.848 66.792 57.222 67.1194C57.596 67.4468 57.783 67.8678 57.783 68.3823C57.783 68.8968 57.596 69.271 57.222 69.6452C56.848 69.9726 56.3805 70.1597 55.8662 70.1597C55.3052 70.1597 54.8845 69.9726 54.5105 69.6452C54.1365 69.3178 53.9495 68.8968 53.9495 68.3823Z" fill="#1B1918"/>
<path fill-rule="evenodd" clip-rule="evenodd" d="M61.149 69.6452L62.458 66.7452H63.1125V70.113H62.6918V67.4936C62.6918 67.4001 62.6918 67.2598 62.6918 67.213H62.645L61.2893 70.113H60.9152L59.5127 67.1194C59.5127 67.3065 59.5127 67.4001 59.5127 67.4936V70.113H59.092V66.7452H59.7932L61.149 69.6452Z" fill="#1B1918"/>
<path fill-rule="evenodd" clip-rule="evenodd" d="M65.0293 68.3823C65.0293 68.8033 65.1695 69.1307 65.4033 69.3646C65.637 69.6452 66.011 69.7388 66.4318 69.7388C66.7123 69.7388 66.9928 69.692 67.2265 69.5517C67.4603 69.4113 67.6473 69.2242 67.7408 68.9904H68.2083C68.068 69.3178 67.8343 69.5984 67.5538 69.7855C67.2265 69.9726 66.8993 70.1129 66.4785 70.1129C65.9643 70.1129 65.4968 69.9258 65.1695 69.5984C64.7955 69.271 64.6553 68.85 64.6553 68.3355C64.6553 67.8678 64.8423 67.4468 65.1695 67.0726C65.5435 66.7452 65.9643 66.5581 66.4785 66.5581C66.8525 66.5581 67.2265 66.6517 67.507 66.8388C67.8343 67.0259 68.0213 67.3065 68.1615 67.6339H67.694C67.4603 67.1662 67.0395 66.9323 66.4318 66.9323C65.9643 66.9323 65.637 67.0726 65.4033 67.3065C65.1228 67.6807 65.0293 68.0081 65.0293 68.3823Z" fill="#1B1918"/>
<path fill-rule="evenodd" clip-rule="evenodd" d="M71.6677 70.0662L69.938 68.2888L71.5743 66.6985H72.1352L70.4055 68.2888L72.2287 70.0662H71.6677ZM69.938 70.0662H69.5172V66.6985H69.938V70.0662Z" fill="#1B1918"/>
<path fill-rule="evenodd" clip-rule="evenodd" d="M73.865 69.5517L75.9688 66.7452H76.483V70.113H76.0155V67.3065L73.9118 70.113H73.3975V66.7452H73.8183V69.5517H73.865Z" fill="#1B1918"/>
<path fill-rule="evenodd" clip-rule="evenodd" d="M80.223 65.4823H80.6905C80.597 65.95 80.223 66.1371 79.662 66.1371C79.101 66.1371 78.727 65.9033 78.6335 65.4823H79.101C79.101 65.5758 79.1477 65.6694 79.288 65.7629C79.3815 65.8097 79.5217 65.8565 79.662 65.8565C79.8022 65.8565 79.8957 65.8097 80.036 65.7629C80.1762 65.6694 80.223 65.5758 80.223 65.4823ZM78.54 69.5517L80.6437 66.7452H81.158V70.1129H80.7372V67.3065L78.6335 70.1129H78.1192V66.7452H78.54V69.5517Z" fill="#1B1918"/>
<path fill-rule="evenodd" clip-rule="evenodd" d="M85.7862 68.429C85.7862 68.8032 85.9265 69.1306 86.1602 69.4113C86.394 69.6452 86.768 69.7855 87.1887 69.7855C87.6095 69.7855 87.9835 69.6452 88.2172 69.4113C88.451 69.1774 88.5912 68.85 88.5912 68.429C88.5912 68.0548 88.4977 67.7274 88.264 67.4935C88.0302 67.2597 87.703 67.1193 87.2822 67.1193C87.0017 67.1193 86.768 67.1661 86.5342 67.3064C86.3005 67.4 86.1135 67.5871 85.9732 67.7742C85.8797 67.8677 85.8797 68.0081 85.833 68.1016C85.7862 68.1484 85.7862 68.2419 85.7862 68.429ZM89.0587 68.429C89.0587 68.9435 88.8717 69.3645 88.5445 69.6919C88.2172 70.0193 87.7497 70.2064 87.1887 70.2064C86.6277 70.2064 86.1602 70.0193 85.833 69.6919C85.5057 69.3645 85.3655 68.9435 85.3655 68.429V67.4C85.3655 65.8564 86.02 65.0613 87.329 65.0613H88.825V65.4355H87.329C87.0485 65.4355 86.8615 65.4822 86.6745 65.529C86.3005 65.6693 86.0667 65.9032 85.9265 66.3242C85.833 66.6048 85.7862 66.979 85.7862 67.4468C85.9265 67.2597 86.1602 67.0726 86.4407 66.9322C86.7212 66.7919 87.0017 66.7452 87.2822 66.7452C87.7965 66.7452 88.264 66.8855 88.5445 67.2129C88.8717 67.5403 89.0587 67.9145 89.0587 68.429Z" fill="#1B1918"/>
<path fill-rule="evenodd" clip-rule="evenodd" d="M93.8273 68.3823C93.8273 68.0081 93.687 67.6806 93.4065 67.4C93.126 67.1193 92.7988 66.979 92.378 66.979C91.9573 66.979 91.63 67.1193 91.3495 67.4C91.069 67.6806 90.9288 68.0081 90.9288 68.3823C90.9288 68.7097 91.069 69.0371 91.3495 69.3177C91.63 69.5984 91.9573 69.7387 92.378 69.7387C92.7988 69.7387 93.126 69.5984 93.4065 69.3177C93.687 69.0839 93.8273 68.7564 93.8273 68.3823ZM90.9288 66.6984V67.3532C91.3495 66.8855 91.817 66.6516 92.4248 66.6516C92.939 66.6516 93.4065 66.8387 93.7338 67.1661C94.1078 67.4935 94.248 67.9145 94.248 68.429C94.248 68.9435 94.061 69.3645 93.687 69.6919C93.313 70.0194 92.8455 70.2064 92.2845 70.2064C91.7235 70.2064 91.256 69.9726 90.882 69.5516V71.6097H90.4613V66.7919L90.9288 66.6984Z" fill="#1B1918"/>
<path fill-rule="evenodd" clip-rule="evenodd" d="M98.8763 68.1484C98.6893 67.4 98.2217 66.9791 97.427 66.9791C97.053 66.9791 96.7257 67.0726 96.492 67.3065C96.2582 67.4936 96.0712 67.7742 96.0245 68.1484H98.8763ZM99.297 68.5226H95.9778C95.9778 68.8968 96.118 69.2242 96.3985 69.4581C96.679 69.692 97.0062 69.7855 97.427 69.7855C98.0347 69.7855 98.4555 69.5984 98.6893 69.1774H99.2035C98.8295 69.8323 98.2217 70.1597 97.427 70.1597C96.866 70.1597 96.3985 69.9726 96.0245 69.6452C95.6505 69.3178 95.5103 68.8968 95.5103 68.3355C95.5103 67.821 95.6973 67.4 96.0713 67.0726C96.4453 66.7452 96.9128 66.6049 97.4738 66.6049C98.0348 66.6049 98.5022 66.792 98.8295 67.1661C99.1567 67.5403 99.297 67.9613 99.297 68.5226Z" fill="#1B1918"/>
<path fill-rule="evenodd" clip-rule="evenodd" d="M101.214 70.0662H100.793V66.6985H101.214V68.1485H103.224V66.6985H103.645V70.0662H103.224V68.4759H101.214V70.0662Z" fill="#1B1918"/>
<path fill-rule="evenodd" clip-rule="evenodd" d="M107.618 69.692L106.637 67.3066H106.59L105.608 69.692H107.618ZM108.366 70.7678H107.946V70.0662H105.281V70.7678H104.86V69.692H105.141L106.403 66.6985H106.777L108.039 69.692H108.32V70.7678H108.366Z" fill="#1B1918"/>
<path fill-rule="evenodd" clip-rule="evenodd" d="M114.678 69.692L113.696 67.3066H113.649L112.668 69.692H114.678ZM115.426 70.7678H115.005V70.0662H112.34V70.7678H111.92V69.692H112.2L113.462 66.6985H113.836L115.099 69.692H115.379V70.7678H115.426Z" fill="#1B1918"/>
<path fill-rule="evenodd" clip-rule="evenodd" d="M119.82 68.1484C119.633 67.4 119.166 66.9791 118.371 66.9791C117.997 66.9791 117.67 67.0726 117.436 67.3065C117.202 67.4936 117.015 67.7742 116.968 68.1484H119.82ZM120.288 68.5226H116.968C116.968 68.8968 117.109 69.2242 117.389 69.4581C117.67 69.692 117.997 69.7855 118.418 69.7855C119.025 69.7855 119.446 69.5984 119.68 69.1774H120.194C119.82 69.8323 119.212 70.1597 118.418 70.1597C117.857 70.1597 117.389 69.9726 117.015 69.6452C116.641 69.3178 116.501 68.8968 116.501 68.3355C116.501 67.821 116.688 67.4 117.062 67.0726C117.436 66.7452 117.903 66.6049 118.464 66.6049C119.025 66.6049 119.493 66.792 119.82 67.1661C120.147 67.5403 120.288 67.9613 120.288 68.5226Z" fill="#1B1918"/>
<path fill-rule="evenodd" clip-rule="evenodd" d="M122.298 70.0662V67.0727H121.363V66.6985H123.654V67.0727H122.719V70.0662H122.298Z" fill="#1B1918"/>
<path fill-rule="evenodd" clip-rule="evenodd" d="M125.196 68.3823C125.196 68.8033 125.337 69.1307 125.57 69.3646C125.804 69.6452 126.178 69.7388 126.599 69.7388C126.879 69.7388 127.16 69.692 127.394 69.5517C127.627 69.4113 127.814 69.2242 127.908 68.9904H128.375C128.235 69.3178 128.002 69.5984 127.721 69.7855C127.394 69.9726 127.066 70.1129 126.646 70.1129C126.131 70.1129 125.664 69.9258 125.337 69.5984C124.963 69.271 124.822 68.85 124.822 68.3355C124.822 67.8678 125.009 67.4468 125.337 67.0726C125.711 66.7452 126.131 66.5581 126.646 66.5581C127.02 66.5581 127.394 66.6517 127.674 66.8388C127.955 67.0259 128.188 67.3065 128.329 67.6339H127.861C127.627 67.1662 127.207 66.9323 126.599 66.9323C126.131 66.9323 125.804 67.0726 125.57 67.3065C125.29 67.6807 125.196 68.0081 125.196 68.3823Z" fill="#1B1918"/>
<path fill-rule="evenodd" clip-rule="evenodd" d="M131.835 70.0662L130.105 68.2888L131.741 66.6985H132.302L130.573 68.2888L132.396 70.0662H131.835ZM130.105 70.0662H129.684V66.6985H130.105V70.0662Z" fill="#1B1918"/>
<path fill-rule="evenodd" clip-rule="evenodd" d="M133.752 68.3823C133.752 68.8032 133.892 69.1307 134.172 69.3645C134.453 69.6452 134.78 69.7387 135.248 69.7387C135.715 69.7387 136.042 69.5984 136.323 69.3645C136.603 69.1307 136.744 68.8032 136.744 68.3823C136.744 67.9613 136.603 67.6339 136.37 67.4C136.089 67.1661 135.762 67.0258 135.294 67.0258C134.827 67.0258 134.5 67.1661 134.219 67.4C133.892 67.6339 133.752 68.0081 133.752 68.3823ZM133.284 68.3823C133.284 67.9145 133.471 67.4936 133.845 67.1194C134.219 66.792 134.687 66.6049 135.201 66.6049C135.762 66.6049 136.183 66.792 136.557 67.1194C136.931 67.4468 137.118 67.8678 137.118 68.3823C137.118 68.8968 136.931 69.271 136.557 69.6452C136.183 69.9726 135.715 70.1597 135.201 70.1597C134.64 70.1597 134.219 69.9726 133.845 69.6452C133.471 69.3178 133.284 68.8968 133.284 68.3823Z" fill="#1B1918"/>
<path fill-rule="evenodd" clip-rule="evenodd" d="M140.671 65.4823H141.138C141.045 65.95 140.671 66.1371 140.11 66.1371C139.549 66.1371 139.175 65.9033 139.081 65.4823H139.549C139.549 65.5758 139.595 65.6694 139.736 65.7629C139.829 65.8097 139.969 65.8565 140.11 65.8565C140.25 65.8565 140.343 65.8097 140.484 65.7629C140.577 65.6694 140.671 65.5758 140.671 65.4823ZM138.988 69.5517L141.091 66.7452H141.606V70.1129H141.185V67.3065L139.081 70.1129H138.567V66.7452H138.988V69.5517Z" fill="#1B1918"/>
<path fill-rule="evenodd" clip-rule="evenodd" d="M146.187 68.3823C146.187 68.8032 146.327 69.1307 146.608 69.3645C146.888 69.6452 147.216 69.7387 147.683 69.7387C148.151 69.7387 148.478 69.5984 148.758 69.3645C149.039 69.1307 149.132 68.8032 149.132 68.3823C149.132 67.9613 148.992 67.6339 148.758 67.4C148.478 67.1661 148.151 67.0258 147.683 67.0258C147.216 67.0258 146.888 67.1661 146.608 67.4C146.327 67.6339 146.187 68.0081 146.187 68.3823ZM145.72 68.3823C145.72 67.9145 145.907 67.4936 146.281 67.1194C146.655 66.792 147.122 66.6049 147.636 66.6049C148.197 66.6049 148.618 66.792 148.992 67.1194C149.366 67.4468 149.553 67.8678 149.553 68.3823C149.553 68.8968 149.366 69.271 148.992 69.6452C148.618 69.9726 148.151 70.1597 147.636 70.1597C147.075 70.1597 146.655 69.9726 146.281 69.6452C145.907 69.3178 145.72 68.8968 145.72 68.3823Z" fill="#1B1918"/>
<path fill-rule="evenodd" clip-rule="evenodd" d="M153.293 69.692L152.311 67.3066H152.265L151.283 69.692H153.293ZM154.041 70.7678H153.62V70.0662H151.002V70.7678H150.582V69.692H150.862L152.124 66.6985H152.498L153.761 69.692H154.041V70.7678Z" fill="#1B1918"/>
<path fill-rule="evenodd" clip-rule="evenodd" d="M158.482 68.1484C158.295 67.4 157.828 66.9791 157.033 66.9791C156.659 66.9791 156.332 67.0726 156.098 67.3065C155.864 67.4936 155.677 67.7742 155.631 68.1484H158.482ZM158.95 68.5226H155.631C155.631 68.8968 155.771 69.2242 156.051 69.4581C156.332 69.692 156.659 69.7855 157.08 69.7855C157.688 69.7855 158.108 69.5984 158.342 69.1774H158.856C158.482 69.8323 157.875 70.1597 157.08 70.1597C156.519 70.1597 156.051 69.9726 155.677 69.6452C155.303 69.3178 155.163 68.8968 155.163 68.3355C155.163 67.821 155.35 67.4 155.724 67.0726C156.098 66.7452 156.566 66.6049 157.127 66.6049C157.688 66.6049 158.155 66.792 158.482 67.1661C158.763 67.5403 158.95 67.9613 158.95 68.5226Z" fill="#1B1918"/>
<path fill-rule="evenodd" clip-rule="evenodd" d="M162.176 70.0662V68.3356L160.539 70.0662H159.979L161.708 68.2888L160.072 66.6985H160.633L162.176 68.2888V66.6985H162.596V68.2888L164.139 66.6985H164.7L163.064 68.2888L164.794 70.0662H164.233L162.596 68.3356V70.0662H162.176Z" fill="#1B1918"/>
<path fill-rule="evenodd" clip-rule="evenodd" d="M168.393 69.692L167.412 67.3066H167.365L166.383 69.692H168.393ZM169.141 70.7678H168.721V70.0662H166.056V70.7678H165.635V69.692H165.916L167.178 66.6985H167.552L168.814 69.692H169.095V70.7678H169.141Z" fill="#1B1918"/>
<path fill-rule="evenodd" clip-rule="evenodd" d="M173.022 66.6985H173.489V70.0662H173.022V66.6985ZM170.824 68.4759V69.692H171.526C171.993 69.692 172.227 69.5049 172.227 69.084C172.227 68.663 171.993 68.4759 171.526 68.4759H170.824ZM170.404 70.0662V66.6985H170.824V68.1017H171.572C171.9 68.1017 172.18 68.1953 172.367 68.3824C172.554 68.5695 172.648 68.8033 172.648 69.084C172.648 69.3646 172.554 69.5985 172.367 69.7856C172.18 69.9727 171.9 70.0662 171.619 70.0662H170.404Z" fill="#1B1918"/>
</g>
<defs>
<clipPath id="clip0_570_3409">
<rect width="187" height="92" fill="white"/>
</clipPath>
</defs>
</svg>
