<svg width="154" height="92" viewBox="0 0 154 92" fill="none" xmlns="http://www.w3.org/2000/svg">
<path d="M21.1944 30.5859L18.3946 41.6517C17.9005 43.66 17.3654 45.8321 16.9127 47.9226C16.4596 45.8321 15.9245 43.66 15.4303 41.6517L12.6312 30.5859H0.0332031V59.7669H7.85525V51.488C7.85525 46.611 7.8142 42.5124 7.60848 37.8401C8.14361 39.9713 8.63769 41.8566 9.33748 44.3157L13.578 59.7669H20.2473L24.488 44.3157C25.1879 41.8566 25.6815 39.9713 26.217 37.8401C26.0113 42.5124 25.9699 46.611 25.9699 51.488V59.7669H33.792V30.5859H21.1944Z" fill="black"/>
<path d="M51.8149 60.9319C60.7751 60.9319 66.978 54.9035 66.978 45.4659C66.978 36.0283 60.7751 30 51.8149 30C42.8145 30 36.6523 36.0283 36.6523 45.4659C36.6523 54.9035 42.8145 60.9319 51.8149 60.9319ZM51.8149 53.7396C47.7606 53.7396 45.0846 50.7462 45.0846 45.4659C45.0846 40.2274 47.7606 37.1924 51.8149 37.1924C55.8692 37.1924 58.5451 40.2274 58.5451 45.4659C58.5451 50.7462 55.8692 53.7396 51.8149 53.7396Z" fill="black"/>
<path d="M78.6358 52.4718V30.5859H70.4141V59.7669H91.5845V52.4718H78.6358Z" fill="black"/>
<path d="M101.873 52.4718V30.5859H93.873V59.7669H114.471V52.4718H101.873Z" fill="black"/>
<path d="M117.33 59.7669H125.341V30.5859H117.33V59.7669Z" fill="black"/>
<path d="M141.156 60.9319C148.734 60.9319 153.949 57.9384 153.949 51.3281C153.949 46.0481 150.69 43.3043 143.6 42.0983L141.197 41.6827C138.305 41.1838 136.961 40.56 136.961 38.7725C136.961 37.2342 138.101 36.3194 140.668 36.3194C143.845 36.3194 145.149 37.442 145.271 39.7704H152.93C152.604 33.2844 148.205 30 140.546 30C132.398 30 128.649 34.0329 128.649 39.1466C128.649 44.5099 132.153 47.6279 138.712 48.7087L140.993 49.0831C144.538 49.6651 145.556 50.2472 145.556 51.9516C145.556 53.6148 144.253 54.6123 141.482 54.6123C138.345 54.6123 136.105 54.0303 136.023 50.5381H128.201C128.201 56.6081 132.398 60.9319 141.156 60.9319Z" fill="black"/>
</svg>
