<svg width="201" height="92" viewBox="0 0 201 92" fill="none" xmlns="http://www.w3.org/2000/svg">
<path d="M13.2157 37.1992V54.4963H11.457L11.5072 40.0398H11.457L7.18575 54.4963H5.7285L1.65825 40.0398H1.608L1.65825 54.4963H0V37.1992H2.46225L6.5325 51.7065L10.7535 37.1992H13.2157Z" fill="#12100B"/>
<path d="M22.9141 53.3305C22.9141 52.5189 23.3663 51.9609 24.0196 51.9609C24.6728 51.9609 25.1251 52.5189 25.1251 53.3305C25.1251 54.1928 24.7231 54.7508 24.0196 54.7508C23.3663 54.7508 22.9141 54.1928 22.9141 53.3305Z" fill="#12100B"/>
<path d="M43.0645 54.5471L40.2002 47.2427H40.0998H36.8837V54.4963H35.125V37.1992H40.0495C42.763 37.1992 44.6223 39.1268 44.6223 42.0181C44.6223 44.4021 43.567 46.1775 41.9088 46.8876L45.0242 54.4963H43.0645V54.5471ZM36.8837 45.4673H40.2002C41.758 45.4673 42.8132 44.1992 42.8132 42.221C42.8132 40.3442 41.758 39.1268 40.15 39.1268H36.8837V45.4673Z" fill="#12100B"/>
<path d="M74.7728 52.6195V54.4963H66.0293V37.1992H74.5718V39.076H67.788V44.605H73.9688V46.5326H67.788V52.6195H74.7728Z" fill="#12100B"/>
<path d="M103.817 50.2355H98.1386L96.9828 54.4963H95.1738L99.9978 37.1992H102.008L106.832 54.4963H104.922L103.817 50.2355ZM103.264 48.3586L100.953 39.5833H100.902L98.5908 48.3586H103.264Z" fill="#12100B"/>
<path d="M126.881 48.8189H128.64C128.74 51.203 130.047 52.8261 131.956 52.8261C133.916 52.8261 135.222 51.6088 135.222 49.7319C135.222 47.3479 133.514 46.9421 131.705 46.5363C129.594 46.0798 127.233 45.4203 127.233 42.0218C127.233 39.029 129.142 37.0508 131.956 37.0508C134.619 37.0508 136.529 39.3334 136.68 42.7319H134.921C134.82 40.5001 133.665 38.9783 131.906 38.9783C130.197 38.9783 129.042 40.145 129.042 41.8189C129.042 43.7972 130.599 44.2537 132.358 44.6087C134.569 45.0653 137.031 45.7754 137.031 49.529C137.031 52.674 135.021 54.8044 131.956 54.8044C129.092 54.7537 127.032 52.3696 126.881 48.8189Z" fill="#12100B"/>
<path d="M157.734 45.8768C157.734 40.5507 160.197 37 163.865 37C167.533 37 169.995 40.5507 169.995 45.8768C169.995 51.2029 167.533 54.7536 163.865 54.7536C160.197 54.7536 157.734 51.2029 157.734 45.8768ZM168.186 45.8768C168.186 41.7174 166.478 38.9783 163.865 38.9783C161.302 38.9783 159.543 41.7174 159.543 45.8768C159.543 50.0362 161.252 52.7754 163.865 52.7754C166.478 52.7754 168.186 50.0362 168.186 45.8768Z" fill="#12100B"/>
<path d="M201 37.1992V54.4963H199.342L192.91 40.9021H192.859L192.91 54.4963H191.201V37.1992H192.91L199.342 50.7934H199.392L199.342 37.1992H201Z" fill="#12100B"/>
</svg>
