<svg width="138" height="92" viewBox="0 0 138 92" fill="none" xmlns="http://www.w3.org/2000/svg">
<path d="M0 61.2657H1.09642L4.29432 65.8205V61.2657H5.208V67.2781H4.11158L0.913685 62.7233V67.2781H0V61.2657Z" fill="#0F0F0F"/>
<path d="M14.345 61.2657H15.2587L17.9084 67.2781H16.8119L16.2637 65.8205H13.3399L12.7917 67.2781H11.6953L14.345 61.2657ZM15.8983 64.9096L14.8018 62.3589L13.7054 64.9096H15.8983Z" fill="#0F0F0F"/>
<path d="M25.3085 62.1767H23.207V61.2657H28.3237V62.1767H26.2222V67.2781H25.3085V62.1767Z" fill="#0F0F0F"/>
<path d="M34.2637 66.7301V65.728C34.8119 66.1835 35.5428 66.4568 36.2738 66.4568C37.1875 66.4568 37.5529 66.0924 37.5529 65.6369C37.5529 65.1815 37.0961 64.9993 36.2738 64.6349C35.086 64.1794 34.5378 63.7239 34.5378 62.7219C34.5378 61.8109 35.4515 61.0822 36.7306 61.0822C37.2788 61.0822 37.827 61.2643 38.1925 61.5376V62.5397C37.827 62.1753 37.2788 61.9931 36.6393 61.9931C35.9997 61.9931 35.5428 62.2664 35.5428 62.7219C35.5428 63.2684 35.9083 63.4506 36.7306 63.7239C37.9184 64.1794 38.558 64.6349 38.558 65.6369C38.558 66.639 37.6443 67.3678 36.2738 67.3678C35.2687 67.3678 34.6291 67.0945 34.2637 66.7301Z" fill="#0F0F0F"/>
<path d="M54.182 65.3651C54.182 66.5493 53.2683 67.0959 51.9891 67.0959H49.248V61.2657H51.8064C53.1769 61.2657 53.8165 61.7212 53.8165 62.8144C53.8165 63.452 53.3596 63.9075 52.8114 63.9986C53.7251 64.0897 54.182 64.6363 54.182 65.3651ZM50.2531 62.1767V63.6342H51.6236C52.4459 63.6342 52.9028 63.4521 52.9028 62.9055C52.9028 62.2678 52.3546 62.1767 51.715 62.1767H50.2531ZM53.1769 65.3651C53.1769 64.7274 52.8114 64.4541 51.9891 64.4541H50.3445V66.276H51.9891C52.72 66.276 53.1769 66.0027 53.1769 65.3651Z" fill="#0F0F0F"/>
<path d="M66.7911 67.1896H65.512L63.6846 64.9122H62.4054V67.1896H61.4004V61.3595H64.1414C65.4206 61.3595 66.3343 61.9972 66.3343 63.1814C66.3343 64.0924 65.6947 64.7301 64.8724 64.9122L66.7911 67.1896ZM64.1414 64.0013C64.781 64.0013 65.4206 63.728 65.4206 63.0903C65.4206 62.4527 64.8724 62.1794 64.1414 62.1794H62.4968V64.0013H64.1414Z" fill="#0F0F0F"/>
<path d="M76.8422 61.3595H77.8472L80.6797 67.1896H79.4919L78.8523 65.8232H75.8371L75.1976 67.1896H74.0098L76.8422 61.3595ZM78.4868 64.9122L77.3904 62.4527L76.294 64.9122H78.4868Z" fill="#0F0F0F"/>
<path d="M87.8945 61.3595H89.0823L92.3716 65.8232V61.3595H93.3766V67.1896H92.2802L88.8996 62.7259V67.1896H87.8945V61.3595Z" fill="#0F0F0F"/>
<path d="M106.259 64.2746C106.259 66.0054 104.888 67.1896 102.878 67.1896H100.594V61.3595H102.878C104.979 61.3595 106.259 62.5438 106.259 64.2746ZM105.254 64.2746C105.254 62.9992 104.431 62.2705 102.787 62.2705H101.599V66.3698H102.787C104.248 66.2787 105.162 65.641 105.254 64.2746Z" fill="#0F0F0F"/>
<path d="M133.766 86.2203C114.122 37.3929 87.8991 6.05588 69.8995 10.0641C65.8793 10.9751 55.9202 15.8942 48.7021 41.8566L45.1387 40.8545C52.5395 13.9812 63.321 7.69561 69.0772 6.42026C89.1783 1.95656 116.497 33.3847 137.147 84.7628L133.766 86.2203Z" fill="#0F0F0F"/>
</svg>
