<svg width="185" height="92" viewBox="0 0 185 92" fill="none" xmlns="http://www.w3.org/2000/svg">
<path d="M19.6194 37.8161C19.6194 39.0504 19.3449 40.1932 18.7502 41.1989C18.1554 42.2046 17.4234 43.0732 16.5084 43.8046C15.5934 44.5361 14.5412 45.0389 13.3974 45.4046C12.2537 45.7704 11.1099 45.9075 9.96617 45.8618V45.5418C10.8354 45.4504 11.6589 45.2675 12.3909 44.9932C13.1229 44.7189 13.7634 44.3075 14.3124 43.7589C14.8614 43.2561 15.2732 42.6161 15.5477 41.8846C15.8679 41.1532 16.0052 40.2846 16.0052 39.3246C16.0052 38.4104 15.8679 37.5418 15.5934 36.7189C15.3189 35.8961 14.9072 35.1189 14.3582 34.4789C13.8092 33.8389 13.1687 33.2904 12.4367 32.8789C11.6589 32.4675 10.8354 32.2389 9.87467 32.1932C9.37142 32.1475 8.91392 32.1475 8.54792 32.1932L8.31917 32.6046V40.1475V43.7132L8.36492 48.6046C8.36492 49.3361 8.36492 50.0218 8.36492 50.7532C8.36492 51.4846 8.36492 52.0332 8.41067 52.3989C8.45642 52.8561 8.54792 53.2675 8.68517 53.5875C8.82242 53.9075 9.00542 54.1818 9.32567 54.3646C9.60017 54.5932 10.0119 54.7303 10.5152 54.8675C11.0184 55.0046 11.6589 55.0961 12.4367 55.1875V55.4161C12.0707 55.4161 11.6589 55.3704 11.2014 55.3704C10.6982 55.3704 10.1949 55.3246 9.64592 55.3246C9.09692 55.3246 8.54792 55.3246 8.04467 55.2789C7.54142 55.2789 7.03817 55.2789 6.62642 55.2789C6.21467 55.2789 5.80292 55.2789 5.29967 55.2789C4.79642 55.2789 4.29317 55.3246 3.78992 55.3246C3.28667 55.3246 2.78342 55.3704 2.28017 55.3704C1.77692 55.3704 1.36517 55.4161 1.04492 55.4161V55.2332C1.63967 55.1418 2.18867 55.0504 2.64617 54.9132C3.10367 54.8218 3.51542 54.6389 3.78992 54.4103C4.11017 54.1818 4.33892 53.9075 4.52192 53.5418C4.70492 53.1761 4.79642 52.7189 4.79642 52.1246C4.79642 51.6675 4.84217 50.9361 4.84217 49.9761C4.84217 49.0161 4.84217 47.9646 4.84217 46.8675C4.84217 45.7703 4.84217 44.7189 4.84217 43.7132C4.84217 42.7075 4.84217 41.9761 4.84217 41.4275C4.84217 40.8789 4.84217 40.3304 4.84217 39.7361C4.84217 39.1418 4.84217 38.5475 4.84217 37.9075C4.84217 37.2675 4.84217 36.6732 4.84217 36.1246C4.84217 35.5761 4.79642 35.0275 4.79642 34.5704C4.79642 33.9761 4.70492 33.5189 4.52192 33.1532C4.38467 32.7875 4.15592 32.5132 3.83567 32.2846C3.51542 32.0561 3.14942 31.9189 2.69192 31.7818C2.23442 31.6904 1.68542 31.5532 1.09067 31.4618V31.1875C1.36517 31.1875 1.68542 31.2332 2.05142 31.2332C2.46317 31.2332 2.87492 31.2332 3.33242 31.2789C3.78992 31.2789 4.29317 31.2789 4.79642 31.3246C5.29967 31.3246 5.84867 31.3246 6.35192 31.3246L11.0184 31.1875C11.9334 31.1875 12.8942 31.2789 13.9007 31.4618C14.9072 31.6446 15.8222 31.9646 16.6457 32.4218C17.4692 32.8789 18.2012 33.5646 18.7502 34.3875C19.2992 35.3932 19.6194 36.4904 19.6194 37.8161Z" fill="#1A1A18"/>
<path d="M86.0035 54.9133C86.9185 54.9133 87.8792 54.6848 88.7942 54.2733C89.7092 53.8619 90.5327 53.1762 91.2647 52.2619C91.9967 51.3476 92.5915 50.2048 93.049 48.7876C93.5065 47.3705 93.7352 45.7248 93.7352 43.759C93.7352 42.1133 93.5065 40.559 93.0947 39.0962C92.6372 37.6333 92.0425 36.399 91.2647 35.3476C90.487 34.2962 89.5262 33.4276 88.4282 32.8333C87.3302 32.1933 86.095 31.919 84.7682 31.919C83.6245 31.919 82.5722 32.1476 81.6572 32.6505C80.6965 33.1533 79.873 33.8848 79.141 34.799C78.4547 35.7133 77.9057 36.8562 77.494 38.2276C77.0822 39.599 76.8992 41.1076 76.8992 42.799C76.8992 44.4905 77.128 46.0905 77.5855 47.5533C78.043 49.0162 78.6377 50.2962 79.4612 51.3933C80.239 52.4905 81.1997 53.359 82.3435 53.9533C83.3957 54.5933 84.631 54.9133 86.0035 54.9133ZM98.2645 43.0733C98.2645 44.9476 97.9442 46.639 97.3037 48.239C96.6632 49.839 95.7482 51.2105 94.5587 52.3533C93.3692 53.4962 91.9967 54.4105 90.3955 55.0962C88.7942 55.7362 87.0557 56.0562 85.1342 56.0562C83.167 56.0562 81.4285 55.6905 79.8272 55.0048C78.2717 54.319 76.8992 53.4048 75.8012 52.2619C74.7032 51.119 73.834 49.7933 73.2392 48.239C72.6445 46.7305 72.3242 45.1305 72.3242 43.439C72.3242 41.839 72.5987 40.2847 73.1935 38.7762C73.7882 37.2676 74.6117 35.8962 75.7097 34.7076C76.8077 33.519 78.1802 32.559 79.8272 31.8276C81.4742 31.0962 83.35 30.7305 85.4545 30.7305C87.2845 30.7305 89.023 31.0048 90.5785 31.599C92.134 32.1933 93.5065 33.0162 94.6502 34.0676C95.794 35.119 96.6632 36.399 97.3037 37.9076C97.9442 39.4619 98.2645 41.1533 98.2645 43.0733Z" fill="#1A1A18"/>
<path d="M116.244 53.8184C116.793 53.7727 117.296 53.6812 117.708 53.5898C118.12 53.4527 118.532 53.2698 118.852 52.9955C119.218 52.7212 119.492 52.3098 119.813 51.807C120.087 51.3041 120.362 50.6641 120.682 49.8412L120.956 49.9784L120.087 54.2755C120.041 54.5955 119.904 54.8698 119.721 55.1441C119.538 55.4184 119.126 55.5098 118.486 55.5098C117.113 55.4641 115.741 55.4184 114.414 55.3727C113.087 55.327 111.715 55.327 110.297 55.327C108.878 55.327 107.46 55.327 106.042 55.3727C104.669 55.4184 103.251 55.4641 101.787 55.5098V55.2355C102.428 55.1441 103.022 55.0527 103.48 54.9155C103.983 54.8241 104.395 54.6412 104.715 54.4127C105.035 54.1841 105.31 53.9098 105.447 53.5441C105.63 53.1784 105.722 52.7212 105.722 52.127C105.722 51.6698 105.767 50.9384 105.767 49.9784C105.767 49.0184 105.767 48.0127 105.767 46.9155C105.767 45.8641 105.767 44.8127 105.767 43.807C105.767 42.8012 105.767 42.0698 105.767 41.5212C105.767 40.9727 105.767 40.4241 105.767 39.8298C105.767 39.2355 105.767 38.5955 105.767 37.9555C105.767 37.3155 105.767 36.7212 105.767 36.127C105.767 35.5327 105.722 35.0298 105.722 34.5727C105.722 33.9784 105.584 33.5212 105.447 33.1555C105.264 32.7898 105.035 32.5155 104.715 32.287C104.395 32.0584 104.029 31.9212 103.526 31.7841C103.068 31.6927 102.519 31.5555 101.924 31.4641V31.2812C102.29 31.2812 102.702 31.2812 103.205 31.2812C103.709 31.2812 104.212 31.327 104.761 31.327C105.31 31.3727 105.813 31.3727 106.316 31.4184C106.82 31.4184 107.231 31.4641 107.643 31.4641C108.101 31.4641 108.558 31.4641 109.061 31.4641C109.565 31.4641 110.068 31.4184 110.571 31.4184C111.074 31.4184 111.532 31.3727 111.989 31.3727C112.447 31.3727 112.813 31.327 113.133 31.327V31.5555C112.447 31.6012 111.898 31.7384 111.44 31.8298C110.983 31.967 110.617 32.1041 110.342 32.3327C110.068 32.5613 109.839 32.8355 109.702 33.2012C109.565 33.567 109.473 33.9784 109.473 34.527C109.473 34.8927 109.427 35.3498 109.427 35.8984C109.427 36.447 109.427 37.0412 109.427 37.7727L109.382 44.4927C109.382 44.767 109.382 45.1327 109.382 45.6355C109.382 46.1384 109.382 46.687 109.382 47.327C109.382 47.9212 109.382 48.5612 109.382 49.1555C109.382 49.7955 109.382 50.3441 109.382 50.847C109.382 51.3041 109.427 51.7155 109.519 52.0812C109.61 52.447 109.793 52.8127 110.068 53.087C110.342 53.3612 110.663 53.5898 111.12 53.7727C111.578 53.9098 112.081 54.0012 112.767 53.9555C113.179 53.9555 113.545 53.9555 113.865 53.9555C114.185 53.9555 114.46 53.9555 114.734 53.9098C115.009 53.9098 115.238 53.8641 115.466 53.8641C115.649 53.8641 115.924 53.8184 116.244 53.8184Z" fill="#1A1A18"/>
<path d="M136.144 55.4161C135.778 55.4161 135.366 55.3704 134.909 55.3704C134.406 55.3704 133.902 55.3246 133.353 55.3246C132.804 55.3246 132.255 55.3246 131.752 55.2789C131.203 55.2789 130.746 55.2789 130.334 55.2789C129.922 55.2789 129.51 55.2789 129.007 55.2789C128.504 55.2789 128.001 55.3246 127.497 55.3246C126.994 55.3246 126.491 55.3704 125.988 55.3704C125.484 55.3704 125.073 55.4161 124.752 55.4161V55.2332C125.347 55.1418 125.896 55.0504 126.354 54.9132C126.811 54.8218 127.223 54.6389 127.497 54.4103C127.818 54.1818 128.046 53.9075 128.229 53.5418C128.412 53.1761 128.504 52.7189 128.504 52.1246C128.504 51.6675 128.55 50.9361 128.55 49.9761C128.55 49.0161 128.55 47.9646 128.55 46.8675C128.55 45.7703 128.55 44.7189 128.55 43.7132C128.55 42.7075 128.55 41.9304 128.55 41.4275C128.55 40.9246 128.55 40.3304 128.55 39.7361C128.55 39.1418 128.55 38.5018 128.55 37.8618C128.55 37.2218 128.55 36.6275 128.55 36.0332C128.55 35.4389 128.55 34.9361 128.504 34.4789C128.504 33.8846 128.367 33.4275 128.184 33.0618C128.001 32.6961 127.726 32.4218 127.406 32.1932C127.086 31.9646 126.674 31.8275 126.216 31.6904C125.759 31.5989 125.21 31.4618 124.615 31.3704V31.1875C124.981 31.1875 125.393 31.1875 125.896 31.1875C126.399 31.1875 126.903 31.2332 127.452 31.2332C128.001 31.2789 128.504 31.2789 129.007 31.3246C129.51 31.3246 129.968 31.3704 130.334 31.3704C130.791 31.3704 131.249 31.3704 131.752 31.3704C132.255 31.3704 132.759 31.3246 133.262 31.3246C133.765 31.3246 134.223 31.2789 134.68 31.2789C135.138 31.2789 135.504 31.2332 135.824 31.2332V31.4618C135.138 31.5075 134.589 31.6446 134.131 31.7361C133.674 31.8732 133.308 32.0104 133.033 32.2389C132.759 32.4675 132.53 32.7418 132.393 33.1075C132.255 33.4732 132.164 33.8846 132.164 34.4332C132.164 34.7989 132.118 35.2561 132.118 35.8046C132.118 36.3532 132.118 36.9475 132.118 37.6789V48.5132C132.118 49.2446 132.118 49.9304 132.118 50.6618C132.118 51.3932 132.118 51.9418 132.164 52.3075C132.21 52.7646 132.301 53.1761 132.438 53.4961C132.576 53.8161 132.759 54.0904 133.079 54.2732C133.353 54.5018 133.765 54.6389 134.268 54.7761C134.772 54.9132 135.412 55.0046 136.19 55.0961V55.4161H136.144Z" fill="#1A1A18"/>
<path d="M165.243 53.9989C165.243 54.1818 165.243 54.3646 165.243 54.5932C165.243 54.8218 165.243 55.0046 165.243 55.2332C165.243 55.4618 165.197 55.6904 165.197 55.9189L164.831 56.0104C161.903 52.9475 159.158 50.0675 156.688 47.3704C155.636 46.2275 154.538 45.0846 153.44 43.9418C152.342 42.7989 151.335 41.7018 150.374 40.6961C149.414 39.6904 148.544 38.7761 147.812 37.9989C147.08 37.2218 146.486 36.5818 146.074 36.1246C146.074 36.3075 146.074 36.4446 146.074 36.4904C146.074 36.5361 146.074 36.6275 146.074 36.6732C146.074 36.7189 146.074 36.8561 146.074 36.9932C146.074 37.1304 146.074 37.4046 146.074 37.7704L146.028 43.7132L146.074 48.6046C146.074 49.2904 146.074 50.0218 146.074 50.7532C146.074 51.4846 146.074 52.0332 146.12 52.3989C146.165 52.8561 146.257 53.2675 146.394 53.5875C146.531 53.9075 146.714 54.1818 147.035 54.3646C147.309 54.5932 147.721 54.7304 148.224 54.8675C148.727 55.0046 149.368 55.0961 150.146 55.1875V55.4161C149.459 55.3704 148.682 55.3246 147.767 55.2789C146.897 55.2332 146.028 55.2332 145.205 55.2332C144.427 55.2332 143.603 55.2332 142.688 55.2789C141.773 55.3246 140.95 55.3704 140.264 55.4161V55.2332C140.858 55.1418 141.407 55.0504 141.865 54.9132C142.322 54.8218 142.734 54.6389 143.054 54.4104C143.375 54.1818 143.603 53.9075 143.786 53.5418C143.969 53.1761 144.061 52.7189 144.061 52.1246C144.061 51.6675 144.107 50.9361 144.107 49.9761C144.107 49.0161 144.107 47.9646 144.107 46.8675C144.107 45.7704 144.107 44.7189 144.107 43.7132C144.107 42.7075 144.107 41.9304 144.107 41.4275C144.107 40.9246 144.107 40.3304 144.107 39.7361C144.107 39.1418 144.107 38.5018 144.107 37.8618C144.107 37.2218 144.107 36.6275 144.107 36.0332C144.107 35.4389 144.061 34.9361 144.061 34.4789C144.061 33.8846 143.924 33.4275 143.786 33.0618C143.603 32.6961 143.375 32.4218 143.054 32.1932C142.734 31.9646 142.368 31.8275 141.865 31.6904C141.407 31.5989 140.858 31.4618 140.264 31.3704V31.1875C140.858 31.2332 141.316 31.2789 141.728 31.2789C142.094 31.2789 142.46 31.3246 142.734 31.3246C143.054 31.3246 143.329 31.3246 143.603 31.3246C143.878 31.3246 144.198 31.3246 144.564 31.3246C144.701 31.3246 144.884 31.3246 145.113 31.3246C145.342 31.3246 145.616 31.3246 145.845 31.2789C146.12 31.2789 146.348 31.2789 146.577 31.2332C146.806 31.2332 146.989 31.2332 147.126 31.2332C150.146 34.5704 152.799 37.5418 155.178 40.1475C156.185 41.2904 157.191 42.3875 158.152 43.4389C159.113 44.4904 160.028 45.4961 160.76 46.3189C161.537 47.1875 162.178 47.8732 162.635 48.4218C163.093 48.9704 163.367 49.2446 163.413 49.2904H163.459C163.505 49.2904 163.505 49.2904 163.505 49.2446C163.505 49.1989 163.505 48.8789 163.505 48.3304C163.505 47.7818 163.505 47.0961 163.505 46.3189C163.505 45.5418 163.505 44.7189 163.505 43.8046C163.505 42.9361 163.505 42.1132 163.505 41.4275C163.505 40.8789 163.505 40.3304 163.505 39.7361C163.505 39.1418 163.505 38.5018 163.505 37.9075C163.505 37.2675 163.505 36.6732 163.505 36.1246C163.505 35.5304 163.505 35.0275 163.459 34.5704C163.459 33.9761 163.322 33.5189 163.184 33.1532C163.001 32.7875 162.773 32.5132 162.452 32.2846C162.132 32.0561 161.766 31.9189 161.263 31.7818C160.805 31.6904 160.256 31.5532 159.662 31.4618V31.2789C160.028 31.2789 160.394 31.2789 160.851 31.2789C161.309 31.2789 161.72 31.3246 162.178 31.3246C162.635 31.3704 163.047 31.3704 163.505 31.4161C163.962 31.4161 164.328 31.4618 164.694 31.4618C165.563 31.4618 166.387 31.4618 167.165 31.4161C167.942 31.3704 168.674 31.3246 169.269 31.2789V31.5075C168.583 31.5532 168.034 31.6446 167.576 31.7818C167.119 31.9189 166.753 32.0561 166.478 32.2846C166.204 32.5132 165.975 32.7875 165.838 33.1532C165.701 33.5189 165.609 33.9304 165.609 34.4789C165.609 34.8446 165.563 35.3018 165.563 35.8504C165.563 36.3989 165.563 36.9932 165.563 37.7246L165.518 43.6675L165.243 53.9989Z" fill="#1A1A18"/>
<path d="M184 55.4161C183.634 55.4161 183.222 55.3704 182.764 55.3704C182.261 55.3704 181.758 55.3246 181.209 55.3246C180.66 55.3246 180.111 55.3246 179.608 55.2789C179.059 55.2789 178.601 55.2789 178.189 55.2789C177.778 55.2789 177.366 55.2789 176.863 55.2789C176.359 55.2789 175.856 55.3246 175.353 55.3246C174.85 55.3246 174.346 55.3704 173.843 55.3704C173.34 55.3704 172.928 55.4161 172.608 55.4161V55.2332C173.203 55.1418 173.752 55.0504 174.209 54.9132C174.667 54.8218 175.078 54.6389 175.353 54.4103C175.673 54.1818 175.902 53.9075 176.085 53.5418C176.268 53.1761 176.359 52.7189 176.359 52.1246C176.359 51.6675 176.405 50.9361 176.405 49.9761C176.405 49.0161 176.405 47.9646 176.405 46.8675C176.405 45.7703 176.405 44.7189 176.405 43.7132C176.405 42.7075 176.405 41.9304 176.405 41.4275C176.405 40.9246 176.405 40.3304 176.405 39.7361C176.405 39.1418 176.405 38.5018 176.405 37.8618C176.405 37.2218 176.405 36.6275 176.405 36.0332C176.405 35.4389 176.405 34.9361 176.359 34.4789C176.359 33.8846 176.222 33.4275 176.039 33.0618C175.856 32.6961 175.582 32.4218 175.261 32.1932C174.941 31.9646 174.529 31.8275 174.072 31.6904C173.614 31.5989 173.065 31.4618 172.471 31.3704V31.1875C172.837 31.1875 173.248 31.1875 173.752 31.1875C174.255 31.1875 174.758 31.2332 175.307 31.2332C175.856 31.2789 176.359 31.2789 176.863 31.3246C177.366 31.3246 177.823 31.3704 178.189 31.3704C178.647 31.3704 179.104 31.3704 179.608 31.3704C180.111 31.3704 180.614 31.3246 181.117 31.3246C181.621 31.3246 182.078 31.2789 182.536 31.2789C182.993 31.2789 183.359 31.2332 183.679 31.2332V31.4618C182.993 31.5075 182.444 31.6446 181.987 31.7361C181.529 31.8732 181.163 32.0104 180.889 32.2389C180.614 32.4675 180.385 32.7418 180.248 33.1075C180.111 33.4732 180.019 33.8846 180.019 34.4332C180.019 34.7989 179.974 35.2561 179.974 35.8046C179.974 36.3532 179.974 36.9475 179.974 37.6789V48.5132C179.974 49.2446 179.974 49.9304 179.974 50.6618C179.974 51.3932 179.974 51.9418 180.019 52.3075C180.065 52.7646 180.157 53.1761 180.294 53.4961C180.431 53.8161 180.66 54.0904 180.934 54.2732C181.209 54.5018 181.621 54.6389 182.124 54.7761C182.627 54.9132 183.268 55.0046 184.045 55.0961V55.4161H184Z" fill="#1A1A18"/>
<path d="M47.8945 55.0971C47.8945 55.1429 48.1233 54.8686 48.5808 54.2286C48.9925 53.5886 49.5873 52.7657 50.2735 51.76C50.9598 50.7543 51.7375 49.5657 52.6525 48.1943C53.5218 46.8686 54.4368 45.4971 55.3518 44.08C57.502 40.7886 59.9268 37.0857 62.6718 32.88L58.5543 32.7886L53.7505 32.8343C53.0643 32.8343 52.5153 32.88 52.0578 33.0171C51.646 33.1086 51.28 33.2914 50.9598 33.5657C50.6853 33.84 50.4108 34.16 50.1363 34.5257C49.9075 34.9371 49.5873 35.3943 49.267 35.9886L49.0383 35.8057C49.0383 35.76 49.084 35.3943 49.2213 34.8457C49.3585 34.2514 49.4958 33.6114 49.6788 32.9257C49.8618 32.1486 50.0905 31.2343 50.365 30.1829L50.548 30C50.731 30.32 50.9598 30.5943 51.28 30.7771C51.6003 30.96 51.9205 31.0971 52.2408 31.1429C52.561 31.2343 52.927 31.28 53.293 31.28C53.659 31.28 53.9793 31.3257 54.208 31.3257L60.1555 31.3714L67.7958 31.3257L67.9788 31.5543L58.3713 45.9086C55.855 49.3829 54.94 51.2571 50.6853 54.0457L50.7768 54.1829C59.515 51.9886 62.9463 59.2114 70.861 59.8057C71.5473 59.8514 72.1878 59.8514 72.691 59.8514C74.155 59.76 75.3445 59.5314 76.351 59.0743C77.3575 58.6629 78.2725 58.0686 79.1418 57.3829C79.2333 57.2914 79.279 57.2457 79.3705 57.1543C79.462 57.0629 79.5078 57.0171 79.5535 56.9714L79.7365 57.1543C79.5993 57.2914 79.5078 57.4286 79.462 57.4743C79.0045 57.9314 78.4555 58.4343 77.8608 58.9371C77.266 59.44 76.5798 59.8971 75.7563 60.3086C74.9785 60.72 74.0635 61.0857 73.057 61.36C72.0505 61.6343 70.9525 61.8171 69.7173 61.9086C68.7108 61.9543 67.75 61.9543 66.835 61.8629C59.332 61.04 56.4955 54.7771 48.0318 55.3714L47.8945 55.0971Z" fill="#1A1A18"/>
<path d="M46.1095 55.4186C45.652 55.4186 45.1945 55.3729 44.6912 55.3272C44.2337 55.2815 43.7762 55.2358 43.1815 55.2358C42.6325 55.2358 42.0377 55.19 41.3972 55.19C40.894 55.19 40.3907 55.19 39.796 55.2358C39.247 55.2358 38.698 55.2815 38.1947 55.3272C37.6915 55.3729 37.1882 55.3729 36.7307 55.4186C36.2732 55.4186 35.8615 55.4643 35.5412 55.4643V55.2358C36.7307 55.0529 37.4627 54.7329 37.8287 54.3215C38.1947 53.8643 38.1947 53.1329 37.8287 52.0358C37.6457 51.5329 37.417 50.9386 37.1882 50.2986C36.9595 49.6129 36.7307 49.0186 36.502 48.4243C36.0902 47.2358 32.8877 38.8243 31.9727 36.4929C31.9727 36.4472 31.927 36.4015 31.927 36.31C31.927 36.2186 31.8812 36.1729 31.8355 36.1729C31.7897 36.1729 31.744 36.2186 31.744 36.31C28.999 43.7158 29.0447 43.6243 27.2605 48.6986C27.0317 49.3386 26.803 49.8872 26.62 50.4815C26.437 51.03 26.2997 51.3958 26.254 51.5786C26.1625 51.9443 26.0252 52.2643 25.9337 52.63C25.8422 52.95 25.7965 53.2243 25.7965 53.4529C25.7965 53.7729 25.888 54.0472 26.0252 54.3215C26.1625 54.55 26.3912 54.7329 26.62 54.87C26.8487 55.0072 27.1232 55.1443 27.3977 55.19C27.6722 55.2815 27.9925 55.3272 28.267 55.3272V55.5558L23.875 55.3272C23.8292 55.3272 23.6005 55.3272 23.2345 55.3729C22.8227 55.3729 22.411 55.4186 21.862 55.4643C21.3587 55.51 20.8555 55.51 20.398 55.5558C19.9405 55.6015 19.5745 55.6015 19.3457 55.6015V55.3729C20.0777 55.2358 20.6725 55.0529 21.13 54.87C21.5875 54.6872 22.045 54.4129 22.3652 54.0929C22.7312 53.7729 23.0057 53.3615 23.2802 52.8586C23.5547 52.3558 23.8292 51.7615 24.1037 51.0758C24.241 50.7558 24.4697 50.2072 24.7442 49.43C25.0645 48.6529 25.4305 47.7843 25.8422 46.7329C26.254 45.6815 26.7115 44.5843 27.2147 43.3958C27.718 42.2072 28.2212 40.9729 28.6787 39.7386C29.8225 36.9043 31.1035 33.7958 32.476 30.3672H32.7505L41.3972 51.2129C41.8547 52.3558 42.4495 53.27 43.2272 54.0472C43.9592 54.8243 44.92 55.2358 46.1095 55.3729V55.4186Z" fill="#1A1A18"/>
</svg>
