<svg width="221" height="92" viewBox="0 0 221 92" fill="none" xmlns="http://www.w3.org/2000/svg">
<path d="M1.71519 49.5159L2.02705 49.6733C2.02705 49.8569 2.06603 50.0274 2.15698 50.1717C2.29992 50.421 2.58578 50.6702 3.01458 50.9063C3.44338 51.1424 3.92415 51.3654 4.4699 51.549C5.01564 51.7327 5.60036 51.8901 6.19808 52.0082C6.7958 52.1262 7.34154 52.1787 7.80932 52.1787C8.16016 52.1787 8.61495 52.1524 9.17368 52.1C9.73242 52.0475 10.2782 51.9426 10.8239 51.772C11.3567 51.6015 11.8244 51.3785 12.2272 51.0768C12.6171 50.7882 12.812 50.3947 12.812 49.9094C12.812 49.424 12.6301 49.0699 12.2662 48.8469C11.9024 48.6108 11.4216 48.4534 10.8369 48.3484C10.2522 48.2435 9.57649 48.1779 8.82285 48.1386C8.0692 48.1123 7.28957 48.0598 6.50994 47.9943C5.71731 47.9287 4.95067 47.8237 4.19702 47.6794C3.44338 47.5352 2.7677 47.2859 2.18297 46.9449C1.59825 46.6038 1.11747 46.1316 0.753645 45.5282C0.389816 44.9379 0.207902 44.1509 0.207902 43.1933C0.207902 42.5506 0.363829 41.9078 0.662688 41.2782C0.961547 40.6486 1.42933 40.0977 2.04004 39.6123C2.66375 39.127 3.44338 38.7335 4.40493 38.4318C5.35348 38.1301 6.47095 37.9727 7.75735 37.9727C8.84883 37.9727 9.81038 38.0514 10.616 38.2219C11.4216 38.3924 12.1233 38.5629 12.708 38.7597C13.2927 38.9433 13.7995 39.127 14.2023 39.2975C14.6051 39.468 14.943 39.5467 15.2158 39.5467C15.5017 39.5467 15.7096 39.4811 15.8395 39.3631L16.2164 39.6123L14.0724 43.5344L13.7605 43.4032C13.7215 43.1146 13.6306 42.8654 13.5136 42.6818C13.3447 42.4325 13.0718 42.1833 12.695 41.9472C12.3052 41.7111 11.8634 41.4881 11.3437 41.3044C10.8239 41.1208 10.2652 40.9634 9.66745 40.8453C9.06973 40.7273 8.47201 40.6748 7.8613 40.6748C7.40651 40.6748 6.93873 40.7142 6.44497 40.7798C5.9512 40.8585 5.5224 40.9634 5.11959 41.1077C4.72977 41.252 4.40493 41.4487 4.14505 41.6848C3.88517 41.921 3.75523 42.2227 3.75523 42.5768C3.75523 43.0753 3.93715 43.4557 4.30098 43.7049C4.6648 43.9541 5.14558 44.1378 5.7303 44.269C6.31503 44.4001 6.99071 44.4788 7.74436 44.5182C8.498 44.5575 9.27763 44.61 10.0573 44.6756C10.8499 44.7412 11.6165 44.8461 12.3702 45.0035C13.1238 45.1609 13.7995 45.4102 14.3842 45.7512C14.969 46.0923 15.4497 46.5645 15.8136 47.1416C16.1774 47.7319 16.3593 48.4927 16.3593 49.4372C16.3593 50.5259 16.0734 51.4179 15.5017 52.1C14.93 52.7952 14.2283 53.333 13.3707 53.7265C12.5261 54.12 11.6035 54.3955 10.616 54.5267C9.62847 54.6578 8.7189 54.7365 7.8613 54.7365C6.67886 54.7365 5.69132 54.671 4.89869 54.5267C4.10607 54.3955 3.44338 54.225 2.91063 54.0282C2.37788 53.8315 1.96208 53.6478 1.65022 53.4904C1.33837 53.333 1.0655 53.2543 0.844602 53.2543C0.70167 53.2543 0.558737 53.333 0.441792 53.5035L0 53.2543L1.71519 49.4634V49.5159Z" fill="#13110C"/>
<path d="M19.0221 54.1207C19.269 54.0813 19.4769 53.9633 19.6328 53.7665C19.7887 53.5697 19.9057 53.3861 19.9836 53.2156L24.6095 43.0234C24.7394 42.7349 24.8303 42.4987 24.9083 42.3151C24.9863 42.1315 25.0123 41.9609 25.0123 41.8035C25.0123 41.6724 24.9863 41.5937 24.9343 41.5674C24.8823 41.5412 24.8303 41.5018 24.7654 41.4625V40.8984H29.4562V41.4625C29.4562 41.4625 29.3262 41.5412 29.2483 41.5543C29.1703 41.5805 29.1443 41.6592 29.1443 41.8035C29.1443 41.9347 29.1963 42.079 29.2873 42.2626C29.3782 42.4463 29.4822 42.643 29.5861 42.8791L34.6147 53.5435C34.7187 53.7271 34.8356 53.8714 34.9526 53.9501C35.0825 54.0288 35.2125 54.0944 35.3554 54.1338V54.6978H30.9375V54.2256C31.0414 54.2256 31.1454 54.1994 31.2623 54.1338C31.3793 54.0682 31.4312 53.9633 31.4312 53.7927C31.4312 53.6616 31.4053 53.5566 31.3663 53.4517C31.3273 53.3467 31.2753 53.2156 31.2103 53.045L30.3657 51.2611H23.7129L22.8423 52.9532C22.7643 53.1237 22.6994 53.268 22.6474 53.4123C22.5954 53.5435 22.5694 53.6747 22.5694 53.7796C22.5694 53.9501 22.6214 54.0551 22.7253 54.0944C22.8293 54.1338 22.9722 54.16 23.1541 54.16V54.7241H18.9961V54.16L19.0221 54.1207ZM29.4042 48.9131L26.8834 43.64L24.6744 48.9131H29.4042Z" fill="#13110C"/>
<path d="M38.7225 41.9216C38.7225 41.7511 38.6445 41.633 38.4886 41.5674C38.3327 41.4887 38.1767 41.4625 38.0078 41.4625V40.8984H47.6753C48.4679 40.8984 49.1436 40.9903 49.7153 41.187C50.287 41.3707 50.7548 41.633 51.1446 41.9609C51.5344 42.2889 51.8203 42.6562 52.0022 43.0759C52.1841 43.4957 52.2881 43.9285 52.2881 44.3876C52.2881 44.768 52.2231 45.1091 52.1062 45.437C51.9762 45.7649 51.8203 46.0535 51.6254 46.3159C51.4305 46.5782 51.2096 46.8143 50.9757 47.0242C50.7418 47.2341 50.4949 47.4046 50.248 47.5227V47.5489C50.5339 47.6801 50.8328 47.8375 51.1186 48.0474C51.4045 48.2572 51.6644 48.5065 51.8983 48.795C52.1322 49.0836 52.3141 49.4247 52.457 49.8051C52.5999 50.1855 52.6779 50.5921 52.6779 51.025C52.6779 51.5234 52.587 51.9957 52.392 52.4416C52.2101 52.8745 51.9113 53.268 51.5085 53.596C51.1056 53.9239 50.5729 54.1994 49.9232 54.3961C49.2735 54.5929 48.4939 54.6978 47.5713 54.6978H38.0338V54.1338C38.2027 54.1338 38.3586 54.0944 38.5146 54.0288C38.6705 53.9501 38.7485 53.8321 38.7485 53.6747V41.9216H38.7225ZM47.2335 46.3421C47.7272 46.3421 48.195 46.2372 48.6368 46.0273C49.0656 45.8174 49.2865 45.3845 49.2865 44.7418C49.2865 44.4139 49.2215 44.1384 49.1046 43.9416C48.9747 43.7449 48.8187 43.5875 48.6368 43.4694C48.4549 43.3514 48.234 43.2858 47.9871 43.2464C47.7402 43.2202 47.4933 43.194 47.2465 43.194H41.7111V46.329H47.2465L47.2335 46.3421ZM47.1685 52.3629C48.1171 52.3629 48.7797 52.2055 49.1306 51.8907C49.4814 51.5759 49.6633 51.143 49.6633 50.579C49.6633 49.9362 49.4294 49.4509 48.9746 49.1361C48.5199 48.8213 47.7532 48.6639 46.6747 48.6639H41.6981V52.3629H47.1685Z" fill="#13110C"/>
<path d="M65.8142 40.8828C67.6594 40.8828 69.1017 41.1976 70.1282 41.8141C71.1677 42.4307 71.6875 43.48 71.6875 44.9623C71.6875 45.5263 71.5835 46.0248 71.3756 46.4708C71.1677 46.9036 70.8949 47.2972 70.557 47.612C70.2192 47.9399 69.8424 48.2023 69.4265 48.399C69.0107 48.5958 68.5819 48.7532 68.1531 48.8581L71.1937 53.3442C71.3626 53.5803 71.5445 53.7509 71.7395 53.8558C71.9344 53.9739 72.1423 54.0657 72.3762 54.1182V54.6822H67.6204V54.1182C67.8933 54.1182 68.0232 54.0263 68.0232 53.8296C68.0232 53.6197 67.8673 53.2918 67.5554 52.8589L65.0996 49.1598H60.7856V53.6459C60.7856 53.8165 60.8506 53.9345 60.9805 54.0001C61.1105 54.0788 61.2404 54.105 61.3703 54.105V54.6691H57.2383V54.105C57.6151 54.105 57.797 53.9476 57.797 53.6328V41.9191C57.797 41.6043 57.6151 41.4469 57.2383 41.4469V40.8828H65.8142ZM65.7493 46.8381C67.7763 46.8381 68.7898 46.1953 68.7898 44.8967C68.7898 44.372 68.543 43.9654 68.0622 43.6637C67.5814 43.362 66.8018 43.2046 65.7493 43.2046H60.8376V46.8381H65.7493Z" fill="#13110C"/>
<path d="M76.5996 54.1207C76.9245 54.1207 77.1583 54.0813 77.2883 54.0157C77.4182 53.937 77.4702 53.819 77.4702 53.6616V41.9216C77.4702 41.7511 77.4052 41.633 77.2883 41.5674C77.1583 41.4887 76.9375 41.4625 76.5996 41.4625V40.8984H81.3294V41.4625C80.7447 41.4625 80.4588 41.6199 80.4588 41.9347V53.6484C80.4588 53.9633 80.7447 54.1207 81.3294 54.1207V54.6847H76.5996V54.1207Z" fill="#13110C"/>
<path d="M86.6699 54.1182C87.0467 54.1182 87.2287 53.9607 87.2287 53.6459V41.9191C87.2287 41.6043 87.0467 41.4469 86.6699 41.4469V40.8828H91.2438V41.4469C91.1008 41.4731 91.0229 41.5256 91.0229 41.6043C91.0229 41.7092 91.2438 41.9978 91.7116 42.4569L99.17 50.4191V41.9191C99.17 41.6043 98.9621 41.4469 98.5463 41.4469V40.8828H102.341V41.4469C101.964 41.4469 101.782 41.6043 101.782 41.9191V53.6459C101.782 53.9607 101.964 54.1182 102.341 54.1182V54.6822H98.2995V54.1182C98.4424 54.1182 98.5203 54.0657 98.5203 53.9607C98.5203 53.882 98.4164 53.7246 98.2215 53.5148C98.0266 53.3049 97.8057 53.0688 97.5588 52.7933L89.8534 44.5163V53.6459C89.8534 53.9607 90.0743 54.1182 90.5031 54.1182V54.6822H86.6829V54.1182H86.6699Z" fill="#13110C"/>
<path d="M105.342 54.1207C105.589 54.0813 105.797 53.9633 105.953 53.7665C106.109 53.5697 106.226 53.3861 106.304 53.2156L110.93 43.0234C111.06 42.7349 111.151 42.4987 111.229 42.3151C111.307 42.1315 111.333 41.9609 111.333 41.8035C111.333 41.6724 111.307 41.5937 111.255 41.5674C111.203 41.5412 111.151 41.5018 111.086 41.4625V40.8984H115.776V41.4625C115.776 41.4625 115.647 41.5412 115.569 41.5543C115.491 41.5805 115.465 41.6592 115.465 41.8035C115.465 41.9347 115.517 42.079 115.608 42.2626C115.699 42.4463 115.802 42.643 115.906 42.8791L120.935 53.5435C121.039 53.7271 121.156 53.8714 121.273 53.9501C121.403 54.0288 121.533 54.0944 121.676 54.1338V54.6978H117.258V54.2256C117.362 54.2256 117.466 54.1994 117.583 54.1338C117.7 54.0682 117.752 53.9633 117.752 53.7927C117.752 53.6616 117.726 53.5566 117.687 53.4517C117.648 53.3467 117.596 53.2156 117.531 53.045L116.686 51.2611H110.033L109.163 52.9532C109.085 53.1237 109.007 53.268 108.955 53.4123C108.903 53.5435 108.877 53.6747 108.877 53.7796C108.877 53.9501 108.929 54.0551 109.033 54.0944C109.137 54.1338 109.28 54.16 109.474 54.16V54.7241H105.316V54.16L105.342 54.1207ZM115.725 48.9131L113.204 43.64L110.995 48.9131H115.712H115.725Z" fill="#13110C"/>
<path d="M135.514 49.5159L135.826 49.6733C135.826 49.8569 135.865 50.0274 135.956 50.1717C136.099 50.421 136.385 50.6702 136.813 50.9063C137.242 51.1424 137.723 51.3654 138.269 51.549C138.814 51.7327 139.386 51.8901 139.997 52.0082C140.595 52.1262 141.14 52.1787 141.608 52.1787C141.959 52.1787 142.414 52.1524 142.973 52.1C143.531 52.0475 144.077 51.9426 144.623 51.772C145.155 51.6015 145.623 51.3785 146.026 51.0768C146.416 50.7882 146.611 50.3947 146.611 49.9094C146.611 49.424 146.429 49.0699 146.065 48.8469C145.701 48.6108 145.22 48.4534 144.636 48.3484C144.051 48.2435 143.375 48.1779 142.622 48.1386C141.868 48.1123 141.088 48.0598 140.309 47.9943C139.516 47.9287 138.749 47.8237 137.996 47.6794C137.242 47.5352 136.567 47.2859 135.982 46.9449C135.397 46.6038 134.916 46.1316 134.552 45.5282C134.189 44.9379 134.007 44.1509 134.007 43.1933C134.007 42.5506 134.163 41.9078 134.462 41.2782C134.76 40.6486 135.228 40.0977 135.839 39.6123C136.463 39.127 137.242 38.7335 138.204 38.4318C139.152 38.1301 140.27 37.9727 141.556 37.9727C142.661 37.9727 143.609 38.0514 144.415 38.2219C145.22 38.3924 145.922 38.5629 146.507 38.7597C147.092 38.9433 147.598 39.127 148.001 39.2975C148.404 39.468 148.742 39.5467 149.015 39.5467C149.301 39.5467 149.508 39.4811 149.638 39.3631L150.015 39.6123L147.871 43.5344L147.559 43.4032C147.52 43.1146 147.429 42.8654 147.312 42.6818C147.144 42.4325 146.871 42.1833 146.494 41.9472C146.104 41.7111 145.662 41.4881 145.142 41.3044C144.623 41.1208 144.064 40.9634 143.466 40.8453C142.869 40.7273 142.271 40.6748 141.66 40.6748C141.205 40.6748 140.738 40.7142 140.244 40.7798C139.763 40.8585 139.321 40.9634 138.918 41.1077C138.529 41.252 138.204 41.4487 137.944 41.6848C137.684 41.921 137.554 42.2227 137.554 42.5768C137.554 43.0753 137.736 43.4557 138.1 43.7049C138.464 43.9541 138.944 44.1378 139.529 44.269C140.114 44.4001 140.79 44.4788 141.543 44.5182C142.297 44.5575 143.063 44.61 143.856 44.6756C144.649 44.7412 145.415 44.8461 146.169 45.0035C146.923 45.1609 147.598 45.4102 148.183 45.7512C148.768 46.0923 149.249 46.5645 149.612 47.1416C149.976 47.7319 150.158 48.4927 150.158 49.4372C150.158 50.5259 149.872 51.4179 149.301 52.1C148.729 52.7952 148.027 53.333 147.17 53.7265C146.325 54.12 145.402 54.3955 144.415 54.5267C143.427 54.6578 142.518 54.7365 141.66 54.7365C140.478 54.7365 139.49 54.671 138.698 54.5267C137.905 54.3955 137.242 54.225 136.709 54.0282C136.177 53.8315 135.761 53.6478 135.449 53.4904C135.137 53.333 134.864 53.2543 134.643 53.2543C134.5 53.2543 134.358 53.333 134.241 53.5035L133.799 53.2543L135.514 49.4634V49.5159Z" fill="#13110C"/>
<path d="M165.685 44.8326C165.685 44.8326 165.685 44.7539 165.672 44.7014C165.672 44.662 165.659 44.6096 165.659 44.544C165.659 44.439 165.555 44.2948 165.348 44.1242C165.14 43.9406 164.841 43.7701 164.464 43.6127C164.074 43.4421 163.632 43.311 163.113 43.1929C162.593 43.0748 162.021 43.0224 161.41 43.0224C160.657 43.0224 159.981 43.1273 159.37 43.3241C158.76 43.5208 158.227 43.8225 157.772 44.216C157.317 44.6096 156.966 45.108 156.72 45.6852C156.473 46.2755 156.343 46.9444 156.343 47.6921C156.343 48.4398 156.486 49.1219 156.759 49.7122C157.044 50.3025 157.408 50.8272 157.863 51.2469C158.318 51.6798 158.838 51.9946 159.422 52.2176C160.007 52.4406 160.592 52.5455 161.19 52.5455C161.748 52.5455 162.32 52.4668 162.905 52.3225C163.489 52.1782 164.009 52.0077 164.49 51.811C164.971 51.6142 165.361 51.4043 165.659 51.1682C165.958 50.9321 166.114 50.7353 166.114 50.5386V50.2894C166.114 50.1582 166.114 50.0532 166.088 49.9745L166.426 49.6597L168.726 52.9915L168.414 53.1489C168.167 53.044 167.985 52.9915 167.881 52.9915C167.712 52.9915 167.453 53.0833 167.076 53.267C166.699 53.4506 166.231 53.6736 165.659 53.9097C165.088 54.1458 164.425 54.3557 163.671 54.5262C162.918 54.6968 162.073 54.7755 161.138 54.7755C160.202 54.7755 159.24 54.6443 158.305 54.3688C157.369 54.0934 156.538 53.6605 155.823 53.0702C155.095 52.4799 154.511 51.7323 154.056 50.8403C153.601 49.9483 153.367 48.9252 153.367 47.7446C153.367 46.564 153.588 45.554 154.056 44.6752C154.511 43.7963 155.108 43.0617 155.862 42.4583C156.603 41.8681 157.46 41.4221 158.422 41.1204C159.383 40.8318 160.371 40.6875 161.384 40.6875C162.177 40.6875 162.892 40.7662 163.541 40.9105C164.191 41.0548 164.776 41.2253 165.27 41.409C165.763 41.5926 166.179 41.7631 166.517 41.9074C166.855 42.0517 167.089 42.1304 167.232 42.1304C167.336 42.1304 167.427 42.1042 167.492 42.0386C167.569 41.973 167.647 41.9205 167.725 41.8812L168.102 42.1042L166.049 45.0818L165.711 44.8326H165.685Z" fill="#13110C"/>
<path d="M170.102 54.1207C170.349 54.0813 170.557 53.9633 170.713 53.7665C170.869 53.5697 170.986 53.3861 171.064 53.2156L175.69 43.0234C175.819 42.7349 175.91 42.4987 175.988 42.3151C176.066 42.1315 176.092 41.9609 176.092 41.8035C176.092 41.6724 176.066 41.5937 176.014 41.5674C175.962 41.5412 175.91 41.5018 175.845 41.4625V40.8984H180.536V41.4625C180.536 41.4625 180.406 41.5412 180.328 41.5543C180.25 41.5805 180.224 41.6592 180.224 41.8035C180.224 41.9347 180.276 42.079 180.367 42.2626C180.458 42.4463 180.562 42.643 180.666 42.8791L185.695 53.5435C185.799 53.7271 185.916 53.8714 186.033 53.9501C186.163 54.0288 186.293 54.0944 186.435 54.1338V54.6978H182.018V54.2256C182.122 54.2256 182.225 54.1994 182.342 54.1338C182.459 54.0682 182.511 53.9633 182.511 53.7927C182.511 53.6616 182.485 53.5566 182.446 53.4517C182.407 53.3467 182.355 53.2156 182.29 53.045L181.446 51.2611H174.793L173.922 52.9532C173.844 53.1237 173.766 53.268 173.714 53.4123C173.662 53.5435 173.637 53.6747 173.637 53.7796C173.637 53.9501 173.688 54.0551 173.792 54.0944C173.896 54.1338 174.039 54.16 174.234 54.16V54.7241H170.076V54.16L170.102 54.1207ZM180.484 48.9131L177.963 43.64L175.754 48.9131H180.484Z" fill="#13110C"/>
<path d="M193.777 40.8828V41.4469C193.296 41.4469 193.062 41.6043 193.062 41.9191V52.3604H201.457C201.703 52.3604 201.911 52.308 202.08 52.1899C202.249 52.0719 202.327 51.9144 202.327 51.7046H202.886V54.997H202.327C202.327 54.8265 202.249 54.7347 202.08 54.7084C201.911 54.6822 201.703 54.6822 201.457 54.6822H189.281V54.1182C189.814 54.1182 190.087 53.9607 190.087 53.6459V41.9191C190.087 41.6043 189.814 41.4469 189.281 41.4469V40.8828H193.79H193.777Z" fill="#13110C"/>
<path d="M204.654 54.1207C204.901 54.0813 205.109 53.9633 205.265 53.7665C205.421 53.5697 205.538 53.3861 205.616 53.2156L210.242 43.0234C210.372 42.7349 210.462 42.4987 210.54 42.3151C210.618 42.1315 210.644 41.9609 210.644 41.8035C210.644 41.6724 210.618 41.5937 210.566 41.5674C210.514 41.5412 210.462 41.5018 210.398 41.4625V40.8984H215.088V41.4625C215.088 41.4625 214.958 41.5412 214.88 41.5543C214.802 41.5805 214.776 41.6592 214.776 41.8035C214.776 41.9347 214.828 42.079 214.919 42.2626C215.01 42.4463 215.114 42.643 215.218 42.8791L220.247 53.5435C220.351 53.7271 220.468 53.8714 220.585 53.9501C220.715 54.0288 220.845 54.0944 220.988 54.1338V54.6978H216.57V54.2256C216.674 54.2256 216.778 54.1994 216.894 54.1338C217.011 54.0682 217.063 53.9633 217.063 53.7927C217.063 53.6616 217.037 53.5566 216.998 53.4517C216.959 53.3467 216.907 53.2156 216.842 53.045L215.998 51.2611H209.345L208.474 52.9532C208.396 53.1237 208.318 53.268 208.267 53.4123C208.215 53.5435 208.189 53.6747 208.189 53.7796C208.189 53.9501 208.241 54.0551 208.344 54.0944C208.448 54.1338 208.591 54.16 208.773 54.16V54.7241H204.615V54.16L204.654 54.1207ZM215.036 48.9131L212.516 43.64L210.307 48.9131H215.036Z" fill="#13110C"/>
</svg>
