<svg width="121" height="92" viewBox="0 0 121 92" fill="none" xmlns="http://www.w3.org/2000/svg">
<path d="M45.3015 37C37.3632 37 31.5437 43.0236 31.5437 50.9802C31.5437 59.3292 37.1655 64.9885 45.471 64.9885C50.8385 64.9885 55.754 62.383 57.8727 57.4521L51.008 54.9586C50.217 57.312 47.9005 58.5167 45.2732 58.5167C42.081 58.5167 39.5667 55.687 39.5667 52.7733H58.1835V50.616C58.1835 43.0236 53.4657 37 45.3015 37ZM39.821 47.7583C40.6685 44.8166 42.2505 43.3317 45.019 43.3317C48.0982 43.3317 49.9062 45.3769 49.9627 47.7583H39.821Z" fill="#3A3A3A"/>
<path d="M75.303 57.5922C71.6588 57.5922 69.992 56.3314 69.992 52.6612V37H61.291V53.922C61.291 61.6265 66.2913 64.9885 74.2295 64.9885C75.9528 64.9885 77.6195 64.8765 79.0885 64.6243C79.0885 64.6243 79.5688 64.5403 80.275 64.4002C78.4388 62.6071 77.3088 60.2257 77.1958 57.4801C76.546 57.5922 75.981 57.5922 75.303 57.5922Z" fill="#3A3A3A"/>
<path d="M113.186 57.5361C111.096 57.5361 109.373 59.1891 109.373 61.2623C109.373 63.3075 111.068 64.9885 113.186 64.9885C115.277 64.9885 117 63.3356 117 61.2623C117 59.2171 115.305 57.5361 113.186 57.5361Z" fill="#3A3A3A"/>
<path d="M107.028 58.4887C105.559 58.6568 105.05 58.2086 105.05 56.8918V46.5537C105.05 40.278 100.615 37.0841 93.4113 37.0841C85.9815 37.0841 82.083 40.9504 80.8965 45.7132L88.863 46.8899C89.3715 44.7046 90.8123 43.668 93.044 43.668C95.5865 43.668 96.8578 44.9287 96.8578 46.9179V47.3662L90.6992 48.3748C84.908 49.1872 80.1055 51.4286 80.1055 57.0039C80.1055 61.7387 84.0605 65.0166 89.5975 65.0166C93.1853 65.0166 96.3775 63.5317 98.2138 61.7106C99.6263 64.008 102.395 65.2687 107.197 64.5123C107.197 64.5123 106.406 63.0274 106.406 61.2904C106.406 60.2818 106.632 59.3292 107.028 58.4887ZM96.8578 54.8466C96.8578 57.5922 94.1457 59.1331 91.3772 59.1331C89.3997 59.1331 88.2415 58.1245 88.2415 56.4435C88.2415 54.5664 89.8518 53.838 92.0553 53.5018L96.8578 52.7734V54.8466Z" fill="#3A3A3A"/>
<path d="M18.916 47.5062C15.5825 46.8898 13.9722 46.4416 13.9722 44.9567C13.9722 43.724 15.2717 43.2197 17.3057 43.2197C20.0177 43.2197 22.7297 44.3964 24.8202 46.5256L29.2837 41.5947C29.2837 41.5947 29.0295 41.3145 28.7752 41.0624C26.4305 38.737 22.1647 37 17.3622 37C10.0455 37 5.61025 40.6421 5.61025 46.0774C5.61025 52.1569 10.4693 53.0535 14.9893 53.922C19.368 54.6784 21.176 55.0987 21.176 56.8917C21.176 58.3206 19.368 58.8249 17.1645 58.8249C14.1982 58.8249 10.6388 57.396 8.407 55.0146L4 60.3658C6.5425 63.2795 12.1078 65.0165 16.9103 65.0165C24.8485 65.0165 29.425 61.5985 29.425 55.7431C29.3967 49.6355 23.8597 48.4868 18.916 47.5062Z" fill="#3A3A3A"/>
</svg>
