<svg width="217" height="92" viewBox="0 0 217 92" fill="none" xmlns="http://www.w3.org/2000/svg">
<path fill-rule="evenodd" clip-rule="evenodd" d="M49.5774 50.728L53.7741 50.344L53.8223 50.728C53.967 51.88 54.2564 53.08 54.8835 54.04C55.5106 55 56.4754 55.624 57.4884 56.104C58.7908 56.68 60.1897 56.92 61.5886 56.92C62.7945 56.92 64.0005 56.776 65.1582 56.296C65.9783 55.96 66.7983 55.48 67.3772 54.712C67.8595 54.04 68.1007 53.32 68.1007 52.504C68.1007 51.736 67.9078 51.064 67.4254 50.44C66.8465 49.72 65.93 49.192 65.11 48.904C64.5311 48.664 63.9523 48.52 63.3734 48.376C62.3604 48.088 61.2992 47.848 60.2379 47.56C58.5496 47.128 56.3789 46.6 54.8353 45.736C53.6293 45.064 52.4716 44.2 51.7481 42.952C51.0245 41.8 50.7351 40.552 50.7351 39.208C50.7351 37.672 51.1692 36.28 51.9893 34.984C52.9058 33.592 54.16 32.632 55.6553 32.008C57.2954 31.288 59.0802 31 60.865 31C62.7463 31 64.6758 31.288 66.4124 32.056C67.956 32.728 69.2584 33.736 70.2232 35.176C71.1397 36.568 71.5739 38.152 71.6221 39.832V40.216L67.3772 40.552L67.3289 40.168C67.1842 38.68 66.6536 37.336 65.5441 36.376C64.2899 35.32 62.5051 35.08 61.0097 35.08C59.5626 35.08 57.6331 35.272 56.4271 36.232C55.6071 36.904 55.0765 37.768 55.0765 38.92C55.0765 39.784 55.3659 40.552 56.0412 41.128C57.006 42.04 60.1415 42.76 61.3474 43.048C62.6016 43.336 63.904 43.672 65.11 44.008C65.93 44.248 66.7501 44.488 67.5219 44.872C68.969 45.544 70.3197 46.504 71.2362 47.896C72.0562 49.192 72.4421 50.584 72.4421 52.12C72.4421 53.752 71.9598 55.24 71.0915 56.584C70.175 58.072 68.8243 59.128 67.2807 59.848C65.5441 60.664 63.7111 61 61.8298 61C59.6591 61 57.3919 60.712 55.3659 59.848C53.6776 59.08 52.2304 57.928 51.2174 56.344C50.2044 54.76 49.6738 52.936 49.6256 51.016L49.5774 50.728ZM195.449 47.512C195.883 47.8 196.317 48.088 196.703 48.424C197.909 49.528 198.922 50.872 199.79 52.264L205 60.568H199.453L195.69 54.52C194.87 53.224 194.002 51.88 193.085 50.68C192.603 50.056 191.976 49.336 191.3 48.904C190.818 48.568 190.287 48.328 189.757 48.184C189.178 48.04 188.406 48.04 187.779 48.04H183.92V60.616H179.482V31.528H192.12C193.905 31.528 196.172 31.672 197.861 32.344C199.26 32.92 200.321 33.88 201.141 35.176C201.961 36.52 202.347 38.056 202.347 39.64C202.347 41.704 201.72 43.528 200.321 45.016C199.115 46.36 197.282 47.128 195.449 47.512ZM184.016 43.96H191.493C192.699 43.96 194.146 43.864 195.256 43.48C196.076 43.192 196.751 42.712 197.185 41.944C197.62 41.224 197.861 40.456 197.861 39.64C197.861 38.44 197.427 37.432 196.558 36.664C195.449 35.656 193.712 35.464 192.313 35.464H183.968V43.96H184.016ZM160.718 52.024H149.719L146.68 60.568H141.953L152.855 31.48H157.341L168.966 60.568H163.95L160.718 52.024ZM151.07 48.184H159.27L156.617 40.888C156.087 39.448 155.556 37.96 155.074 36.472C154.736 37.816 154.35 39.16 153.868 40.456L151.07 48.184ZM126.903 52.792V31.528H131.196V60.616H126.855L112.962 39.304V60.616H108.669V31.528H113.01L126.903 52.792ZM12.0482 32.008V40.408C13.1095 38.056 15.1355 35.752 18.1745 33.544C18.898 33.016 19.6216 32.488 20.2487 32.056L12.0482 32.008ZM26.7608 32.008C24.2524 33.112 21.7923 34.552 19.3322 36.376C15.3767 39.256 14.026 41.752 15.3767 43.768C16.0037 44.728 17.1132 45.16 18.7051 44.968C19.7181 44.824 21.7441 44.248 24.8313 43.24C28.3527 42.088 31.0057 41.464 32.8388 41.368C35.0577 41.272 36.7943 41.8 38.0002 43V32.008H26.7608ZM32.3564 45.784C32.1152 45.784 31.9223 45.784 31.6811 45.832C30.4269 45.976 28.1597 46.552 24.8795 47.608C21.4546 48.712 18.898 49.288 17.2579 49.288C14.9908 49.336 13.3024 48.52 12.193 46.84C12.1447 46.744 12.0482 46.648 12 46.504V60.184H23.2394C25.6996 59.08 27.9668 57.832 29.9445 56.392C35.2024 52.552 37.0837 49.528 35.6366 47.272C35.0095 46.264 33.9 45.784 32.3564 45.784ZM38.0002 52.744C36.5531 54.808 34.2377 56.968 31.1505 59.224C30.7163 59.56 30.2339 59.896 29.7998 60.184H38.0002V52.744ZM87.9265 31.48H92.3644V60.568H87.9265V31.48Z" fill="#1B1918"/>
</svg>
