<svg width="214" height="92" viewBox="0 0 214 92" fill="none" xmlns="http://www.w3.org/2000/svg">
<g clip-path="url(#clip0_437_2822)">
<path d="M49.0084 60.2042C44.9959 60.2042 41.9999 58.951 39.2179 56.1314L39.0039 55.9225L40.7694 53.7817L41.0369 54.0428C43.5514 56.4969 46.0124 57.5412 49.0084 57.5412C53.1814 57.5412 56.1774 55.1393 56.1774 51.7975C56.1774 48.769 52.9674 47.9336 49.2759 46.9937C44.8889 45.8972 39.9134 44.644 39.9134 39.0048C39.9134 34.5665 43.6049 31.4336 48.9549 31.4336C53.4489 31.4336 56.0169 33 58.4779 35.3497L58.6919 35.5586L56.9264 37.8561L56.6589 37.595C54.4119 35.3497 52.4324 34.0966 48.9014 34.0966C46.0124 34.0966 42.6419 35.4019 42.6419 39.0048C42.6419 42.1377 45.9589 42.9732 49.7574 43.9652C54.1444 45.0618 59.0664 46.3149 59.0664 51.7453C59.0664 56.6535 54.8399 60.2042 49.0084 60.2042Z" fill="#4F3E35"/>
<path d="M98.5533 60.2027H98.4463C94.6478 60.1505 91.1703 58.6363 88.5488 55.9211C85.9808 53.2059 84.5898 49.603 84.5898 45.7391C84.6433 37.7502 90.7423 31.4844 98.5533 31.4844H98.6603C106.471 31.5366 112.517 37.9068 112.463 45.948C112.41 49.8119 110.965 53.4148 108.397 56.0777C105.776 58.7407 102.298 60.2027 98.5533 60.2027ZM98.5533 34.304C95.5038 34.304 92.7218 35.4527 90.6888 37.5936C88.6558 39.7344 87.5323 42.6062 87.4788 45.7391C87.4253 52.3182 92.1333 57.3309 98.4463 57.3831C98.4998 57.3831 98.4998 57.3831 98.5533 57.3831C104.813 57.3831 109.574 52.4749 109.628 45.8958C109.628 42.7629 108.558 39.8388 106.525 37.698C104.492 35.5049 101.656 34.304 98.6068 34.2518C98.6068 34.304 98.5533 34.304 98.5533 34.304Z" fill="#4F3E35"/>
<path d="M74.0487 59.8373H71.2132V35.1395H61.6367V32.4766H83.5717V35.1395H74.0487V59.8373Z" fill="#4F3E35"/>
<path d="M138.889 59.8392H135.358L127.226 48.9784H120.645V59.8392H117.863V32.2695H128.67C133.539 32.2695 137.391 35.9768 137.391 40.6762C137.391 44.6445 134.555 47.8819 130.543 48.5607L138.889 59.8392ZM120.645 46.3676H128.456C131.88 46.3676 134.555 43.8613 134.555 40.7284C134.555 37.491 131.88 34.9847 128.456 34.9847H120.645V46.3676Z" fill="#4F3E35"/>
<path d="M2.78591 59.8364H0.00390625V34.5643L2.78591 31.7969V59.8364Z" fill="#4F3E35"/>
<path d="M186.773 59.8392H168.262V32.2695H186.773V34.9325H171.044V44.3835H183.509V47.0464H171.044V57.124H186.773V59.8392Z" fill="#4F3E35"/>
<path d="M161.944 59.8392H143.594V32.2695H161.944V34.9325H146.376V44.3835H158.841V47.0464H146.376V57.124H161.944V59.8392Z" fill="#4F3E35"/>
<path d="M25.9018 59.8407H9.15625V57.6999L9.26325 57.5955C11.1892 55.5069 12.9012 53.7316 14.4528 52.1129C20.4983 45.7949 23.4943 42.6097 23.4943 39.0591C23.4943 37.6493 23.0128 36.4483 22.1568 35.6129C21.2473 34.7252 19.8563 34.2553 18.4118 34.3075C15.3088 34.4642 13.4362 35.5607 11.5102 38.3803L11.2963 38.6936L9.42375 37.0749L9.58425 36.8138C11.8847 33.7331 13.5433 31.8534 18.3048 31.6967C20.5518 31.5923 22.7452 32.3756 24.2432 33.8898C25.5807 35.1952 26.2763 36.9183 26.2227 38.8502C26.1693 43.654 22.4243 47.6224 15.5763 54.7759C14.8273 55.5591 14.0248 56.3945 13.1688 57.2822H28.4697L25.9018 59.8407Z" fill="#4F3E35"/>
<path d="M211.383 59.8392H192.926V58.0638L192.979 57.9594L209.19 34.9325H192.926V32.2695H213.202V34.0448L213.149 34.1493L196.938 57.2284H214.005L211.383 59.8392Z" fill="#4F3E35"/>
</g>
<defs>
<clipPath id="clip0_437_2822">
<rect width="214" height="92" fill="white"/>
</clipPath>
</defs>
</svg>
