<svg width="260" height="227" viewBox="0 0 260 227" fill="none" xmlns="http://www.w3.org/2000/svg">
<g style="mix-blend-mode:multiply">
<path d="M204.253 86.3199V130.012C204.253 145.762 191.347 158.647 175.571 158.647H107.301V112.895C107.301 98.2793 119.278 86.3184 133.918 86.3184H204.253V86.3199Z" fill="#FFE0ED"/>
</g>
<path d="M123.599 195.814L234.242 195.814C243.245 195.814 250.543 188.528 250.543 179.54V102.595C250.543 93.6072 243.245 86.3209 234.242 86.3209L123.599 86.3209C114.596 86.3209 107.298 93.6072 107.298 102.595V179.54C107.298 188.528 114.596 195.814 123.599 195.814Z" fill="url(#paint0_linear_159_3673)"/>
<path d="M225.139 195.646V222.378C225.139 224.639 222.463 225.837 220.773 224.332L188.527 195.646H225.139Z" fill="url(#paint1_linear_159_3673)"/>
<path d="M177.825 2.22656H27.2495C17.5481 2.22656 9.68359 10.0782 9.68359 19.7637V126.64C9.68359 136.326 17.5481 144.177 27.2495 144.177H177.825C187.527 144.177 195.391 136.326 195.391 126.64V19.7637C195.391 10.0782 187.527 2.22656 177.825 2.22656Z" fill="url(#paint2_linear_159_3673)"/>
<path d="M42.6188 143.959V178.614C42.6188 181.544 46.0882 183.098 48.2802 181.149L90.083 143.959H42.6172H42.6188Z" fill="url(#paint3_linear_159_3673)"/>
<path d="M55.4773 103.877C55.4773 103.877 43.4127 94.4071 41.4125 88.5841C39.4123 82.7611 40.8784 78.6027 45.9771 78.2799C51.0759 77.9555 54.5231 85.0618 54.5231 85.0618C54.5231 85.0618 59.5505 76.8304 64.2943 77.3273C69.0364 77.8241 70.073 82.6851 68.347 88.0477C66.6194 93.4087 55.4788 103.877 55.4788 103.877H55.4773Z" fill="white"/>
<path d="M102.669 103.877C102.669 103.877 90.6041 94.4071 88.6039 88.5841C86.6037 82.7611 88.0698 78.6027 93.1685 78.2799C98.2673 77.9555 101.715 85.0618 101.715 85.0618C101.715 85.0618 106.742 76.8304 111.486 77.3273C116.228 77.8241 117.264 82.6851 115.538 88.0477C113.811 93.4087 102.67 103.877 102.67 103.877H102.669Z" fill="white"/>
<path d="M148.274 103.877C148.274 103.877 136.21 94.4071 134.209 88.5841C132.209 82.7611 133.675 78.6027 138.774 78.2799C143.873 77.9555 147.32 85.0618 147.32 85.0618C147.32 85.0618 152.347 76.8304 157.091 77.3273C161.833 77.8241 162.87 82.6851 161.144 88.0477C159.416 93.4087 148.276 103.877 148.276 103.877H148.274Z" fill="white"/>
<defs>
<linearGradient id="paint0_linear_159_3673" x1="149.774" y1="120.343" x2="280.579" y2="213.654" gradientUnits="userSpaceOnUse">
<stop stop-color="#FF8488"/>
<stop offset="1" stop-color="#FEDCDC"/>
</linearGradient>
<linearGradient id="paint1_linear_159_3673" x1="163.198" y1="186.501" x2="258.62" y2="243.073" gradientUnits="userSpaceOnUse">
<stop stop-color="#FF9B9E"/>
<stop offset="1" stop-color="#FEDCDC"/>
</linearGradient>
<linearGradient id="paint2_linear_159_3673" x1="185.672" y1="129.684" x2="8.75485" y2="9.09318" gradientUnits="userSpaceOnUse">
<stop stop-color="#F01D24"/>
<stop offset="1" stop-color="#FF8F8F"/>
</linearGradient>
<linearGradient id="paint3_linear_159_3673" x1="129.101" y1="204.816" x2="-19.6125" y2="137.119" gradientUnits="userSpaceOnUse">
<stop stop-color="#F1252C"/>
<stop offset="1" stop-color="#FC7A7B"/>
</linearGradient>
</defs>
</svg>
