<svg viewBox="0 0 24 24" fill="none" xmlns="http://www.w3.org/2000/svg">
  <g clip-path="url(#clip0_161_5575)">
    <path d="M14.37 7.08H7.99321C7.7512 7.08063 7.5193 7.17705 7.34818 7.34817C7.17705 7.51929 7.08064 7.7512 7.08001 7.9932V14.37C7.08064 14.612 7.17705 14.8439 7.34818 15.015C7.5193 15.1862 7.7512 15.2826 7.99321 15.2832H14.37C14.6121 15.2829 14.8442 15.1866 15.0154 15.0154C15.1866 14.8442 15.2829 14.6121 15.2832 14.37V7.9932C15.2829 7.7511 15.1866 7.51901 15.0154 7.34782C14.8442 7.17663 14.6121 7.08032 14.37 7.08ZM14.37 7.08H7.99321C7.7512 7.08063 7.5193 7.17705 7.34818 7.34817C7.17705 7.51929 7.08064 7.7512 7.08001 7.9932V14.37C7.08064 14.612 7.17705 14.8439 7.34818 15.015C7.5193 15.1862 7.7512 15.2826 7.99321 15.2832H14.37C14.6121 15.2829 14.8442 15.1866 15.0154 15.0154C15.1866 14.8442 15.2829 14.6121 15.2832 14.37V7.9932C15.2829 7.7511 15.1866 7.51901 15.0154 7.34782C14.8442 7.17663 14.6121 7.08032 14.37 7.08ZM14.37 7.08H7.99321C7.7512 7.08063 7.5193 7.17705 7.34818 7.34817C7.17705 7.51929 7.08064 7.7512 7.08001 7.9932V14.37C7.08064 14.612 7.17705 14.8439 7.34818 15.015C7.5193 15.1862 7.7512 15.2826 7.99321 15.2832H14.37C14.6121 15.2829 14.8442 15.1866 15.0154 15.0154C15.1866 14.8442 15.2829 14.6121 15.2832 14.37V7.9932C15.2829 7.7511 15.1866 7.51901 15.0154 7.34782C14.8442 7.17663 14.6121 7.08032 14.37 7.08ZM14.37 7.08H7.99321C7.7512 7.08063 7.5193 7.17705 7.34818 7.34817C7.17705 7.51929 7.08064 7.7512 7.08001 7.9932V14.37C7.08064 14.612 7.17705 14.8439 7.34818 15.015C7.5193 15.1862 7.7512 15.2826 7.99321 15.2832H14.37C14.6121 15.2829 14.8442 15.1866 15.0154 15.0154C15.1866 14.8442 15.2829 14.6121 15.2832 14.37V7.9932C15.2829 7.7511 15.1866 7.51901 15.0154 7.34782C14.8442 7.17663 14.6121 7.08032 14.37 7.08ZM14.37 7.08H7.99321C7.7512 7.08063 7.5193 7.17705 7.34818 7.34817C7.17705 7.51929 7.08064 7.7512 7.08001 7.9932V14.37C7.08064 14.612 7.17705 14.8439 7.34818 15.015C7.5193 15.1862 7.7512 15.2826 7.99321 15.2832H14.37C14.6121 15.2829 14.8442 15.1866 15.0154 15.0154C15.1866 14.8442 15.2829 14.6121 15.2832 14.37V7.9932C15.2829 7.7511 15.1866 7.51901 15.0154 7.34782C14.8442 7.17663 14.6121 7.08032 14.37 7.08ZM14.37 7.08H7.99321C7.7512 7.08063 7.5193 7.17705 7.34818 7.34817C7.17705 7.51929 7.08064 7.7512 7.08001 7.9932V14.37C7.08064 14.612 7.17705 14.8439 7.34818 15.015C7.5193 15.1862 7.7512 15.2826 7.99321 15.2832H14.37C14.6121 15.2829 14.8442 15.1866 15.0154 15.0154C15.1866 14.8442 15.2829 14.6121 15.2832 14.37V7.9932C15.2829 7.7511 15.1866 7.51901 15.0154 7.34782C14.8442 7.17663 14.6121 7.08032 14.37 7.08ZM14.37 7.08H7.99321C7.7512 7.08063 7.5193 7.17705 7.34818 7.34817C7.17705 7.51929 7.08064 7.7512 7.08001 7.9932V14.37C7.08064 14.612 7.17705 14.8439 7.34818 15.015C7.5193 15.1862 7.7512 15.2826 7.99321 15.2832H14.37C14.6121 15.2829 14.8442 15.1866 15.0154 15.0154C15.1866 14.8442 15.2829 14.6121 15.2832 14.37V7.9932C15.2829 7.7511 15.1866 7.51901 15.0154 7.34782C14.8442 7.17663 14.6121 7.08032 14.37 7.08ZM14.37 7.08H7.99321C7.7512 7.08063 7.5193 7.17705 7.34818 7.34817C7.17705 7.51929 7.08064 7.7512 7.08001 7.9932V14.37C7.08064 14.612 7.17705 14.8439 7.34818 15.015C7.5193 15.1862 7.7512 15.2826 7.99321 15.2832H14.37C14.6121 15.2829 14.8442 15.1866 15.0154 15.0154C15.1866 14.8442 15.2829 14.6121 15.2832 14.37V7.9932C15.2829 7.7511 15.1866 7.51901 15.0154 7.34782C14.8442 7.17663 14.6121 7.08032 14.37 7.08ZM14.37 7.08H7.99321C7.7512 7.08063 7.5193 7.17705 7.34818 7.34817C7.17705 7.51929 7.08064 7.7512 7.08001 7.9932V14.37C7.08064 14.612 7.17705 14.8439 7.34818 15.015C7.5193 15.1862 7.7512 15.2826 7.99321 15.2832H14.37C14.6121 15.2829 14.8442 15.1866 15.0154 15.0154C15.1866 14.8442 15.2829 14.6121 15.2832 14.37V7.9932C15.2829 7.7511 15.1866 7.51901 15.0154 7.34782C14.8442 7.17663 14.6121 7.08032 14.37 7.08ZM14.37 7.08H7.99321C7.7512 7.08063 7.5193 7.17705 7.34818 7.34817C7.17705 7.51929 7.08064 7.7512 7.08001 7.9932V14.37C7.08064 14.612 7.17705 14.8439 7.34818 15.015C7.5193 15.1862 7.7512 15.2826 7.99321 15.2832H14.37C14.6121 15.2829 14.8442 15.1866 15.0154 15.0154C15.1866 14.8442 15.2829 14.6121 15.2832 14.37V7.9932C15.2829 7.7511 15.1866 7.51901 15.0154 7.34782C14.8442 7.17663 14.6121 7.08032 14.37 7.08ZM14.37 7.08H7.99321C7.7512 7.08063 7.5193 7.17705 7.34818 7.34817C7.17705 7.51929 7.08064 7.7512 7.08001 7.9932V14.37C7.08064 14.612 7.17705 14.8439 7.34818 15.015C7.5193 15.1862 7.7512 15.2826 7.99321 15.2832H14.37C14.6121 15.2829 14.8442 15.1866 15.0154 15.0154C15.1866 14.8442 15.2829 14.6121 15.2832 14.37V7.9932C15.2829 7.7511 15.1866 7.51901 15.0154 7.34782C14.8442 7.17663 14.6121 7.08032 14.37 7.08ZM14.37 7.08H7.99321C7.7512 7.08063 7.5193 7.17705 7.34818 7.34817C7.17705 7.51929 7.08064 7.7512 7.08001 7.9932V14.37C7.08064 14.612 7.17705 14.8439 7.34818 15.015C7.5193 15.1862 7.7512 15.2826 7.99321 15.2832H14.37C14.6121 15.2829 14.8442 15.1866 15.0154 15.0154C15.1866 14.8442 15.2829 14.6121 15.2832 14.37V7.9932C15.2829 7.7511 15.1866 7.51901 15.0154 7.34782C14.8442 7.17663 14.6121 7.08032 14.37 7.08ZM14.37 7.08H7.99321C7.7512 7.08063 7.5193 7.17705 7.34818 7.34817C7.17705 7.51929 7.08064 7.7512 7.08001 7.9932V14.37C7.08064 14.612 7.17705 14.8439 7.34818 15.015C7.5193 15.1862 7.7512 15.2826 7.99321 15.2832H14.37C14.6121 15.2829 14.8442 15.1866 15.0154 15.0154C15.1866 14.8442 15.2829 14.6121 15.2832 14.37V7.9932C15.2829 7.7511 15.1866 7.51901 15.0154 7.34782C14.8442 7.17663 14.6121 7.08032 14.37 7.08ZM14.37 7.08H7.99321C7.7512 7.08063 7.5193 7.17705 7.34818 7.34817C7.17705 7.51929 7.08064 7.7512 7.08001 7.9932V14.37C7.08064 14.612 7.17705 14.8439 7.34818 15.015C7.5193 15.1862 7.7512 15.2826 7.99321 15.2832H14.37C14.6121 15.2829 14.8442 15.1866 15.0154 15.0154C15.1866 14.8442 15.2829 14.6121 15.2832 14.37V7.9932C15.2829 7.7511 15.1866 7.51901 15.0154 7.34782C14.8442 7.17663 14.6121 7.08032 14.37 7.08ZM14.37 7.08H7.99321C7.7512 7.08063 7.5193 7.17705 7.34818 7.34817C7.17705 7.51929 7.08064 7.7512 7.08001 7.9932V14.37C7.08064 14.612 7.17705 14.8439 7.34818 15.015C7.5193 15.1862 7.7512 15.2826 7.99321 15.2832H14.37C14.6121 15.2829 14.8442 15.1866 15.0154 15.0154C15.1866 14.8442 15.2829 14.6121 15.2832 14.37V7.9932C15.2829 7.7511 15.1866 7.51901 15.0154 7.34782C14.8442 7.17663 14.6121 7.08032 14.37 7.08ZM14.37 7.08H7.99321C7.7512 7.08063 7.5193 7.17705 7.34818 7.34817C7.17705 7.51929 7.08064 7.7512 7.08001 7.9932V14.37C7.08064 14.612 7.17705 14.8439 7.34818 15.015C7.5193 15.1862 7.7512 15.2826 7.99321 15.2832H14.37C14.6121 15.2829 14.8442 15.1866 15.0154 15.0154C15.1866 14.8442 15.2829 14.6121 15.2832 14.37V7.9932C15.2829 7.7511 15.1866 7.51901 15.0154 7.34782C14.8442 7.17663 14.6121 7.08032 14.37 7.08ZM14.37 7.08H7.99321C7.7512 7.08063 7.5193 7.17705 7.34818 7.34817C7.17705 7.51929 7.08064 7.7512 7.08001 7.9932V14.37C7.08064 14.612 7.17705 14.8439 7.34818 15.015C7.5193 15.1862 7.7512 15.2826 7.99321 15.2832H14.37C14.6121 15.2829 14.8442 15.1866 15.0154 15.0154C15.1866 14.8442 15.2829 14.6121 15.2832 14.37V7.9932C15.2829 7.7511 15.1866 7.51901 15.0154 7.34782C14.8442 7.17663 14.6121 7.08032 14.37 7.08ZM14.37 7.08H7.99321C7.7512 7.08063 7.5193 7.17705 7.34818 7.34817C7.17705 7.51929 7.08064 7.7512 7.08001 7.9932V14.37C7.08064 14.612 7.17705 14.8439 7.34818 15.015C7.5193 15.1862 7.7512 15.2826 7.99321 15.2832H14.37C14.6121 15.2829 14.8442 15.1866 15.0154 15.0154C15.1866 14.8442 15.2829 14.6121 15.2832 14.37V7.9932C15.2829 7.7511 15.1866 7.51901 15.0154 7.34782C14.8442 7.17663 14.6121 7.08032 14.37 7.08ZM14.37 7.08H7.99321C7.7512 7.08063 7.5193 7.17705 7.34818 7.34817C7.17705 7.51929 7.08064 7.7512 7.08001 7.9932V14.37C7.08064 14.612 7.17705 14.8439 7.34818 15.015C7.5193 15.1862 7.7512 15.2826 7.99321 15.2832H14.37C14.6121 15.2829 14.8442 15.1866 15.0154 15.0154C15.1866 14.8442 15.2829 14.6121 15.2832 14.37V7.9932C15.2829 7.7511 15.1866 7.51901 15.0154 7.34782C14.8442 7.17663 14.6121 7.08032 14.37 7.08ZM14.37 7.08H7.99321C7.7512 7.08063 7.5193 7.17705 7.34818 7.34817C7.17705 7.51929 7.08064 7.7512 7.08001 7.9932V14.37C7.08064 14.612 7.17705 14.8439 7.34818 15.015C7.5193 15.1862 7.7512 15.2826 7.99321 15.2832H14.37C14.6121 15.2829 14.8442 15.1866 15.0154 15.0154C15.1866 14.8442 15.2829 14.6121 15.2832 14.37V7.9932C15.2829 7.7511 15.1866 7.51901 15.0154 7.34782C14.8442 7.17663 14.6121 7.08032 14.37 7.08ZM14.37 7.08H7.99321C7.7512 7.08063 7.5193 7.17705 7.34818 7.34817C7.17705 7.51929 7.08064 7.7512 7.08001 7.9932V14.37C7.08064 14.612 7.17705 14.8439 7.34818 15.015C7.5193 15.1862 7.7512 15.2826 7.99321 15.2832H14.37C14.6121 15.2829 14.8442 15.1866 15.0154 15.0154C15.1866 14.8442 15.2829 14.6121 15.2832 14.37V7.9932C15.2829 7.7511 15.1866 7.51901 15.0154 7.34782C14.8442 7.17663 14.6121 7.08032 14.37 7.08ZM14.37 7.08H7.99321C7.7512 7.08063 7.5193 7.17705 7.34818 7.34817C7.17705 7.51929 7.08064 7.7512 7.08001 7.9932V14.37C7.08064 14.612 7.17705 14.8439 7.34818 15.015C7.5193 15.1862 7.7512 15.2826 7.99321 15.2832H14.37C14.6121 15.2829 14.8442 15.1866 15.0154 15.0154C15.1866 14.8442 15.2829 14.6121 15.2832 14.37V7.9932C15.2829 7.7511 15.1866 7.51901 15.0154 7.34782C14.8442 7.17663 14.6121 7.08032 14.37 7.08ZM12 0C9.62663 0 7.30655 0.703788 5.33316 2.02236C3.35977 3.34094 1.8217 5.21509 0.913451 7.4078C0.00519937 9.60051 -0.232441 12.0133 0.230582 14.3411C0.693605 16.6689 1.83649 18.8071 3.51472 20.4853C5.19295 22.1635 7.33115 23.3064 9.65892 23.7694C11.9867 24.2324 14.3995 23.9948 16.5922 23.0866C18.7849 22.1783 20.6591 20.6402 21.9776 18.6668C23.2962 16.6935 24 14.3734 24 12C24 8.8174 22.7357 5.76516 20.4853 3.51472C18.2349 1.26428 15.1826 0 12 0ZM6.12001 14.37V7.9932C6.12032 7.49649 6.31778 7.02022 6.669 6.669C7.02023 6.31777 7.4965 6.12032 7.99321 6.12H14.37C14.8667 6.12032 15.343 6.31777 15.6942 6.669C16.0454 7.02022 16.2429 7.49649 16.2432 7.9932V14.37C16.2429 14.8667 16.0454 15.343 15.6942 15.6942C15.343 16.0454 14.8667 16.2429 14.37 16.2432H7.99321C7.4965 16.2429 7.02023 16.0454 6.669 15.6942C6.31778 15.343 6.12032 14.8667 6.12001 14.37ZM17.88 15.3024C17.8791 15.9857 17.6072 16.6408 17.124 17.124C16.6408 17.6072 15.9857 17.879 15.3024 17.88H9.72721C9.5999 17.88 9.47781 17.8294 9.38779 17.7394C9.29778 17.6494 9.24721 17.5273 9.24721 17.4C9.24721 17.2727 9.29778 17.1506 9.38779 17.0606C9.47781 16.9706 9.5999 16.92 9.72721 16.92H15.3024C15.7312 16.9194 16.1423 16.7487 16.4455 16.4455C16.7487 16.1423 16.9194 15.7312 16.92 15.3024V9.7272C16.92 9.5999 16.9706 9.47781 17.0606 9.38779C17.1506 9.29777 17.2727 9.2472 17.4 9.2472C17.5273 9.2472 17.6494 9.29777 17.7394 9.38779C17.8294 9.47781 17.88 9.5999 17.88 9.7272V15.3024ZM15.2832 14.37V7.9932C15.2829 7.7511 15.1866 7.51901 15.0154 7.34782C14.8442 7.17663 14.6121 7.08032 14.37 7.08H7.99321C7.7512 7.08063 7.5193 7.17705 7.34818 7.34817C7.17705 7.51929 7.08064 7.7512 7.08001 7.9932V14.37C7.08064 14.612 7.17705 14.8439 7.34818 15.015C7.5193 15.1862 7.7512 15.2826 7.99321 15.2832H14.37C14.6121 15.2829 14.8442 15.1866 15.0154 15.0154C15.1866 14.8442 15.2829 14.6121 15.2832 14.37ZM14.37 7.08H7.99321C7.7512 7.08063 7.5193 7.17705 7.34818 7.34817C7.17705 7.51929 7.08064 7.7512 7.08001 7.9932V14.37C7.08064 14.612 7.17705 14.8439 7.34818 15.015C7.5193 15.1862 7.7512 15.2826 7.99321 15.2832H14.37C14.6121 15.2829 14.8442 15.1866 15.0154 15.0154C15.1866 14.8442 15.2829 14.6121 15.2832 14.37V7.9932C15.2829 7.7511 15.1866 7.51901 15.0154 7.34782C14.8442 7.17663 14.6121 7.08032 14.37 7.08ZM14.37 7.08H7.99321C7.7512 7.08063 7.5193 7.17705 7.34818 7.34817C7.17705 7.51929 7.08064 7.7512 7.08001 7.9932V14.37C7.08064 14.612 7.17705 14.8439 7.34818 15.015C7.5193 15.1862 7.7512 15.2826 7.99321 15.2832H14.37C14.6121 15.2829 14.8442 15.1866 15.0154 15.0154C15.1866 14.8442 15.2829 14.6121 15.2832 14.37V7.9932C15.2829 7.7511 15.1866 7.51901 15.0154 7.34782C14.8442 7.17663 14.6121 7.08032 14.37 7.08ZM14.37 7.08H7.99321C7.7512 7.08063 7.5193 7.17705 7.34818 7.34817C7.17705 7.51929 7.08064 7.7512 7.08001 7.9932V14.37C7.08064 14.612 7.17705 14.8439 7.34818 15.015C7.5193 15.1862 7.7512 15.2826 7.99321 15.2832H14.37C14.6121 15.2829 14.8442 15.1866 15.0154 15.0154C15.1866 14.8442 15.2829 14.6121 15.2832 14.37V7.9932C15.2829 7.7511 15.1866 7.51901 15.0154 7.34782C14.8442 7.17663 14.6121 7.08032 14.37 7.08ZM14.37 7.08H7.99321C7.7512 7.08063 7.5193 7.17705 7.34818 7.34817C7.17705 7.51929 7.08064 7.7512 7.08001 7.9932V14.37C7.08064 14.612 7.17705 14.8439 7.34818 15.015C7.5193 15.1862 7.7512 15.2826 7.99321 15.2832H14.37C14.6121 15.2829 14.8442 15.1866 15.0154 15.0154C15.1866 14.8442 15.2829 14.6121 15.2832 14.37V7.9932C15.2829 7.7511 15.1866 7.51901 15.0154 7.34782C14.8442 7.17663 14.6121 7.08032 14.37 7.08ZM14.37 7.08H7.99321C7.7512 7.08063 7.5193 7.17705 7.34818 7.34817C7.17705 7.51929 7.08064 7.7512 7.08001 7.9932V14.37C7.08064 14.612 7.17705 14.8439 7.34818 15.015C7.5193 15.1862 7.7512 15.2826 7.99321 15.2832H14.37C14.6121 15.2829 14.8442 15.1866 15.0154 15.0154C15.1866 14.8442 15.2829 14.6121 15.2832 14.37V7.9932C15.2829 7.7511 15.1866 7.51901 15.0154 7.34782C14.8442 7.17663 14.6121 7.08032 14.37 7.08ZM14.37 7.08H7.99321C7.7512 7.08063 7.5193 7.17705 7.34818 7.34817C7.17705 7.51929 7.08064 7.7512 7.08001 7.9932V14.37C7.08064 14.612 7.17705 14.8439 7.34818 15.015C7.5193 15.1862 7.7512 15.2826 7.99321 15.2832H14.37C14.6121 15.2829 14.8442 15.1866 15.0154 15.0154C15.1866 14.8442 15.2829 14.6121 15.2832 14.37V7.9932C15.2829 7.7511 15.1866 7.51901 15.0154 7.34782C14.8442 7.17663 14.6121 7.08032 14.37 7.08ZM14.37 7.08H7.99321C7.7512 7.08063 7.5193 7.17705 7.34818 7.34817C7.17705 7.51929 7.08064 7.7512 7.08001 7.9932V14.37C7.08064 14.612 7.17705 14.8439 7.34818 15.015C7.5193 15.1862 7.7512 15.2826 7.99321 15.2832H14.37C14.6121 15.2829 14.8442 15.1866 15.0154 15.0154C15.1866 14.8442 15.2829 14.6121 15.2832 14.37V7.9932C15.2829 7.7511 15.1866 7.51901 15.0154 7.34782C14.8442 7.17663 14.6121 7.08032 14.37 7.08ZM14.37 7.08H7.99321C7.7512 7.08063 7.5193 7.17705 7.34818 7.34817C7.17705 7.51929 7.08064 7.7512 7.08001 7.9932V14.37C7.08064 14.612 7.17705 14.8439 7.34818 15.015C7.5193 15.1862 7.7512 15.2826 7.99321 15.2832H14.37C14.6121 15.2829 14.8442 15.1866 15.0154 15.0154C15.1866 14.8442 15.2829 14.6121 15.2832 14.37V7.9932C15.2829 7.7511 15.1866 7.51901 15.0154 7.34782C14.8442 7.17663 14.6121 7.08032 14.37 7.08ZM14.37 7.08H7.99321C7.7512 7.08063 7.5193 7.17705 7.34818 7.34817C7.17705 7.51929 7.08064 7.7512 7.08001 7.9932V14.37C7.08064 14.612 7.17705 14.8439 7.34818 15.015C7.5193 15.1862 7.7512 15.2826 7.99321 15.2832H14.37C14.6121 15.2829 14.8442 15.1866 15.0154 15.0154C15.1866 14.8442 15.2829 14.6121 15.2832 14.37V7.9932C15.2829 7.7511 15.1866 7.51901 15.0154 7.34782C14.8442 7.17663 14.6121 7.08032 14.37 7.08ZM14.37 7.08H7.99321C7.7512 7.08063 7.5193 7.17705 7.34818 7.34817C7.17705 7.51929 7.08064 7.7512 7.08001 7.9932V14.37C7.08064 14.612 7.17705 14.8439 7.34818 15.015C7.5193 15.1862 7.7512 15.2826 7.99321 15.2832H14.37C14.6121 15.2829 14.8442 15.1866 15.0154 15.0154C15.1866 14.8442 15.2829 14.6121 15.2832 14.37V7.9932C15.2829 7.7511 15.1866 7.51901 15.0154 7.34782C14.8442 7.17663 14.6121 7.08032 14.37 7.08ZM14.37 7.08H7.99321C7.7512 7.08063 7.5193 7.17705 7.34818 7.34817C7.17705 7.51929 7.08064 7.7512 7.08001 7.9932V14.37C7.08064 14.612 7.17705 14.8439 7.34818 15.015C7.5193 15.1862 7.7512 15.2826 7.99321 15.2832H14.37C14.6121 15.2829 14.8442 15.1866 15.0154 15.0154C15.1866 14.8442 15.2829 14.6121 15.2832 14.37V7.9932C15.2829 7.7511 15.1866 7.51901 15.0154 7.34782C14.8442 7.17663 14.6121 7.08032 14.37 7.08ZM14.37 7.08H7.99321C7.7512 7.08063 7.5193 7.17705 7.34818 7.34817C7.17705 7.51929 7.08064 7.7512 7.08001 7.9932V14.37C7.08064 14.612 7.17705 14.8439 7.34818 15.015C7.5193 15.1862 7.7512 15.2826 7.99321 15.2832H14.37C14.6121 15.2829 14.8442 15.1866 15.0154 15.0154C15.1866 14.8442 15.2829 14.6121 15.2832 14.37V7.9932C15.2829 7.7511 15.1866 7.51901 15.0154 7.34782C14.8442 7.17663 14.6121 7.08032 14.37 7.08ZM14.37 7.08H7.99321C7.7512 7.08063 7.5193 7.17705 7.34818 7.34817C7.17705 7.51929 7.08064 7.7512 7.08001 7.9932V14.37C7.08064 14.612 7.17705 14.8439 7.34818 15.015C7.5193 15.1862 7.7512 15.2826 7.99321 15.2832H14.37C14.6121 15.2829 14.8442 15.1866 15.0154 15.0154C15.1866 14.8442 15.2829 14.6121 15.2832 14.37V7.9932C15.2829 7.7511 15.1866 7.51901 15.0154 7.34782C14.8442 7.17663 14.6121 7.08032 14.37 7.08ZM14.37 7.08H7.99321C7.7512 7.08063 7.5193 7.17705 7.34818 7.34817C7.17705 7.51929 7.08064 7.7512 7.08001 7.9932V14.37C7.08064 14.612 7.17705 14.8439 7.34818 15.015C7.5193 15.1862 7.7512 15.2826 7.99321 15.2832H14.37C14.6121 15.2829 14.8442 15.1866 15.0154 15.0154C15.1866 14.8442 15.2829 14.6121 15.2832 14.37V7.9932C15.2829 7.7511 15.1866 7.51901 15.0154 7.34782C14.8442 7.17663 14.6121 7.08032 14.37 7.08ZM14.37 7.08H7.99321C7.7512 7.08063 7.5193 7.17705 7.34818 7.34817C7.17705 7.51929 7.08064 7.7512 7.08001 7.9932V14.37C7.08064 14.612 7.17705 14.8439 7.34818 15.015C7.5193 15.1862 7.7512 15.2826 7.99321 15.2832H14.37C14.6121 15.2829 14.8442 15.1866 15.0154 15.0154C15.1866 14.8442 15.2829 14.6121 15.2832 14.37V7.9932C15.2829 7.7511 15.1866 7.51901 15.0154 7.34782C14.8442 7.17663 14.6121 7.08032 14.37 7.08ZM14.37 7.08H7.99321C7.7512 7.08063 7.5193 7.17705 7.34818 7.34817C7.17705 7.51929 7.08064 7.7512 7.08001 7.9932V14.37C7.08064 14.612 7.17705 14.8439 7.34818 15.015C7.5193 15.1862 7.7512 15.2826 7.99321 15.2832H14.37C14.6121 15.2829 14.8442 15.1866 15.0154 15.0154C15.1866 14.8442 15.2829 14.6121 15.2832 14.37V7.9932C15.2829 7.7511 15.1866 7.51901 15.0154 7.34782C14.8442 7.17663 14.6121 7.08032 14.37 7.08ZM14.37 7.08H7.99321C7.7512 7.08063 7.5193 7.17705 7.34818 7.34817C7.17705 7.51929 7.08064 7.7512 7.08001 7.9932V14.37C7.08064 14.612 7.17705 14.8439 7.34818 15.015C7.5193 15.1862 7.7512 15.2826 7.99321 15.2832H14.37C14.6121 15.2829 14.8442 15.1866 15.0154 15.0154C15.1866 14.8442 15.2829 14.6121 15.2832 14.37V7.9932C15.2829 7.7511 15.1866 7.51901 15.0154 7.34782C14.8442 7.17663 14.6121 7.08032 14.37 7.08ZM14.37 7.08H7.99321C7.7512 7.08063 7.5193 7.17705 7.34818 7.34817C7.17705 7.51929 7.08064 7.7512 7.08001 7.9932V14.37C7.08064 14.612 7.17705 14.8439 7.34818 15.015C7.5193 15.1862 7.7512 15.2826 7.99321 15.2832H14.37C14.6121 15.2829 14.8442 15.1866 15.0154 15.0154C15.1866 14.8442 15.2829 14.6121 15.2832 14.37V7.9932C15.2829 7.7511 15.1866 7.51901 15.0154 7.34782C14.8442 7.17663 14.6121 7.08032 14.37 7.08ZM14.37 7.08H7.99321C7.7512 7.08063 7.5193 7.17705 7.34818 7.34817C7.17705 7.51929 7.08064 7.7512 7.08001 7.9932V14.37C7.08064 14.612 7.17705 14.8439 7.34818 15.015C7.5193 15.1862 7.7512 15.2826 7.99321 15.2832H14.37C14.6121 15.2829 14.8442 15.1866 15.0154 15.0154C15.1866 14.8442 15.2829 14.6121 15.2832 14.37V7.9932C15.2829 7.7511 15.1866 7.51901 15.0154 7.34782C14.8442 7.17663 14.6121 7.08032 14.37 7.08ZM14.37 7.08H7.99321C7.7512 7.08063 7.5193 7.17705 7.34818 7.34817C7.17705 7.51929 7.08064 7.7512 7.08001 7.9932V14.37C7.08064 14.612 7.17705 14.8439 7.34818 15.015C7.5193 15.1862 7.7512 15.2826 7.99321 15.2832H14.37C14.6121 15.2829 14.8442 15.1866 15.0154 15.0154C15.1866 14.8442 15.2829 14.6121 15.2832 14.37V7.9932C15.2829 7.7511 15.1866 7.51901 15.0154 7.34782C14.8442 7.17663 14.6121 7.08032 14.37 7.08ZM14.37 7.08H7.99321C7.7512 7.08063 7.5193 7.17705 7.34818 7.34817C7.17705 7.51929 7.08064 7.7512 7.08001 7.9932V14.37C7.08064 14.612 7.17705 14.8439 7.34818 15.015C7.5193 15.1862 7.7512 15.2826 7.99321 15.2832H14.37C14.6121 15.2829 14.8442 15.1866 15.0154 15.0154C15.1866 14.8442 15.2829 14.6121 15.2832 14.37V7.9932C15.2829 7.7511 15.1866 7.51901 15.0154 7.34782C14.8442 7.17663 14.6121 7.08032 14.37 7.08ZM14.37 7.08H7.99321C7.7512 7.08063 7.5193 7.17705 7.34818 7.34817C7.17705 7.51929 7.08064 7.7512 7.08001 7.9932V14.37C7.08064 14.612 7.17705 14.8439 7.34818 15.015C7.5193 15.1862 7.7512 15.2826 7.99321 15.2832H14.37C14.6121 15.2829 14.8442 15.1866 15.0154 15.0154C15.1866 14.8442 15.2829 14.6121 15.2832 14.37V7.9932C15.2829 7.7511 15.1866 7.51901 15.0154 7.34782C14.8442 7.17663 14.6121 7.08032 14.37 7.08Z" fill="black" />
    <path d="M7 7H15.5V15.5H7V7Z" fill="white" />
  </g>
  <defs>
    <clipPath id="clip0_161_5575">
      <rect width="24" height="24" fill="white" />
    </clipPath>
  </defs>
</svg>
