<svg viewBox="0 0 12 12" xmlns="http://www.w3.org/2000/svg">
  <path d="M6.47128 6.0293L11.8851 0.615508C12.0071 0.493476 12.0071 0.295625 11.8851 0.173594C11.763 0.0515625 11.5652 0.0515625 11.4431 0.173594L6.02933 5.58734L0.615537 0.173555C0.493506 0.0515234 0.295654 0.0515234 0.173623 0.173555C0.0515527 0.295586 0.0515527 0.493437 0.173623 0.615469L5.58737 6.0293L0.173584 11.4431C0.0515137 11.5652 0.0515137 11.763 0.173584 11.885C0.2346 11.9461 0.31456 11.9766 0.39456 11.9766C0.47456 11.9766 0.554521 11.9461 0.615537 11.885L6.02933 6.47125L11.4431 11.885C11.5042 11.9461 11.5841 11.9766 11.6641 11.9766C11.7441 11.9766 11.8241 11.9461 11.8851 11.885C12.0071 11.763 12.0071 11.5652 11.8851 11.4431L6.47128 6.0293Z" />
</svg>
