<svg viewBox="0 0 24 24" fill="none" xmlns="http://www.w3.org/2000/svg">
  <path d="M24 6.75C24 3.02194 20.9781 0 17.25 0C15.1164 0 13.2371 1.00931 12 2.55469C10.7629 1.00931 8.88356 0 6.75 0C3.02194 0 0 3.02194 0 6.75C0 6.82463 0.0196875 6.89494 0.0219375 6.96975H0C0 13.8896 12 24 12 24C12 24 24 13.8896 24 6.96975H23.9781C23.9803 6.89494 24 6.82463 24 6.75ZM22.4788 6.92587L22.4692 7.52063C21.972 12.1597 15.4937 18.8687 11.9992 22.0093C8.5305 18.8936 2.11894 12.2593 1.54181 7.62019L1.52138 6.92587C1.51913 6.84806 1.51181 6.77044 1.5 6.6855C1.53525 3.82031 3.87675 1.5 6.75 1.5C8.32912 1.5 9.816 2.22656 10.8289 3.49219L12 4.95563L13.1711 3.49219C14.184 2.22656 15.6709 1.5 17.25 1.5C20.1232 1.5 22.4649 3.82031 22.4993 6.6855C22.4889 6.76462 22.4809 6.84375 22.4788 6.92587Z" fill="#F01D24"/>
  <path d="M22.4788 6.92587L22.4692 7.52063C21.972 12.1597 15.4937 18.8687 11.9992 22.0093C8.5305 18.8936 2.11894 12.2593 1.54181 7.62019L1.52138 6.92587C1.51913 6.84806 1.51181 6.77044 1.5 6.6855C1.53525 3.82031 3.87675 1.5 6.75 1.5C8.32912 1.5 9.816 2.22656 10.8289 3.49219L12 4.95563L13.1711 3.49219C14.184 2.22656 15.6709 1.5 17.25 1.5C20.1232 1.5 22.4649 3.82031 22.4993 6.6855C22.4889 6.76462 22.4809 6.84375 22.4788 6.92587Z" fill="#F01D24"/>
</svg>
