<svg viewBox="0 0 24 24" fill="none" xmlns="http://www.w3.org/2000/svg">
  <g clip-path="url(#clip0_159_4034)">
    <path d="M8.22978 7.38929L2.78125 9.904V21.2202L8.22978 19.1246L15.7739 21.2202L21.6415 18.7055V7.38929L18.2886 8.22752L15.7739 12.4187L14.9357 11.9996L13.2592 9.06576L8.22978 7.38929Z" fill="white"/>
    <path d="M18.2905 7.38897C17.5356 10.4103 16.5135 11.9997 15.3562 11.9997C14.1988 11.9997 14.0989 9.90415 12.842 7.80806C11.5842 4.45562 13.7796 2.77905 14.937 2.77905C17.8708 2.77905 19.1282 4.03631 18.2905 7.38897Z" fill="white"/>
    <path d="M19.6521 6.06455C19.6521 3.79082 17.8023 1.94116 15.5287 1.94116C13.2551 1.94116 11.4055 3.79082 11.4055 6.06455C11.4055 6.64964 11.5278 7.23273 11.7553 7.75934L8.44244 6.65501L1.94141 9.23817V22.0588L8.46853 19.7246L15.5462 22.0445L22.0475 19.5042V6.41557L19.42 7.45421C19.5715 7.01155 19.6521 6.53867 19.6521 6.06455ZM15.5287 3.11932C17.1527 3.11932 18.4739 4.44052 18.4739 6.06455C18.4739 6.65393 18.3054 7.23764 17.9992 7.70792L15.5287 11.5035L13.0582 7.70792C12.7522 7.23764 12.5835 6.65393 12.5835 6.06455C12.5835 4.44052 13.9047 3.11932 15.5287 3.11932ZM9.04916 8.09915L12.699 9.31568L14.9396 12.7581V20.6059L9.04916 18.6752V8.09915ZM3.11956 10.0378L7.87116 8.1498V18.687L3.11956 20.3863V10.0378ZM20.8694 18.6998L16.1178 20.5563V12.7581L18.5119 9.08008L20.8694 8.14811V18.6998Z" fill="#3E68FF"/>
    <path d="M15.5288 7.87121C16.4867 7.87121 17.296 7.04392 17.296 6.06484C17.296 5.09036 16.5033 4.29761 15.5288 4.29761C14.5545 4.29761 13.7617 5.09036 13.7617 6.06484C13.7617 7.04392 14.5709 7.87121 15.5288 7.87121ZM15.5288 5.47576C15.8536 5.47576 16.1179 5.73991 16.1179 6.06484C16.1179 6.39944 15.8425 6.69305 15.5288 6.69305C15.2151 6.69305 14.9397 6.39944 14.9397 6.06484C14.9397 5.73991 15.204 5.47576 15.5288 5.47576Z" fill="#3E68FF"/>
  </g>
  <defs>
    <clipPath id="clip0_159_4034">
      <rect width="20.1176" height="20.1176" fill="white" transform="translate(1.94141 1.94116)"/>
    </clipPath>
  </defs>
</svg>
