<svg viewBox="0 0 24 24" fill="none" xmlns="http://www.w3.org/2000/svg">
  <g clip-path="url(#clip0_2001_1080)">
    <path d="M7.5 6.5L1 9.5V23L7.5 20.5L16.5 23L23.5 20V6.5L19.5 7.5L16.5 12.5L15.5 12L13.5 8.5L7.5 6.5Z" fill="white"/>
    <path d="M19.5007 6.49955C18.6001 10.1039 17.3808 12.0001 16.0001 12.0001C14.6194 12.0001 14.5002 9.50011 13.0007 6.99952C11.5002 3.00012 14.1193 1 15.5 1C19 1 20.5001 2.49989 19.5007 6.49955Z" fill="white"/>
    <path d="M21.1285 4.91913C21.1285 2.2066 18.9218 0 16.2094 0C13.4971 0 11.2905 2.2066 11.2905 4.91913C11.2905 5.61713 11.4364 6.31274 11.7078 6.94098L7.75562 5.62354L0 8.7052V24L7.78674 21.2153L16.2303 23.983L23.9863 20.9524V5.33789L20.8517 6.57697C21.0324 6.04889 21.1285 5.48474 21.1285 4.91913ZM16.2094 1.40552C18.1469 1.40552 19.723 2.98169 19.723 4.91913C19.723 5.62225 19.522 6.3186 19.1567 6.87964L16.2094 11.4077L13.2621 6.87964C12.897 6.3186 12.6958 5.62225 12.6958 4.91913C12.6958 2.98169 14.272 1.40552 16.2094 1.40552ZM8.47943 7.34637L12.8337 8.79767L15.5067 12.9044V22.2667L8.47943 19.9634V7.34637ZM1.40552 9.65918L7.0741 7.4068V19.9775L1.40552 22.0047V9.65918ZM22.5807 19.9927L16.9122 22.2076V12.9044L19.7682 8.5166L22.5807 7.40479V19.9927Z" fill="#1A1A1A"/>
    <path d="M16.2097 7.07379C17.3524 7.07379 18.3179 6.08685 18.3179 4.91882C18.3179 3.75629 17.3722 2.81055 16.2097 2.81055C15.0473 2.81055 14.1016 3.75629 14.1016 4.91882C14.1016 6.08685 15.0669 7.07379 16.2097 7.07379ZM16.2097 4.21606C16.5971 4.21606 16.9124 4.53119 16.9124 4.91882C16.9124 5.31799 16.5839 5.66827 16.2097 5.66827C15.8354 5.66827 15.5069 5.31799 15.5069 4.91882C15.5069 4.53119 15.8222 4.21606 16.2097 4.21606Z" fill="#1A1A1A"/>
  </g>
  <defs>
    <clipPath id="clip0_2001_1080">
      <rect width="24" height="24" fill="white"/>
    </clipPath>
  </defs>
</svg>
