<svg viewBox="0 0 24 24" fill="none" xmlns="http://www.w3.org/2000/svg">
  <circle cx="12" cy="12" r="11" fill="#1A1A1A" />
  <path fill-rule="evenodd" clip-rule="evenodd" d="M8 6.63636C7.24688 6.63636 6.63636 7.24688 6.63636 8C6.63636 8.75312 7.24688 9.36364 8 9.36364C8.75312 9.36364 9.36364 8.75312 9.36364 8C9.36364 7.24688 8.75312 6.63636 8 6.63636ZM5 8C5 6.34315 6.34315 5 8 5C9.65685 5 11 6.34315 11 8C11 9.65685 9.65685 11 8 11C6.34315 11 5 9.65685 5 8Z" fill="white" />
  <path fill-rule="evenodd" clip-rule="evenodd" d="M16 14.6364C15.2469 14.6364 14.6364 15.2469 14.6364 16C14.6364 16.7531 15.2469 17.3636 16 17.3636C16.7531 17.3636 17.3636 16.7531 17.3636 16C17.3636 15.2469 16.7531 14.6364 16 14.6364ZM13 16C13 14.3431 14.3431 13 16 13C17.6569 13 19 14.3431 19 16C19 17.6569 17.6569 19 16 19C14.3431 19 13 17.6569 13 16Z" fill="white" />
  <path fill-rule="evenodd" clip-rule="evenodd" d="M15.7187 5.13071C16.0089 5.36898 16.0873 5.85187 15.8939 6.20928L9.15713 18.6536C8.96365 19.011 8.57153 19.1076 8.2813 18.8693C7.99108 18.631 7.91266 18.1481 8.10614 17.7907L14.8429 5.34642C15.0364 4.98902 15.4285 4.89244 15.7187 5.13071Z" fill="white" />
  <path fill-rule="evenodd" clip-rule="evenodd" d="M12 1.43426C6.1647 1.43426 1.43426 6.1647 1.43426 12C1.43426 17.8353 6.1647 22.5657 12 22.5657C17.8353 22.5657 22.5657 17.8353 22.5657 12C22.5657 6.1647 17.8353 1.43426 12 1.43426ZM0 12C0 5.37258 5.37258 0 12 0C18.6274 0 24 5.37258 24 12C24 18.6274 18.6274 24 12 24C5.37258 24 0 18.6274 0 12Z" fill="#1A1A1A" />
</svg>
