<svg viewBox="0 0 16 16" xmlns="http://www.w3.org/2000/svg">
  <path fill-rule="evenodd" clip-rule="evenodd" d="M10.4819 11.7945C9.42343 12.578 12.7147 9.21233 11.7781 10.4917C11.8016 10.4898 11.7581 10.5608 11.6125 10.7386C11.6125 10.7386 14.1137 13.223 15.3416 14.4873C15.7678 14.9483 14.9987 15.8683 14.4762 15.388C13.3644 14.3092 10.7334 11.6283 10.7294 11.6239L10.4819 11.7945Z" />
  <path d="M6.80637 13.0503C8.41574 13.0347 10.0089 12.3681 11.1545 11.2359C12.5151 9.89125 13.2157 7.90187 12.9714 6.0025C12.5526 2.74781 9.87699 0.539062 6.76637 0.539062C4.40293 0.539062 2.10605 2.0175 1.09855 4.16125C0.327305 5.8025 0.325742 7.78406 1.09855 9.42813C2.09887 11.5569 4.35824 13.0275 6.72606 13.0503C6.75293 13.0503 6.77981 13.0503 6.80637 13.0503ZM6.73262 12.0075C4.32918 11.9844 2.08668 10.1256 1.64074 7.7425C1.32637 6.0625 1.9198 4.24438 3.15605 3.05125C4.59918 1.65781 6.86762 1.19125 8.75387 1.98094C10.4414 2.6875 11.7045 4.32813 11.9373 6.13562C12.1367 7.685 11.5807 9.30875 10.4882 10.4272C9.5298 11.4084 8.18574 11.9941 6.79981 12.0075C6.77731 12.0075 6.75512 12.0075 6.73262 12.0075Z" />
</svg>
