<svg viewBox="0 0 24 24" fill="none" xmlns="http://www.w3.org/2000/svg">
  <path fill-rule="evenodd" clip-rule="evenodd" d="M12 1.43426C6.1647 1.43426 1.43426 6.1647 1.43426 12C1.43426 17.8353 6.1647 22.5657 12 22.5657C17.8353 22.5657 22.5657 17.8353 22.5657 12C22.5657 6.1647 17.8353 1.43426 12 1.43426ZM0 12C0 5.37258 5.37258 0 12 0C18.6274 0 24 5.37258 24 12C24 18.6274 18.6274 24 12 24C5.37258 24 0 18.6274 0 12Z" fill="#393939"/>
  <g clip-path="url(#clip0_159_4045)">
  <path d="M5.20325 16.8937C5.17968 16.8937 5.15592 16.8896 5.13297 16.8811C5.04806 16.8498 4.99403 16.7664 5.00053 16.676C5.00561 16.6043 5.59812 9.56618 13.3475 8.96229L13.3289 6.30988C13.3282 6.2266 13.3788 6.15124 13.4562 6.12016C13.5334 6.08909 13.6222 6.10818 13.6797 6.16912L17.9447 10.6821C18.0186 10.7604 18.0186 10.8826 17.9449 10.9608L13.6532 15.5143C13.596 15.5754 13.5068 15.5947 13.4296 15.5634C13.352 15.5324 13.3014 15.4568 13.3022 15.3729L13.3268 12.7879C8.11322 13.1625 5.39398 16.7741 5.36676 16.8108C5.32756 16.8641 5.26642 16.8937 5.20325 16.8937Z" fill="#393939"/>
  </g>
  <defs>
  <clipPath id="clip0_159_4045">
  <rect width="13" height="13" fill="white" transform="translate(5 5)"/>
  </clipPath>
  </defs>
</svg>
